G04 #@! TF.GenerationSoftware,KiCad,Pcbnew,(5.1.4)-1*
G04 #@! TF.CreationDate,2020-12-21T11:31:58-05:00*
G04 #@! TF.ProjectId,faceplate,66616365-706c-4617-9465-2e6b69636164,rev?*
G04 #@! TF.SameCoordinates,Original*
G04 #@! TF.FileFunction,Legend,Bot*
G04 #@! TF.FilePolarity,Positive*
%FSLAX46Y46*%
G04 Gerber Fmt 4.6, Leading zero omitted, Abs format (unit mm)*
G04 Created by KiCad (PCBNEW (5.1.4)-1) date 2020-12-21 11:31:58*
%MOMM*%
%LPD*%
G04 APERTURE LIST*
%ADD10C,0.300000*%
%ADD11C,0.150000*%
G04 APERTURE END LIST*
D10*
X162561428Y-45123571D02*
X162561428Y-43623571D01*
X162061428Y-44695000D01*
X161561428Y-43623571D01*
X161561428Y-45123571D01*
X160204285Y-45123571D02*
X160204285Y-44337857D01*
X160275714Y-44195000D01*
X160418571Y-44123571D01*
X160704285Y-44123571D01*
X160847142Y-44195000D01*
X160204285Y-45052142D02*
X160347142Y-45123571D01*
X160704285Y-45123571D01*
X160847142Y-45052142D01*
X160918571Y-44909285D01*
X160918571Y-44766428D01*
X160847142Y-44623571D01*
X160704285Y-44552142D01*
X160347142Y-44552142D01*
X160204285Y-44480714D01*
X159632857Y-45123571D02*
X158847142Y-44123571D01*
X159632857Y-44123571D02*
X158847142Y-45123571D01*
X157132857Y-45123571D02*
X157132857Y-43623571D01*
X156561428Y-43623571D01*
X156418571Y-43695000D01*
X156347142Y-43766428D01*
X156275714Y-43909285D01*
X156275714Y-44123571D01*
X156347142Y-44266428D01*
X156418571Y-44337857D01*
X156561428Y-44409285D01*
X157132857Y-44409285D01*
X155632857Y-45123571D02*
X155632857Y-44123571D01*
X155632857Y-44409285D02*
X155561428Y-44266428D01*
X155490000Y-44195000D01*
X155347142Y-44123571D01*
X155204285Y-44123571D01*
X154490000Y-45123571D02*
X154632857Y-45052142D01*
X154704285Y-44980714D01*
X154775714Y-44837857D01*
X154775714Y-44409285D01*
X154704285Y-44266428D01*
X154632857Y-44195000D01*
X154490000Y-44123571D01*
X154275714Y-44123571D01*
X154132857Y-44195000D01*
X154061428Y-44266428D01*
X153990000Y-44409285D01*
X153990000Y-44837857D01*
X154061428Y-44980714D01*
X154132857Y-45052142D01*
X154275714Y-45123571D01*
X154490000Y-45123571D01*
X153418571Y-45052142D02*
X153275714Y-45123571D01*
X152990000Y-45123571D01*
X152847142Y-45052142D01*
X152775714Y-44909285D01*
X152775714Y-44837857D01*
X152847142Y-44695000D01*
X152990000Y-44623571D01*
X153204285Y-44623571D01*
X153347142Y-44552142D01*
X153418571Y-44409285D01*
X153418571Y-44337857D01*
X153347142Y-44195000D01*
X153204285Y-44123571D01*
X152990000Y-44123571D01*
X152847142Y-44195000D01*
X152132857Y-45123571D02*
X152132857Y-43623571D01*
X151990000Y-44552142D02*
X151561428Y-45123571D01*
X151561428Y-44123571D02*
X152132857Y-44695000D01*
X150275714Y-45123571D02*
X150275714Y-44337857D01*
X150347142Y-44195000D01*
X150490000Y-44123571D01*
X150775714Y-44123571D01*
X150918571Y-44195000D01*
X150275714Y-45052142D02*
X150418571Y-45123571D01*
X150775714Y-45123571D01*
X150918571Y-45052142D01*
X150990000Y-44909285D01*
X150990000Y-44766428D01*
X150918571Y-44623571D01*
X150775714Y-44552142D01*
X150418571Y-44552142D01*
X150275714Y-44480714D01*
X148918571Y-44123571D02*
X148918571Y-45123571D01*
X149561428Y-44123571D02*
X149561428Y-44909285D01*
X149490000Y-45052142D01*
X149347142Y-45123571D01*
X149132857Y-45123571D01*
X148990000Y-45052142D01*
X148918571Y-44980714D01*
X147632857Y-45052142D02*
X147775714Y-45123571D01*
X148061428Y-45123571D01*
X148204285Y-45052142D01*
X148275714Y-44909285D01*
X148275714Y-44337857D01*
X148204285Y-44195000D01*
X148061428Y-44123571D01*
X147775714Y-44123571D01*
X147632857Y-44195000D01*
X147561428Y-44337857D01*
X147561428Y-44480714D01*
X148275714Y-44623571D01*
X146918571Y-45123571D02*
X146918571Y-44123571D01*
X146918571Y-44409285D02*
X146847142Y-44266428D01*
X146775714Y-44195000D01*
X146632857Y-44123571D01*
X146490000Y-44123571D01*
X141561428Y-44123571D02*
X141204285Y-45123571D01*
X140847142Y-44123571D01*
X139990000Y-43623571D02*
X139847142Y-43623571D01*
X139704285Y-43695000D01*
X139632857Y-43766428D01*
X139561428Y-43909285D01*
X139490000Y-44195000D01*
X139490000Y-44552142D01*
X139561428Y-44837857D01*
X139632857Y-44980714D01*
X139704285Y-45052142D01*
X139847142Y-45123571D01*
X139990000Y-45123571D01*
X140132857Y-45052142D01*
X140204285Y-44980714D01*
X140275714Y-44837857D01*
X140347142Y-44552142D01*
X140347142Y-44195000D01*
X140275714Y-43909285D01*
X140204285Y-43766428D01*
X140132857Y-43695000D01*
X139990000Y-43623571D01*
X138847142Y-44980714D02*
X138775714Y-45052142D01*
X138847142Y-45123571D01*
X138918571Y-45052142D01*
X138847142Y-44980714D01*
X138847142Y-45123571D01*
X137347142Y-45123571D02*
X138204285Y-45123571D01*
X137775714Y-45123571D02*
X137775714Y-43623571D01*
X137918571Y-43837857D01*
X138061428Y-43980714D01*
X138204285Y-44052142D01*
X132132857Y-45123571D02*
X132132857Y-43623571D01*
X131775714Y-43623571D01*
X131561428Y-43695000D01*
X131418571Y-43837857D01*
X131347142Y-43980714D01*
X131275714Y-44266428D01*
X131275714Y-44480714D01*
X131347142Y-44766428D01*
X131418571Y-44909285D01*
X131561428Y-45052142D01*
X131775714Y-45123571D01*
X132132857Y-45123571D01*
X130061428Y-45052142D02*
X130204285Y-45123571D01*
X130490000Y-45123571D01*
X130632857Y-45052142D01*
X130704285Y-44909285D01*
X130704285Y-44337857D01*
X130632857Y-44195000D01*
X130490000Y-44123571D01*
X130204285Y-44123571D01*
X130061428Y-44195000D01*
X129990000Y-44337857D01*
X129990000Y-44480714D01*
X130704285Y-44623571D01*
X128704285Y-45052142D02*
X128847142Y-45123571D01*
X129132857Y-45123571D01*
X129275714Y-45052142D01*
X129347142Y-44980714D01*
X129418571Y-44837857D01*
X129418571Y-44409285D01*
X129347142Y-44266428D01*
X129275714Y-44195000D01*
X129132857Y-44123571D01*
X128847142Y-44123571D01*
X128704285Y-44195000D01*
X126990000Y-43766428D02*
X126918571Y-43695000D01*
X126775714Y-43623571D01*
X126418571Y-43623571D01*
X126275714Y-43695000D01*
X126204285Y-43766428D01*
X126132857Y-43909285D01*
X126132857Y-44052142D01*
X126204285Y-44266428D01*
X127061428Y-45123571D01*
X126132857Y-45123571D01*
X125204285Y-43623571D02*
X125061428Y-43623571D01*
X124918571Y-43695000D01*
X124847142Y-43766428D01*
X124775714Y-43909285D01*
X124704285Y-44195000D01*
X124704285Y-44552142D01*
X124775714Y-44837857D01*
X124847142Y-44980714D01*
X124918571Y-45052142D01*
X125061428Y-45123571D01*
X125204285Y-45123571D01*
X125347142Y-45052142D01*
X125418571Y-44980714D01*
X125490000Y-44837857D01*
X125561428Y-44552142D01*
X125561428Y-44195000D01*
X125490000Y-43909285D01*
X125418571Y-43766428D01*
X125347142Y-43695000D01*
X125204285Y-43623571D01*
X124132857Y-43766428D02*
X124061428Y-43695000D01*
X123918571Y-43623571D01*
X123561428Y-43623571D01*
X123418571Y-43695000D01*
X123347142Y-43766428D01*
X123275714Y-43909285D01*
X123275714Y-44052142D01*
X123347142Y-44266428D01*
X124204285Y-45123571D01*
X123275714Y-45123571D01*
X122347142Y-43623571D02*
X122204285Y-43623571D01*
X122061428Y-43695000D01*
X121990000Y-43766428D01*
X121918571Y-43909285D01*
X121847142Y-44195000D01*
X121847142Y-44552142D01*
X121918571Y-44837857D01*
X121990000Y-44980714D01*
X122061428Y-45052142D01*
X122204285Y-45123571D01*
X122347142Y-45123571D01*
X122490000Y-45052142D01*
X122561428Y-44980714D01*
X122632857Y-44837857D01*
X122704285Y-44552142D01*
X122704285Y-44195000D01*
X122632857Y-43909285D01*
X122561428Y-43766428D01*
X122490000Y-43695000D01*
X122347142Y-43623571D01*
X158132857Y-46673571D02*
X158132857Y-47887857D01*
X158204285Y-48030714D01*
X158275714Y-48102142D01*
X158418571Y-48173571D01*
X158632857Y-48173571D01*
X158775714Y-48102142D01*
X158132857Y-47602142D02*
X158275714Y-47673571D01*
X158561428Y-47673571D01*
X158704285Y-47602142D01*
X158775714Y-47530714D01*
X158847142Y-47387857D01*
X158847142Y-46959285D01*
X158775714Y-46816428D01*
X158704285Y-46745000D01*
X158561428Y-46673571D01*
X158275714Y-46673571D01*
X158132857Y-46745000D01*
X157418571Y-47673571D02*
X157418571Y-46673571D01*
X157418571Y-46173571D02*
X157490000Y-46245000D01*
X157418571Y-46316428D01*
X157347142Y-46245000D01*
X157418571Y-46173571D01*
X157418571Y-46316428D01*
X156918571Y-46673571D02*
X156347142Y-46673571D01*
X156704285Y-46173571D02*
X156704285Y-47459285D01*
X156632857Y-47602142D01*
X156490000Y-47673571D01*
X156347142Y-47673571D01*
X155847142Y-47673571D02*
X155847142Y-46173571D01*
X155204285Y-47673571D02*
X155204285Y-46887857D01*
X155275714Y-46745000D01*
X155418571Y-46673571D01*
X155632857Y-46673571D01*
X155775714Y-46745000D01*
X155847142Y-46816428D01*
X153847142Y-46673571D02*
X153847142Y-47673571D01*
X154490000Y-46673571D02*
X154490000Y-47459285D01*
X154418571Y-47602142D01*
X154275714Y-47673571D01*
X154061428Y-47673571D01*
X153918571Y-47602142D01*
X153847142Y-47530714D01*
X153132857Y-47673571D02*
X153132857Y-46173571D01*
X153132857Y-46745000D02*
X152990000Y-46673571D01*
X152704285Y-46673571D01*
X152561428Y-46745000D01*
X152490000Y-46816428D01*
X152418571Y-46959285D01*
X152418571Y-47387857D01*
X152490000Y-47530714D01*
X152561428Y-47602142D01*
X152704285Y-47673571D01*
X152990000Y-47673571D01*
X153132857Y-47602142D01*
X151775714Y-47530714D02*
X151704285Y-47602142D01*
X151775714Y-47673571D01*
X151847142Y-47602142D01*
X151775714Y-47530714D01*
X151775714Y-47673571D01*
X150418571Y-47602142D02*
X150561428Y-47673571D01*
X150847142Y-47673571D01*
X150990000Y-47602142D01*
X151061428Y-47530714D01*
X151132857Y-47387857D01*
X151132857Y-46959285D01*
X151061428Y-46816428D01*
X150990000Y-46745000D01*
X150847142Y-46673571D01*
X150561428Y-46673571D01*
X150418571Y-46745000D01*
X149561428Y-47673571D02*
X149704285Y-47602142D01*
X149775714Y-47530714D01*
X149847142Y-47387857D01*
X149847142Y-46959285D01*
X149775714Y-46816428D01*
X149704285Y-46745000D01*
X149561428Y-46673571D01*
X149347142Y-46673571D01*
X149204285Y-46745000D01*
X149132857Y-46816428D01*
X149061428Y-46959285D01*
X149061428Y-47387857D01*
X149132857Y-47530714D01*
X149204285Y-47602142D01*
X149347142Y-47673571D01*
X149561428Y-47673571D01*
X148418571Y-47673571D02*
X148418571Y-46673571D01*
X148418571Y-46816428D02*
X148347142Y-46745000D01*
X148204285Y-46673571D01*
X147990000Y-46673571D01*
X147847142Y-46745000D01*
X147775714Y-46887857D01*
X147775714Y-47673571D01*
X147775714Y-46887857D02*
X147704285Y-46745000D01*
X147561428Y-46673571D01*
X147347142Y-46673571D01*
X147204285Y-46745000D01*
X147132857Y-46887857D01*
X147132857Y-47673571D01*
X145347142Y-46102142D02*
X146632857Y-48030714D01*
X144847142Y-47673571D02*
X144847142Y-46673571D01*
X144847142Y-46816428D02*
X144775714Y-46745000D01*
X144632857Y-46673571D01*
X144418571Y-46673571D01*
X144275714Y-46745000D01*
X144204285Y-46887857D01*
X144204285Y-47673571D01*
X144204285Y-46887857D02*
X144132857Y-46745000D01*
X143990000Y-46673571D01*
X143775714Y-46673571D01*
X143632857Y-46745000D01*
X143561428Y-46887857D01*
X143561428Y-47673571D01*
X142847142Y-46673571D02*
X142847142Y-48173571D01*
X142847142Y-46745000D02*
X142704285Y-46673571D01*
X142418571Y-46673571D01*
X142275714Y-46745000D01*
X142204285Y-46816428D01*
X142132857Y-46959285D01*
X142132857Y-47387857D01*
X142204285Y-47530714D01*
X142275714Y-47602142D01*
X142418571Y-47673571D01*
X142704285Y-47673571D01*
X142847142Y-47602142D01*
X141490000Y-47673571D02*
X141490000Y-46673571D01*
X141490000Y-46959285D02*
X141418571Y-46816428D01*
X141347142Y-46745000D01*
X141204285Y-46673571D01*
X141061428Y-46673571D01*
X140347142Y-47673571D02*
X140490000Y-47602142D01*
X140561428Y-47530714D01*
X140632857Y-47387857D01*
X140632857Y-46959285D01*
X140561428Y-46816428D01*
X140490000Y-46745000D01*
X140347142Y-46673571D01*
X140132857Y-46673571D01*
X139990000Y-46745000D01*
X139918571Y-46816428D01*
X139847142Y-46959285D01*
X139847142Y-47387857D01*
X139918571Y-47530714D01*
X139990000Y-47602142D01*
X140132857Y-47673571D01*
X140347142Y-47673571D01*
X139275714Y-47602142D02*
X139132857Y-47673571D01*
X138847142Y-47673571D01*
X138704285Y-47602142D01*
X138632857Y-47459285D01*
X138632857Y-47387857D01*
X138704285Y-47245000D01*
X138847142Y-47173571D01*
X139061428Y-47173571D01*
X139204285Y-47102142D01*
X139275714Y-46959285D01*
X139275714Y-46887857D01*
X139204285Y-46745000D01*
X139061428Y-46673571D01*
X138847142Y-46673571D01*
X138704285Y-46745000D01*
X137990000Y-47673571D02*
X137990000Y-46173571D01*
X137847142Y-47102142D02*
X137418571Y-47673571D01*
X137418571Y-46673571D02*
X137990000Y-47245000D01*
X135704285Y-46102142D02*
X136990000Y-48030714D01*
X135204285Y-47673571D02*
X135204285Y-46173571D01*
X135204285Y-46745000D02*
X135061428Y-46673571D01*
X134775714Y-46673571D01*
X134632857Y-46745000D01*
X134561428Y-46816428D01*
X134490000Y-46959285D01*
X134490000Y-47387857D01*
X134561428Y-47530714D01*
X134632857Y-47602142D01*
X134775714Y-47673571D01*
X135061428Y-47673571D01*
X135204285Y-47602142D01*
X133204285Y-46673571D02*
X133204285Y-47673571D01*
X133847142Y-46673571D02*
X133847142Y-47459285D01*
X133775714Y-47602142D01*
X133632857Y-47673571D01*
X133418571Y-47673571D01*
X133275714Y-47602142D01*
X133204285Y-47530714D01*
X132632857Y-46673571D02*
X131847142Y-46673571D01*
X132632857Y-47673571D01*
X131847142Y-47673571D01*
X131418571Y-46673571D02*
X130632857Y-46673571D01*
X131418571Y-47673571D01*
X130632857Y-47673571D01*
X130204285Y-46673571D02*
X129847142Y-47673571D01*
X129490000Y-46673571D02*
X129847142Y-47673571D01*
X129990000Y-48030714D01*
X130061428Y-48102142D01*
X130204285Y-48173571D01*
X128918571Y-47673571D02*
X128918571Y-46173571D01*
X128918571Y-46745000D02*
X128775714Y-46673571D01*
X128490000Y-46673571D01*
X128347142Y-46745000D01*
X128275714Y-46816428D01*
X128204285Y-46959285D01*
X128204285Y-47387857D01*
X128275714Y-47530714D01*
X128347142Y-47602142D01*
X128490000Y-47673571D01*
X128775714Y-47673571D01*
X128918571Y-47602142D01*
X127347142Y-47673571D02*
X127490000Y-47602142D01*
X127561428Y-47530714D01*
X127632857Y-47387857D01*
X127632857Y-46959285D01*
X127561428Y-46816428D01*
X127490000Y-46745000D01*
X127347142Y-46673571D01*
X127132857Y-46673571D01*
X126990000Y-46745000D01*
X126918571Y-46816428D01*
X126847142Y-46959285D01*
X126847142Y-47387857D01*
X126918571Y-47530714D01*
X126990000Y-47602142D01*
X127132857Y-47673571D01*
X127347142Y-47673571D01*
X126347142Y-47673571D02*
X125561428Y-46673571D01*
X126347142Y-46673571D02*
X125561428Y-47673571D01*
D11*
X188608690Y-98512380D02*
X188608690Y-99226666D01*
X188656309Y-99369523D01*
X188751547Y-99464761D01*
X188894404Y-99512380D01*
X188989642Y-99512380D01*
X187656309Y-99512380D02*
X188132500Y-99512380D01*
X188132500Y-98512380D01*
X186751547Y-99417142D02*
X186799166Y-99464761D01*
X186942023Y-99512380D01*
X187037261Y-99512380D01*
X187180119Y-99464761D01*
X187275357Y-99369523D01*
X187322976Y-99274285D01*
X187370595Y-99083809D01*
X187370595Y-98940952D01*
X187322976Y-98750476D01*
X187275357Y-98655238D01*
X187180119Y-98560000D01*
X187037261Y-98512380D01*
X186942023Y-98512380D01*
X186799166Y-98560000D01*
X186751547Y-98607619D01*
X186037261Y-98512380D02*
X186037261Y-99226666D01*
X186084880Y-99369523D01*
X186180119Y-99464761D01*
X186322976Y-99512380D01*
X186418214Y-99512380D01*
X185084880Y-99512380D02*
X185561071Y-99512380D01*
X185561071Y-98512380D01*
X184180119Y-99417142D02*
X184227738Y-99464761D01*
X184370595Y-99512380D01*
X184465833Y-99512380D01*
X184608690Y-99464761D01*
X184703928Y-99369523D01*
X184751547Y-99274285D01*
X184799166Y-99083809D01*
X184799166Y-98940952D01*
X184751547Y-98750476D01*
X184703928Y-98655238D01*
X184608690Y-98560000D01*
X184465833Y-98512380D01*
X184370595Y-98512380D01*
X184227738Y-98560000D01*
X184180119Y-98607619D01*
X183465833Y-98512380D02*
X183465833Y-99226666D01*
X183513452Y-99369523D01*
X183608690Y-99464761D01*
X183751547Y-99512380D01*
X183846785Y-99512380D01*
X182513452Y-99512380D02*
X182989642Y-99512380D01*
X182989642Y-98512380D01*
X181608690Y-99417142D02*
X181656309Y-99464761D01*
X181799166Y-99512380D01*
X181894404Y-99512380D01*
X182037261Y-99464761D01*
X182132500Y-99369523D01*
X182180119Y-99274285D01*
X182227738Y-99083809D01*
X182227738Y-98940952D01*
X182180119Y-98750476D01*
X182132500Y-98655238D01*
X182037261Y-98560000D01*
X181894404Y-98512380D01*
X181799166Y-98512380D01*
X181656309Y-98560000D01*
X181608690Y-98607619D01*
X180894404Y-98512380D02*
X180894404Y-99226666D01*
X180942023Y-99369523D01*
X181037261Y-99464761D01*
X181180119Y-99512380D01*
X181275357Y-99512380D01*
X179942023Y-99512380D02*
X180418214Y-99512380D01*
X180418214Y-98512380D01*
X179037261Y-99417142D02*
X179084880Y-99464761D01*
X179227738Y-99512380D01*
X179322976Y-99512380D01*
X179465833Y-99464761D01*
X179561071Y-99369523D01*
X179608690Y-99274285D01*
X179656309Y-99083809D01*
X179656309Y-98940952D01*
X179608690Y-98750476D01*
X179561071Y-98655238D01*
X179465833Y-98560000D01*
X179322976Y-98512380D01*
X179227738Y-98512380D01*
X179084880Y-98560000D01*
X179037261Y-98607619D01*
M02*
