M48
; DRILL file {KiCad (5.1.4)-1} date 12/21/2020 11:32:02 AM
; FORMAT={2:4/ absolute / inch / suppress trailing zeros}
; #@! TF.CreationDate,2020-12-21T11:32:02-05:00
; #@! TF.GenerationSoftware,Kicad,Pcbnew,(5.1.4)-1
; #@! TF.FileFunction,NonPlated,1,2,NPTH
FMAT,2
INCH,LZ
T1C0.1969
T2C0.2520
%
G90
G05
T1
X059Y-031
X066Y-031
X052Y-031
X045Y-0225
X066Y-0225
X059Y-0225
X045Y-031
X073Y-031
X052Y-0225
X073Y-0225
T2
X066Y-026
X059Y-026
X052Y-026
X045Y-026
X066Y-0345
X045Y-0345
X073Y-026
X073Y-0345
X052Y-0345
X059Y-0345
T0
M30
