G04 #@! TF.GenerationSoftware,KiCad,Pcbnew,(5.1.4)-1*
G04 #@! TF.CreationDate,2020-12-21T11:31:01-05:00*
G04 #@! TF.ProjectId,buzzybox,62757a7a-7962-46f7-982e-6b696361645f,rev?*
G04 #@! TF.SameCoordinates,Original*
G04 #@! TF.FileFunction,Legend,Bot*
G04 #@! TF.FilePolarity,Positive*
%FSLAX46Y46*%
G04 Gerber Fmt 4.6, Leading zero omitted, Abs format (unit mm)*
G04 Created by KiCad (PCBNEW (5.1.4)-1) date 2020-12-21 11:31:01*
%MOMM*%
%LPD*%
G04 APERTURE LIST*
%ADD10C,0.500000*%
%ADD11C,0.300000*%
%ADD12C,2.000000*%
%ADD13C,0.150000*%
G04 APERTURE END LIST*
D10*
X110378571Y-57094285D02*
X109950000Y-57237142D01*
X109235714Y-57237142D01*
X108950000Y-57094285D01*
X108807142Y-56951428D01*
X108664285Y-56665714D01*
X108664285Y-56380000D01*
X108807142Y-56094285D01*
X108950000Y-55951428D01*
X109235714Y-55808571D01*
X109807142Y-55665714D01*
X110092857Y-55522857D01*
X110235714Y-55380000D01*
X110378571Y-55094285D01*
X110378571Y-54808571D01*
X110235714Y-54522857D01*
X110092857Y-54380000D01*
X109807142Y-54237142D01*
X109092857Y-54237142D01*
X108664285Y-54380000D01*
X107378571Y-57237142D02*
X107378571Y-54237142D01*
X105664285Y-57237142D01*
X105664285Y-54237142D01*
D11*
X133045714Y-79418571D02*
X133045714Y-77918571D01*
X132402857Y-79418571D02*
X132402857Y-78632857D01*
X132474285Y-78490000D01*
X132617142Y-78418571D01*
X132831428Y-78418571D01*
X132974285Y-78490000D01*
X133045714Y-78561428D01*
X131902857Y-78418571D02*
X131331428Y-78418571D01*
X131688571Y-77918571D02*
X131688571Y-79204285D01*
X131617142Y-79347142D01*
X131474285Y-79418571D01*
X131331428Y-79418571D01*
X131045714Y-78418571D02*
X130474285Y-78418571D01*
X130831428Y-77918571D02*
X130831428Y-79204285D01*
X130760000Y-79347142D01*
X130617142Y-79418571D01*
X130474285Y-79418571D01*
X129974285Y-78418571D02*
X129974285Y-79918571D01*
X129974285Y-78490000D02*
X129831428Y-78418571D01*
X129545714Y-78418571D01*
X129402857Y-78490000D01*
X129331428Y-78561428D01*
X129260000Y-78704285D01*
X129260000Y-79132857D01*
X129331428Y-79275714D01*
X129402857Y-79347142D01*
X129545714Y-79418571D01*
X129831428Y-79418571D01*
X129974285Y-79347142D01*
X128688571Y-79347142D02*
X128545714Y-79418571D01*
X128260000Y-79418571D01*
X128117142Y-79347142D01*
X128045714Y-79204285D01*
X128045714Y-79132857D01*
X128117142Y-78990000D01*
X128260000Y-78918571D01*
X128474285Y-78918571D01*
X128617142Y-78847142D01*
X128688571Y-78704285D01*
X128688571Y-78632857D01*
X128617142Y-78490000D01*
X128474285Y-78418571D01*
X128260000Y-78418571D01*
X128117142Y-78490000D01*
X127402857Y-79275714D02*
X127331428Y-79347142D01*
X127402857Y-79418571D01*
X127474285Y-79347142D01*
X127402857Y-79275714D01*
X127402857Y-79418571D01*
X127402857Y-78490000D02*
X127331428Y-78561428D01*
X127402857Y-78632857D01*
X127474285Y-78561428D01*
X127402857Y-78490000D01*
X127402857Y-78632857D01*
X125617142Y-77847142D02*
X126902857Y-79775714D01*
X124045714Y-77847142D02*
X125331428Y-79775714D01*
X122902857Y-78418571D02*
X122902857Y-79632857D01*
X122974285Y-79775714D01*
X123045714Y-79847142D01*
X123188571Y-79918571D01*
X123402857Y-79918571D01*
X123545714Y-79847142D01*
X122902857Y-79347142D02*
X123045714Y-79418571D01*
X123331428Y-79418571D01*
X123474285Y-79347142D01*
X123545714Y-79275714D01*
X123617142Y-79132857D01*
X123617142Y-78704285D01*
X123545714Y-78561428D01*
X123474285Y-78490000D01*
X123331428Y-78418571D01*
X123045714Y-78418571D01*
X122902857Y-78490000D01*
X122188571Y-79418571D02*
X122188571Y-78418571D01*
X122188571Y-77918571D02*
X122259999Y-77990000D01*
X122188571Y-78061428D01*
X122117142Y-77990000D01*
X122188571Y-77918571D01*
X122188571Y-78061428D01*
X121688571Y-78418571D02*
X121117142Y-78418571D01*
X121474285Y-77918571D02*
X121474285Y-79204285D01*
X121402857Y-79347142D01*
X121260000Y-79418571D01*
X121117142Y-79418571D01*
X120617142Y-79418571D02*
X120617142Y-77918571D01*
X119974285Y-79418571D02*
X119974285Y-78632857D01*
X120045714Y-78490000D01*
X120188571Y-78418571D01*
X120402857Y-78418571D01*
X120545714Y-78490000D01*
X120617142Y-78561428D01*
X118617142Y-78418571D02*
X118617142Y-79418571D01*
X119259999Y-78418571D02*
X119259999Y-79204285D01*
X119188571Y-79347142D01*
X119045714Y-79418571D01*
X118831428Y-79418571D01*
X118688571Y-79347142D01*
X118617142Y-79275714D01*
X117902857Y-79418571D02*
X117902857Y-77918571D01*
X117902857Y-78490000D02*
X117759999Y-78418571D01*
X117474285Y-78418571D01*
X117331428Y-78490000D01*
X117259999Y-78561428D01*
X117188571Y-78704285D01*
X117188571Y-79132857D01*
X117259999Y-79275714D01*
X117331428Y-79347142D01*
X117474285Y-79418571D01*
X117759999Y-79418571D01*
X117902857Y-79347142D01*
X116545714Y-79275714D02*
X116474285Y-79347142D01*
X116545714Y-79418571D01*
X116617142Y-79347142D01*
X116545714Y-79275714D01*
X116545714Y-79418571D01*
X115188571Y-79347142D02*
X115331428Y-79418571D01*
X115617142Y-79418571D01*
X115759999Y-79347142D01*
X115831428Y-79275714D01*
X115902857Y-79132857D01*
X115902857Y-78704285D01*
X115831428Y-78561428D01*
X115759999Y-78490000D01*
X115617142Y-78418571D01*
X115331428Y-78418571D01*
X115188571Y-78490000D01*
X114331428Y-79418571D02*
X114474285Y-79347142D01*
X114545714Y-79275714D01*
X114617142Y-79132857D01*
X114617142Y-78704285D01*
X114545714Y-78561428D01*
X114474285Y-78490000D01*
X114331428Y-78418571D01*
X114117142Y-78418571D01*
X113974285Y-78490000D01*
X113902857Y-78561428D01*
X113831428Y-78704285D01*
X113831428Y-79132857D01*
X113902857Y-79275714D01*
X113974285Y-79347142D01*
X114117142Y-79418571D01*
X114331428Y-79418571D01*
X113188571Y-79418571D02*
X113188571Y-78418571D01*
X113188571Y-78561428D02*
X113117142Y-78490000D01*
X112974285Y-78418571D01*
X112759999Y-78418571D01*
X112617142Y-78490000D01*
X112545714Y-78632857D01*
X112545714Y-79418571D01*
X112545714Y-78632857D02*
X112474285Y-78490000D01*
X112331428Y-78418571D01*
X112117142Y-78418571D01*
X111974285Y-78490000D01*
X111902857Y-78632857D01*
X111902857Y-79418571D01*
X110117142Y-77847142D02*
X111402857Y-79775714D01*
X109617142Y-79418571D02*
X109617142Y-78418571D01*
X109617142Y-78561428D02*
X109545714Y-78490000D01*
X109402857Y-78418571D01*
X109188571Y-78418571D01*
X109045714Y-78490000D01*
X108974285Y-78632857D01*
X108974285Y-79418571D01*
X108974285Y-78632857D02*
X108902857Y-78490000D01*
X108759999Y-78418571D01*
X108545714Y-78418571D01*
X108402857Y-78490000D01*
X108331428Y-78632857D01*
X108331428Y-79418571D01*
X107617142Y-78418571D02*
X107617142Y-79918571D01*
X107617142Y-78490000D02*
X107474285Y-78418571D01*
X107188571Y-78418571D01*
X107045714Y-78490000D01*
X106974285Y-78561428D01*
X106902857Y-78704285D01*
X106902857Y-79132857D01*
X106974285Y-79275714D01*
X107045714Y-79347142D01*
X107188571Y-79418571D01*
X107474285Y-79418571D01*
X107617142Y-79347142D01*
X106259999Y-79418571D02*
X106259999Y-78418571D01*
X106259999Y-78704285D02*
X106188571Y-78561428D01*
X106117142Y-78490000D01*
X105974285Y-78418571D01*
X105831428Y-78418571D01*
X105117142Y-79418571D02*
X105259999Y-79347142D01*
X105331428Y-79275714D01*
X105402857Y-79132857D01*
X105402857Y-78704285D01*
X105331428Y-78561428D01*
X105259999Y-78490000D01*
X105117142Y-78418571D01*
X104902857Y-78418571D01*
X104759999Y-78490000D01*
X104688571Y-78561428D01*
X104617142Y-78704285D01*
X104617142Y-79132857D01*
X104688571Y-79275714D01*
X104759999Y-79347142D01*
X104902857Y-79418571D01*
X105117142Y-79418571D01*
X104045714Y-79347142D02*
X103902857Y-79418571D01*
X103617142Y-79418571D01*
X103474285Y-79347142D01*
X103402857Y-79204285D01*
X103402857Y-79132857D01*
X103474285Y-78990000D01*
X103617142Y-78918571D01*
X103831428Y-78918571D01*
X103974285Y-78847142D01*
X104045714Y-78704285D01*
X104045714Y-78632857D01*
X103974285Y-78490000D01*
X103831428Y-78418571D01*
X103617142Y-78418571D01*
X103474285Y-78490000D01*
X102759999Y-79418571D02*
X102759999Y-77918571D01*
X102617142Y-78847142D02*
X102188571Y-79418571D01*
X102188571Y-78418571D02*
X102759999Y-78990000D01*
X100474285Y-77847142D02*
X101759999Y-79775714D01*
X99974285Y-79418571D02*
X99974285Y-77918571D01*
X99974285Y-78490000D02*
X99831428Y-78418571D01*
X99545714Y-78418571D01*
X99402857Y-78490000D01*
X99331428Y-78561428D01*
X99259999Y-78704285D01*
X99259999Y-79132857D01*
X99331428Y-79275714D01*
X99402857Y-79347142D01*
X99545714Y-79418571D01*
X99831428Y-79418571D01*
X99974285Y-79347142D01*
X97974285Y-78418571D02*
X97974285Y-79418571D01*
X98617142Y-78418571D02*
X98617142Y-79204285D01*
X98545714Y-79347142D01*
X98402857Y-79418571D01*
X98188571Y-79418571D01*
X98045714Y-79347142D01*
X97974285Y-79275714D01*
X97402857Y-78418571D02*
X96617142Y-78418571D01*
X97402857Y-79418571D01*
X96617142Y-79418571D01*
X96188571Y-78418571D02*
X95402857Y-78418571D01*
X96188571Y-79418571D01*
X95402857Y-79418571D01*
X94974285Y-78418571D02*
X94617142Y-79418571D01*
X94259999Y-78418571D02*
X94617142Y-79418571D01*
X94759999Y-79775714D01*
X94831428Y-79847142D01*
X94974285Y-79918571D01*
X93688571Y-79418571D02*
X93688571Y-77918571D01*
X93688571Y-78490000D02*
X93545714Y-78418571D01*
X93259999Y-78418571D01*
X93117142Y-78490000D01*
X93045714Y-78561428D01*
X92974285Y-78704285D01*
X92974285Y-79132857D01*
X93045714Y-79275714D01*
X93117142Y-79347142D01*
X93259999Y-79418571D01*
X93545714Y-79418571D01*
X93688571Y-79347142D01*
X92117142Y-79418571D02*
X92259999Y-79347142D01*
X92331428Y-79275714D01*
X92402857Y-79132857D01*
X92402857Y-78704285D01*
X92331428Y-78561428D01*
X92259999Y-78490000D01*
X92117142Y-78418571D01*
X91902857Y-78418571D01*
X91759999Y-78490000D01*
X91688571Y-78561428D01*
X91617142Y-78704285D01*
X91617142Y-79132857D01*
X91688571Y-79275714D01*
X91759999Y-79347142D01*
X91902857Y-79418571D01*
X92117142Y-79418571D01*
X91117142Y-79418571D02*
X90331428Y-78418571D01*
X91117142Y-78418571D02*
X90331428Y-79418571D01*
X132081428Y-70528571D02*
X132081428Y-69028571D01*
X131581428Y-70100000D01*
X131081428Y-69028571D01*
X131081428Y-70528571D01*
X129724285Y-70528571D02*
X129724285Y-69742857D01*
X129795714Y-69600000D01*
X129938571Y-69528571D01*
X130224285Y-69528571D01*
X130367142Y-69600000D01*
X129724285Y-70457142D02*
X129867142Y-70528571D01*
X130224285Y-70528571D01*
X130367142Y-70457142D01*
X130438571Y-70314285D01*
X130438571Y-70171428D01*
X130367142Y-70028571D01*
X130224285Y-69957142D01*
X129867142Y-69957142D01*
X129724285Y-69885714D01*
X129152857Y-70528571D02*
X128367142Y-69528571D01*
X129152857Y-69528571D02*
X128367142Y-70528571D01*
X126652857Y-70528571D02*
X126652857Y-69028571D01*
X126081428Y-69028571D01*
X125938571Y-69100000D01*
X125867142Y-69171428D01*
X125795714Y-69314285D01*
X125795714Y-69528571D01*
X125867142Y-69671428D01*
X125938571Y-69742857D01*
X126081428Y-69814285D01*
X126652857Y-69814285D01*
X125152857Y-70528571D02*
X125152857Y-69528571D01*
X125152857Y-69814285D02*
X125081428Y-69671428D01*
X125010000Y-69600000D01*
X124867142Y-69528571D01*
X124724285Y-69528571D01*
X124010000Y-70528571D02*
X124152857Y-70457142D01*
X124224285Y-70385714D01*
X124295714Y-70242857D01*
X124295714Y-69814285D01*
X124224285Y-69671428D01*
X124152857Y-69600000D01*
X124010000Y-69528571D01*
X123795714Y-69528571D01*
X123652857Y-69600000D01*
X123581428Y-69671428D01*
X123510000Y-69814285D01*
X123510000Y-70242857D01*
X123581428Y-70385714D01*
X123652857Y-70457142D01*
X123795714Y-70528571D01*
X124010000Y-70528571D01*
X122938571Y-70457142D02*
X122795714Y-70528571D01*
X122510000Y-70528571D01*
X122367142Y-70457142D01*
X122295714Y-70314285D01*
X122295714Y-70242857D01*
X122367142Y-70100000D01*
X122510000Y-70028571D01*
X122724285Y-70028571D01*
X122867142Y-69957142D01*
X122938571Y-69814285D01*
X122938571Y-69742857D01*
X122867142Y-69600000D01*
X122724285Y-69528571D01*
X122510000Y-69528571D01*
X122367142Y-69600000D01*
X121652857Y-70528571D02*
X121652857Y-69028571D01*
X121510000Y-69957142D02*
X121081428Y-70528571D01*
X121081428Y-69528571D02*
X121652857Y-70100000D01*
X119795714Y-70528571D02*
X119795714Y-69742857D01*
X119867142Y-69600000D01*
X120010000Y-69528571D01*
X120295714Y-69528571D01*
X120438571Y-69600000D01*
X119795714Y-70457142D02*
X119938571Y-70528571D01*
X120295714Y-70528571D01*
X120438571Y-70457142D01*
X120510000Y-70314285D01*
X120510000Y-70171428D01*
X120438571Y-70028571D01*
X120295714Y-69957142D01*
X119938571Y-69957142D01*
X119795714Y-69885714D01*
X118438571Y-69528571D02*
X118438571Y-70528571D01*
X119081428Y-69528571D02*
X119081428Y-70314285D01*
X119010000Y-70457142D01*
X118867142Y-70528571D01*
X118652857Y-70528571D01*
X118510000Y-70457142D01*
X118438571Y-70385714D01*
X117152857Y-70457142D02*
X117295714Y-70528571D01*
X117581428Y-70528571D01*
X117724285Y-70457142D01*
X117795714Y-70314285D01*
X117795714Y-69742857D01*
X117724285Y-69600000D01*
X117581428Y-69528571D01*
X117295714Y-69528571D01*
X117152857Y-69600000D01*
X117081428Y-69742857D01*
X117081428Y-69885714D01*
X117795714Y-70028571D01*
X116438571Y-70528571D02*
X116438571Y-69528571D01*
X116438571Y-69814285D02*
X116367142Y-69671428D01*
X116295714Y-69600000D01*
X116152857Y-69528571D01*
X116010000Y-69528571D01*
X111081428Y-69528571D02*
X110724285Y-70528571D01*
X110367142Y-69528571D01*
X109510000Y-69028571D02*
X109367142Y-69028571D01*
X109224285Y-69100000D01*
X109152857Y-69171428D01*
X109081428Y-69314285D01*
X109010000Y-69600000D01*
X109010000Y-69957142D01*
X109081428Y-70242857D01*
X109152857Y-70385714D01*
X109224285Y-70457142D01*
X109367142Y-70528571D01*
X109510000Y-70528571D01*
X109652857Y-70457142D01*
X109724285Y-70385714D01*
X109795714Y-70242857D01*
X109867142Y-69957142D01*
X109867142Y-69600000D01*
X109795714Y-69314285D01*
X109724285Y-69171428D01*
X109652857Y-69100000D01*
X109510000Y-69028571D01*
X108367142Y-70385714D02*
X108295714Y-70457142D01*
X108367142Y-70528571D01*
X108438571Y-70457142D01*
X108367142Y-70385714D01*
X108367142Y-70528571D01*
X106867142Y-70528571D02*
X107724285Y-70528571D01*
X107295714Y-70528571D02*
X107295714Y-69028571D01*
X107438571Y-69242857D01*
X107581428Y-69385714D01*
X107724285Y-69457142D01*
X101652857Y-70528571D02*
X101652857Y-69028571D01*
X101295714Y-69028571D01*
X101081428Y-69100000D01*
X100938571Y-69242857D01*
X100867142Y-69385714D01*
X100795714Y-69671428D01*
X100795714Y-69885714D01*
X100867142Y-70171428D01*
X100938571Y-70314285D01*
X101081428Y-70457142D01*
X101295714Y-70528571D01*
X101652857Y-70528571D01*
X99581428Y-70457142D02*
X99724285Y-70528571D01*
X100010000Y-70528571D01*
X100152857Y-70457142D01*
X100224285Y-70314285D01*
X100224285Y-69742857D01*
X100152857Y-69600000D01*
X100010000Y-69528571D01*
X99724285Y-69528571D01*
X99581428Y-69600000D01*
X99510000Y-69742857D01*
X99510000Y-69885714D01*
X100224285Y-70028571D01*
X98224285Y-70457142D02*
X98367142Y-70528571D01*
X98652857Y-70528571D01*
X98795714Y-70457142D01*
X98867142Y-70385714D01*
X98938571Y-70242857D01*
X98938571Y-69814285D01*
X98867142Y-69671428D01*
X98795714Y-69600000D01*
X98652857Y-69528571D01*
X98367142Y-69528571D01*
X98224285Y-69600000D01*
X96510000Y-69171428D02*
X96438571Y-69100000D01*
X96295714Y-69028571D01*
X95938571Y-69028571D01*
X95795714Y-69100000D01*
X95724285Y-69171428D01*
X95652857Y-69314285D01*
X95652857Y-69457142D01*
X95724285Y-69671428D01*
X96581428Y-70528571D01*
X95652857Y-70528571D01*
X94724285Y-69028571D02*
X94581428Y-69028571D01*
X94438571Y-69100000D01*
X94367142Y-69171428D01*
X94295714Y-69314285D01*
X94224285Y-69600000D01*
X94224285Y-69957142D01*
X94295714Y-70242857D01*
X94367142Y-70385714D01*
X94438571Y-70457142D01*
X94581428Y-70528571D01*
X94724285Y-70528571D01*
X94867142Y-70457142D01*
X94938571Y-70385714D01*
X95010000Y-70242857D01*
X95081428Y-69957142D01*
X95081428Y-69600000D01*
X95010000Y-69314285D01*
X94938571Y-69171428D01*
X94867142Y-69100000D01*
X94724285Y-69028571D01*
X93652857Y-69171428D02*
X93581428Y-69100000D01*
X93438571Y-69028571D01*
X93081428Y-69028571D01*
X92938571Y-69100000D01*
X92867142Y-69171428D01*
X92795714Y-69314285D01*
X92795714Y-69457142D01*
X92867142Y-69671428D01*
X93724285Y-70528571D01*
X92795714Y-70528571D01*
X91867142Y-69028571D02*
X91724285Y-69028571D01*
X91581428Y-69100000D01*
X91510000Y-69171428D01*
X91438571Y-69314285D01*
X91367142Y-69600000D01*
X91367142Y-69957142D01*
X91438571Y-70242857D01*
X91510000Y-70385714D01*
X91581428Y-70457142D01*
X91724285Y-70528571D01*
X91867142Y-70528571D01*
X92010000Y-70457142D01*
X92081428Y-70385714D01*
X92152857Y-70242857D01*
X92224285Y-69957142D01*
X92224285Y-69600000D01*
X92152857Y-69314285D01*
X92081428Y-69171428D01*
X92010000Y-69100000D01*
X91867142Y-69028571D01*
D12*
X150622000Y-59055000D02*
G75*
G03X150622000Y-59055000I-127000J0D01*
G01*
D11*
X150495000Y-52070000D02*
X150495000Y-53340000D01*
X150495000Y-64135000D02*
X150495000Y-65405000D01*
X149860000Y-64770000D02*
X151130000Y-64770000D01*
X151765000Y-64770000D02*
G75*
G03X151765000Y-64770000I-1270000J0D01*
G01*
X151765000Y-52705000D02*
G75*
G03X151765000Y-52705000I-1270000J0D01*
G01*
X150495000Y-56515000D02*
X150495000Y-53975000D01*
X150495000Y-60325000D02*
X150495000Y-63500000D01*
X151765660Y-60959559D02*
G75*
G03X149225001Y-60959999I-1270660J1904559D01*
G01*
X151765000Y-59055000D02*
G75*
G03X151765000Y-59055000I-1270000J0D01*
G01*
D13*
X150508690Y-107402380D02*
X150508690Y-108116666D01*
X150556309Y-108259523D01*
X150651547Y-108354761D01*
X150794404Y-108402380D01*
X150889642Y-108402380D01*
X149556309Y-108402380D02*
X150032500Y-108402380D01*
X150032500Y-107402380D01*
X148651547Y-108307142D02*
X148699166Y-108354761D01*
X148842023Y-108402380D01*
X148937261Y-108402380D01*
X149080119Y-108354761D01*
X149175357Y-108259523D01*
X149222976Y-108164285D01*
X149270595Y-107973809D01*
X149270595Y-107830952D01*
X149222976Y-107640476D01*
X149175357Y-107545238D01*
X149080119Y-107450000D01*
X148937261Y-107402380D01*
X148842023Y-107402380D01*
X148699166Y-107450000D01*
X148651547Y-107497619D01*
X147937261Y-107402380D02*
X147937261Y-108116666D01*
X147984880Y-108259523D01*
X148080119Y-108354761D01*
X148222976Y-108402380D01*
X148318214Y-108402380D01*
X146984880Y-108402380D02*
X147461071Y-108402380D01*
X147461071Y-107402380D01*
X146080119Y-108307142D02*
X146127738Y-108354761D01*
X146270595Y-108402380D01*
X146365833Y-108402380D01*
X146508690Y-108354761D01*
X146603928Y-108259523D01*
X146651547Y-108164285D01*
X146699166Y-107973809D01*
X146699166Y-107830952D01*
X146651547Y-107640476D01*
X146603928Y-107545238D01*
X146508690Y-107450000D01*
X146365833Y-107402380D01*
X146270595Y-107402380D01*
X146127738Y-107450000D01*
X146080119Y-107497619D01*
X145365833Y-107402380D02*
X145365833Y-108116666D01*
X145413452Y-108259523D01*
X145508690Y-108354761D01*
X145651547Y-108402380D01*
X145746785Y-108402380D01*
X144413452Y-108402380D02*
X144889642Y-108402380D01*
X144889642Y-107402380D01*
X143508690Y-108307142D02*
X143556309Y-108354761D01*
X143699166Y-108402380D01*
X143794404Y-108402380D01*
X143937261Y-108354761D01*
X144032500Y-108259523D01*
X144080119Y-108164285D01*
X144127738Y-107973809D01*
X144127738Y-107830952D01*
X144080119Y-107640476D01*
X144032500Y-107545238D01*
X143937261Y-107450000D01*
X143794404Y-107402380D01*
X143699166Y-107402380D01*
X143556309Y-107450000D01*
X143508690Y-107497619D01*
X142794404Y-107402380D02*
X142794404Y-108116666D01*
X142842023Y-108259523D01*
X142937261Y-108354761D01*
X143080119Y-108402380D01*
X143175357Y-108402380D01*
X141842023Y-108402380D02*
X142318214Y-108402380D01*
X142318214Y-107402380D01*
X140937261Y-108307142D02*
X140984880Y-108354761D01*
X141127738Y-108402380D01*
X141222976Y-108402380D01*
X141365833Y-108354761D01*
X141461071Y-108259523D01*
X141508690Y-108164285D01*
X141556309Y-107973809D01*
X141556309Y-107830952D01*
X141508690Y-107640476D01*
X141461071Y-107545238D01*
X141365833Y-107450000D01*
X141222976Y-107402380D01*
X141127738Y-107402380D01*
X140984880Y-107450000D01*
X140937261Y-107497619D01*
D11*
X129637142Y-51352142D02*
X129637142Y-52495000D01*
X130208571Y-51923571D02*
X129065714Y-51923571D01*
X128708571Y-52995000D02*
X130208571Y-53495000D01*
X128708571Y-53995000D01*
X130208571Y-54495000D02*
X128708571Y-54495000D01*
X128708571Y-54852142D01*
X128780000Y-55066428D01*
X128922857Y-55209285D01*
X129065714Y-55280714D01*
X129351428Y-55352142D01*
X129565714Y-55352142D01*
X129851428Y-55280714D01*
X129994285Y-55209285D01*
X130137142Y-55066428D01*
X130208571Y-54852142D01*
X130208571Y-54495000D01*
X130065714Y-56852142D02*
X130137142Y-56780714D01*
X130208571Y-56566428D01*
X130208571Y-56423571D01*
X130137142Y-56209285D01*
X129994285Y-56066428D01*
X129851428Y-55995000D01*
X129565714Y-55923571D01*
X129351428Y-55923571D01*
X129065714Y-55995000D01*
X128922857Y-56066428D01*
X128780000Y-56209285D01*
X128708571Y-56423571D01*
X128708571Y-56566428D01*
X128780000Y-56780714D01*
X128851428Y-56852142D01*
X131330000Y-52137857D02*
X131258571Y-51995000D01*
X131258571Y-51780714D01*
X131330000Y-51566428D01*
X131472857Y-51423571D01*
X131615714Y-51352142D01*
X131901428Y-51280714D01*
X132115714Y-51280714D01*
X132401428Y-51352142D01*
X132544285Y-51423571D01*
X132687142Y-51566428D01*
X132758571Y-51780714D01*
X132758571Y-51923571D01*
X132687142Y-52137857D01*
X132615714Y-52209285D01*
X132115714Y-52209285D01*
X132115714Y-51923571D01*
X132758571Y-52852142D02*
X131258571Y-52852142D01*
X132758571Y-53709285D01*
X131258571Y-53709285D01*
X132758571Y-54423571D02*
X131258571Y-54423571D01*
X131258571Y-54780714D01*
X131330000Y-54995000D01*
X131472857Y-55137857D01*
X131615714Y-55209285D01*
X131901428Y-55280714D01*
X132115714Y-55280714D01*
X132401428Y-55209285D01*
X132544285Y-55137857D01*
X132687142Y-54995000D01*
X132758571Y-54780714D01*
X132758571Y-54423571D01*
X134880000Y-51280714D02*
X134880000Y-51995000D01*
X135308571Y-51137857D02*
X133808571Y-51637857D01*
X135308571Y-52137857D01*
X133808571Y-52637857D02*
X135022857Y-52637857D01*
X135165714Y-52709285D01*
X135237142Y-52780714D01*
X135308571Y-52923571D01*
X135308571Y-53209285D01*
X135237142Y-53352142D01*
X135165714Y-53423571D01*
X135022857Y-53495000D01*
X133808571Y-53495000D01*
X135308571Y-54209285D02*
X133808571Y-54209285D01*
X133808571Y-54566428D01*
X133880000Y-54780714D01*
X134022857Y-54923571D01*
X134165714Y-54995000D01*
X134451428Y-55066428D01*
X134665714Y-55066428D01*
X134951428Y-54995000D01*
X135094285Y-54923571D01*
X135237142Y-54780714D01*
X135308571Y-54566428D01*
X135308571Y-54209285D01*
X73757142Y-51352142D02*
X73757142Y-52495000D01*
X74328571Y-51923571D02*
X73185714Y-51923571D01*
X72828571Y-52995000D02*
X74328571Y-53495000D01*
X72828571Y-53995000D01*
X74328571Y-54495000D02*
X72828571Y-54495000D01*
X72828571Y-54852142D01*
X72900000Y-55066428D01*
X73042857Y-55209285D01*
X73185714Y-55280714D01*
X73471428Y-55352142D01*
X73685714Y-55352142D01*
X73971428Y-55280714D01*
X74114285Y-55209285D01*
X74257142Y-55066428D01*
X74328571Y-54852142D01*
X74328571Y-54495000D01*
X74185714Y-56852142D02*
X74257142Y-56780714D01*
X74328571Y-56566428D01*
X74328571Y-56423571D01*
X74257142Y-56209285D01*
X74114285Y-56066428D01*
X73971428Y-55995000D01*
X73685714Y-55923571D01*
X73471428Y-55923571D01*
X73185714Y-55995000D01*
X73042857Y-56066428D01*
X72900000Y-56209285D01*
X72828571Y-56423571D01*
X72828571Y-56566428D01*
X72900000Y-56780714D01*
X72971428Y-56852142D01*
X75450000Y-52137857D02*
X75378571Y-51995000D01*
X75378571Y-51780714D01*
X75450000Y-51566428D01*
X75592857Y-51423571D01*
X75735714Y-51352142D01*
X76021428Y-51280714D01*
X76235714Y-51280714D01*
X76521428Y-51352142D01*
X76664285Y-51423571D01*
X76807142Y-51566428D01*
X76878571Y-51780714D01*
X76878571Y-51923571D01*
X76807142Y-52137857D01*
X76735714Y-52209285D01*
X76235714Y-52209285D01*
X76235714Y-51923571D01*
X76878571Y-52852142D02*
X75378571Y-52852142D01*
X76878571Y-53709285D01*
X75378571Y-53709285D01*
X76878571Y-54423571D02*
X75378571Y-54423571D01*
X75378571Y-54780714D01*
X75450000Y-54995000D01*
X75592857Y-55137857D01*
X75735714Y-55209285D01*
X76021428Y-55280714D01*
X76235714Y-55280714D01*
X76521428Y-55209285D01*
X76664285Y-55137857D01*
X76807142Y-54995000D01*
X76878571Y-54780714D01*
X76878571Y-54423571D01*
X79000000Y-51280714D02*
X79000000Y-51995000D01*
X79428571Y-51137857D02*
X77928571Y-51637857D01*
X79428571Y-52137857D01*
X77928571Y-52637857D02*
X79142857Y-52637857D01*
X79285714Y-52709285D01*
X79357142Y-52780714D01*
X79428571Y-52923571D01*
X79428571Y-53209285D01*
X79357142Y-53352142D01*
X79285714Y-53423571D01*
X79142857Y-53495000D01*
X77928571Y-53495000D01*
X79428571Y-54209285D02*
X77928571Y-54209285D01*
X77928571Y-54566428D01*
X78000000Y-54780714D01*
X78142857Y-54923571D01*
X78285714Y-54995000D01*
X78571428Y-55066428D01*
X78785714Y-55066428D01*
X79071428Y-54995000D01*
X79214285Y-54923571D01*
X79357142Y-54780714D01*
X79428571Y-54566428D01*
X79428571Y-54209285D01*
M02*
