G04 #@! TF.GenerationSoftware,KiCad,Pcbnew,(5.1.4)-1*
G04 #@! TF.CreationDate,2020-12-21T11:31:01-05:00*
G04 #@! TF.ProjectId,buzzybox,62757a7a-7962-46f7-982e-6b696361645f,rev?*
G04 #@! TF.SameCoordinates,Original*
G04 #@! TF.FileFunction,Soldermask,Top*
G04 #@! TF.FilePolarity,Negative*
%FSLAX46Y46*%
G04 Gerber Fmt 4.6, Leading zero omitted, Abs format (unit mm)*
G04 Created by KiCad (PCBNEW (5.1.4)-1) date 2020-12-21 11:31:01*
%MOMM*%
%LPD*%
G04 APERTURE LIST*
%ADD10C,0.100000*%
G04 APERTURE END LIST*
D10*
G36*
X156821488Y-103478985D02*
G01*
X157198282Y-103553934D01*
X157789926Y-103799001D01*
X158050595Y-103973175D01*
X158322391Y-104154783D01*
X158775217Y-104607609D01*
X158825244Y-104682480D01*
X159130999Y-105140074D01*
X159376066Y-105731718D01*
X159501000Y-106359804D01*
X159501000Y-107000196D01*
X159376066Y-107628282D01*
X159130999Y-108219926D01*
X158775216Y-108752392D01*
X158322392Y-109205216D01*
X157789926Y-109560999D01*
X157198282Y-109806066D01*
X156884239Y-109868533D01*
X156570197Y-109931000D01*
X155929803Y-109931000D01*
X155615761Y-109868533D01*
X155301718Y-109806066D01*
X154710074Y-109560999D01*
X154177608Y-109205216D01*
X153724784Y-108752392D01*
X153369001Y-108219926D01*
X153123934Y-107628282D01*
X152999000Y-107000196D01*
X152999000Y-106359804D01*
X153123934Y-105731718D01*
X153369001Y-105140074D01*
X153674756Y-104682480D01*
X153724783Y-104607609D01*
X154177609Y-104154783D01*
X154449405Y-103973175D01*
X154710074Y-103799001D01*
X155301718Y-103553934D01*
X155678512Y-103478985D01*
X155929803Y-103429000D01*
X156570197Y-103429000D01*
X156821488Y-103478985D01*
X156821488Y-103478985D01*
G37*
G36*
X67881488Y-103478985D02*
G01*
X68258282Y-103553934D01*
X68849926Y-103799001D01*
X69110595Y-103973175D01*
X69382391Y-104154783D01*
X69835217Y-104607609D01*
X69885244Y-104682480D01*
X70190999Y-105140074D01*
X70436066Y-105731718D01*
X70561000Y-106359804D01*
X70561000Y-107000196D01*
X70436066Y-107628282D01*
X70190999Y-108219926D01*
X69835216Y-108752392D01*
X69382392Y-109205216D01*
X68849926Y-109560999D01*
X68258282Y-109806066D01*
X67944239Y-109868533D01*
X67630197Y-109931000D01*
X66989803Y-109931000D01*
X66675761Y-109868533D01*
X66361718Y-109806066D01*
X65770074Y-109560999D01*
X65237608Y-109205216D01*
X64784784Y-108752392D01*
X64429001Y-108219926D01*
X64183934Y-107628282D01*
X64059000Y-107000196D01*
X64059000Y-106359804D01*
X64183934Y-105731718D01*
X64429001Y-105140074D01*
X64734756Y-104682480D01*
X64784783Y-104607609D01*
X65237609Y-104154783D01*
X65509405Y-103973175D01*
X65770074Y-103799001D01*
X66361718Y-103553934D01*
X66738512Y-103478985D01*
X66989803Y-103429000D01*
X67630197Y-103429000D01*
X67881488Y-103478985D01*
X67881488Y-103478985D01*
G37*
G36*
X78977395Y-103225546D02*
G01*
X79150466Y-103297234D01*
X79156572Y-103301314D01*
X79306227Y-103401310D01*
X79438690Y-103533773D01*
X79481284Y-103597520D01*
X79542766Y-103689534D01*
X79614454Y-103862605D01*
X79651000Y-104046333D01*
X79651000Y-104233667D01*
X79614454Y-104417395D01*
X79542766Y-104590466D01*
X79542765Y-104590467D01*
X79438690Y-104746227D01*
X79306227Y-104878690D01*
X79283092Y-104894148D01*
X79150466Y-104982766D01*
X78977395Y-105054454D01*
X78793667Y-105091000D01*
X78606333Y-105091000D01*
X78422605Y-105054454D01*
X78249534Y-104982766D01*
X78116908Y-104894148D01*
X78093773Y-104878690D01*
X77961310Y-104746227D01*
X77857235Y-104590467D01*
X77857234Y-104590466D01*
X77785546Y-104417395D01*
X77749000Y-104233667D01*
X77749000Y-104046333D01*
X77785546Y-103862605D01*
X77857234Y-103689534D01*
X77918716Y-103597520D01*
X77961310Y-103533773D01*
X78093773Y-103401310D01*
X78243428Y-103301314D01*
X78249534Y-103297234D01*
X78422605Y-103225546D01*
X78606333Y-103189000D01*
X78793667Y-103189000D01*
X78977395Y-103225546D01*
X78977395Y-103225546D01*
G37*
G36*
X92431000Y-105091000D02*
G01*
X90529000Y-105091000D01*
X90529000Y-103189000D01*
X92431000Y-103189000D01*
X92431000Y-105091000D01*
X92431000Y-105091000D01*
G37*
G36*
X129817395Y-103225546D02*
G01*
X129990466Y-103297234D01*
X129996572Y-103301314D01*
X130146227Y-103401310D01*
X130278690Y-103533773D01*
X130321284Y-103597520D01*
X130382766Y-103689534D01*
X130454454Y-103862605D01*
X130491000Y-104046333D01*
X130491000Y-104233667D01*
X130454454Y-104417395D01*
X130382766Y-104590466D01*
X130382765Y-104590467D01*
X130278690Y-104746227D01*
X130146227Y-104878690D01*
X130123092Y-104894148D01*
X129990466Y-104982766D01*
X129817395Y-105054454D01*
X129633667Y-105091000D01*
X129446333Y-105091000D01*
X129262605Y-105054454D01*
X129089534Y-104982766D01*
X128956908Y-104894148D01*
X128933773Y-104878690D01*
X128801310Y-104746227D01*
X128697235Y-104590467D01*
X128697234Y-104590466D01*
X128625546Y-104417395D01*
X128589000Y-104233667D01*
X128589000Y-104046333D01*
X128625546Y-103862605D01*
X128697234Y-103689534D01*
X128758716Y-103597520D01*
X128801310Y-103533773D01*
X128933773Y-103401310D01*
X129083428Y-103301314D01*
X129089534Y-103297234D01*
X129262605Y-103225546D01*
X129446333Y-103189000D01*
X129633667Y-103189000D01*
X129817395Y-103225546D01*
X129817395Y-103225546D01*
G37*
G36*
X127991000Y-105091000D02*
G01*
X126089000Y-105091000D01*
X126089000Y-103189000D01*
X127991000Y-103189000D01*
X127991000Y-105091000D01*
X127991000Y-105091000D01*
G37*
G36*
X114537395Y-103225546D02*
G01*
X114710466Y-103297234D01*
X114716572Y-103301314D01*
X114866227Y-103401310D01*
X114998690Y-103533773D01*
X115041284Y-103597520D01*
X115102766Y-103689534D01*
X115174454Y-103862605D01*
X115211000Y-104046333D01*
X115211000Y-104233667D01*
X115174454Y-104417395D01*
X115102766Y-104590466D01*
X115102765Y-104590467D01*
X114998690Y-104746227D01*
X114866227Y-104878690D01*
X114843092Y-104894148D01*
X114710466Y-104982766D01*
X114537395Y-105054454D01*
X114353667Y-105091000D01*
X114166333Y-105091000D01*
X113982605Y-105054454D01*
X113809534Y-104982766D01*
X113676908Y-104894148D01*
X113653773Y-104878690D01*
X113521310Y-104746227D01*
X113417235Y-104590467D01*
X113417234Y-104590466D01*
X113345546Y-104417395D01*
X113309000Y-104233667D01*
X113309000Y-104046333D01*
X113345546Y-103862605D01*
X113417234Y-103689534D01*
X113478716Y-103597520D01*
X113521310Y-103533773D01*
X113653773Y-103401310D01*
X113803428Y-103301314D01*
X113809534Y-103297234D01*
X113982605Y-103225546D01*
X114166333Y-103189000D01*
X114353667Y-103189000D01*
X114537395Y-103225546D01*
X114537395Y-103225546D01*
G37*
G36*
X112037395Y-103225546D02*
G01*
X112210466Y-103297234D01*
X112216572Y-103301314D01*
X112366227Y-103401310D01*
X112498690Y-103533773D01*
X112541284Y-103597520D01*
X112602766Y-103689534D01*
X112674454Y-103862605D01*
X112711000Y-104046333D01*
X112711000Y-104233667D01*
X112674454Y-104417395D01*
X112602766Y-104590466D01*
X112602765Y-104590467D01*
X112498690Y-104746227D01*
X112366227Y-104878690D01*
X112343092Y-104894148D01*
X112210466Y-104982766D01*
X112037395Y-105054454D01*
X111853667Y-105091000D01*
X111666333Y-105091000D01*
X111482605Y-105054454D01*
X111309534Y-104982766D01*
X111176908Y-104894148D01*
X111153773Y-104878690D01*
X111021310Y-104746227D01*
X110917235Y-104590467D01*
X110917234Y-104590466D01*
X110845546Y-104417395D01*
X110809000Y-104233667D01*
X110809000Y-104046333D01*
X110845546Y-103862605D01*
X110917234Y-103689534D01*
X110978716Y-103597520D01*
X111021310Y-103533773D01*
X111153773Y-103401310D01*
X111303428Y-103301314D01*
X111309534Y-103297234D01*
X111482605Y-103225546D01*
X111666333Y-103189000D01*
X111853667Y-103189000D01*
X112037395Y-103225546D01*
X112037395Y-103225546D01*
G37*
G36*
X110211000Y-105091000D02*
G01*
X108309000Y-105091000D01*
X108309000Y-103189000D01*
X110211000Y-103189000D01*
X110211000Y-105091000D01*
X110211000Y-105091000D01*
G37*
G36*
X96757395Y-103225546D02*
G01*
X96930466Y-103297234D01*
X96936572Y-103301314D01*
X97086227Y-103401310D01*
X97218690Y-103533773D01*
X97261284Y-103597520D01*
X97322766Y-103689534D01*
X97394454Y-103862605D01*
X97431000Y-104046333D01*
X97431000Y-104233667D01*
X97394454Y-104417395D01*
X97322766Y-104590466D01*
X97322765Y-104590467D01*
X97218690Y-104746227D01*
X97086227Y-104878690D01*
X97063092Y-104894148D01*
X96930466Y-104982766D01*
X96757395Y-105054454D01*
X96573667Y-105091000D01*
X96386333Y-105091000D01*
X96202605Y-105054454D01*
X96029534Y-104982766D01*
X95896908Y-104894148D01*
X95873773Y-104878690D01*
X95741310Y-104746227D01*
X95637235Y-104590467D01*
X95637234Y-104590466D01*
X95565546Y-104417395D01*
X95529000Y-104233667D01*
X95529000Y-104046333D01*
X95565546Y-103862605D01*
X95637234Y-103689534D01*
X95698716Y-103597520D01*
X95741310Y-103533773D01*
X95873773Y-103401310D01*
X96023428Y-103301314D01*
X96029534Y-103297234D01*
X96202605Y-103225546D01*
X96386333Y-103189000D01*
X96573667Y-103189000D01*
X96757395Y-103225546D01*
X96757395Y-103225546D01*
G37*
G36*
X94257395Y-103225546D02*
G01*
X94430466Y-103297234D01*
X94436572Y-103301314D01*
X94586227Y-103401310D01*
X94718690Y-103533773D01*
X94761284Y-103597520D01*
X94822766Y-103689534D01*
X94894454Y-103862605D01*
X94931000Y-104046333D01*
X94931000Y-104233667D01*
X94894454Y-104417395D01*
X94822766Y-104590466D01*
X94822765Y-104590467D01*
X94718690Y-104746227D01*
X94586227Y-104878690D01*
X94563092Y-104894148D01*
X94430466Y-104982766D01*
X94257395Y-105054454D01*
X94073667Y-105091000D01*
X93886333Y-105091000D01*
X93702605Y-105054454D01*
X93529534Y-104982766D01*
X93396908Y-104894148D01*
X93373773Y-104878690D01*
X93241310Y-104746227D01*
X93137235Y-104590467D01*
X93137234Y-104590466D01*
X93065546Y-104417395D01*
X93029000Y-104233667D01*
X93029000Y-104046333D01*
X93065546Y-103862605D01*
X93137234Y-103689534D01*
X93198716Y-103597520D01*
X93241310Y-103533773D01*
X93373773Y-103401310D01*
X93523428Y-103301314D01*
X93529534Y-103297234D01*
X93702605Y-103225546D01*
X93886333Y-103189000D01*
X94073667Y-103189000D01*
X94257395Y-103225546D01*
X94257395Y-103225546D01*
G37*
G36*
X132317395Y-103225546D02*
G01*
X132490466Y-103297234D01*
X132496572Y-103301314D01*
X132646227Y-103401310D01*
X132778690Y-103533773D01*
X132821284Y-103597520D01*
X132882766Y-103689534D01*
X132954454Y-103862605D01*
X132991000Y-104046333D01*
X132991000Y-104233667D01*
X132954454Y-104417395D01*
X132882766Y-104590466D01*
X132882765Y-104590467D01*
X132778690Y-104746227D01*
X132646227Y-104878690D01*
X132623092Y-104894148D01*
X132490466Y-104982766D01*
X132317395Y-105054454D01*
X132133667Y-105091000D01*
X131946333Y-105091000D01*
X131762605Y-105054454D01*
X131589534Y-104982766D01*
X131456908Y-104894148D01*
X131433773Y-104878690D01*
X131301310Y-104746227D01*
X131197235Y-104590467D01*
X131197234Y-104590466D01*
X131125546Y-104417395D01*
X131089000Y-104233667D01*
X131089000Y-104046333D01*
X131125546Y-103862605D01*
X131197234Y-103689534D01*
X131258716Y-103597520D01*
X131301310Y-103533773D01*
X131433773Y-103401310D01*
X131583428Y-103301314D01*
X131589534Y-103297234D01*
X131762605Y-103225546D01*
X131946333Y-103189000D01*
X132133667Y-103189000D01*
X132317395Y-103225546D01*
X132317395Y-103225546D01*
G37*
G36*
X145771000Y-105091000D02*
G01*
X143869000Y-105091000D01*
X143869000Y-103189000D01*
X145771000Y-103189000D01*
X145771000Y-105091000D01*
X145771000Y-105091000D01*
G37*
G36*
X147597395Y-103225546D02*
G01*
X147770466Y-103297234D01*
X147776572Y-103301314D01*
X147926227Y-103401310D01*
X148058690Y-103533773D01*
X148101284Y-103597520D01*
X148162766Y-103689534D01*
X148234454Y-103862605D01*
X148271000Y-104046333D01*
X148271000Y-104233667D01*
X148234454Y-104417395D01*
X148162766Y-104590466D01*
X148162765Y-104590467D01*
X148058690Y-104746227D01*
X147926227Y-104878690D01*
X147903092Y-104894148D01*
X147770466Y-104982766D01*
X147597395Y-105054454D01*
X147413667Y-105091000D01*
X147226333Y-105091000D01*
X147042605Y-105054454D01*
X146869534Y-104982766D01*
X146736908Y-104894148D01*
X146713773Y-104878690D01*
X146581310Y-104746227D01*
X146477235Y-104590467D01*
X146477234Y-104590466D01*
X146405546Y-104417395D01*
X146369000Y-104233667D01*
X146369000Y-104046333D01*
X146405546Y-103862605D01*
X146477234Y-103689534D01*
X146538716Y-103597520D01*
X146581310Y-103533773D01*
X146713773Y-103401310D01*
X146863428Y-103301314D01*
X146869534Y-103297234D01*
X147042605Y-103225546D01*
X147226333Y-103189000D01*
X147413667Y-103189000D01*
X147597395Y-103225546D01*
X147597395Y-103225546D01*
G37*
G36*
X150097395Y-103225546D02*
G01*
X150270466Y-103297234D01*
X150276572Y-103301314D01*
X150426227Y-103401310D01*
X150558690Y-103533773D01*
X150601284Y-103597520D01*
X150662766Y-103689534D01*
X150734454Y-103862605D01*
X150771000Y-104046333D01*
X150771000Y-104233667D01*
X150734454Y-104417395D01*
X150662766Y-104590466D01*
X150662765Y-104590467D01*
X150558690Y-104746227D01*
X150426227Y-104878690D01*
X150403092Y-104894148D01*
X150270466Y-104982766D01*
X150097395Y-105054454D01*
X149913667Y-105091000D01*
X149726333Y-105091000D01*
X149542605Y-105054454D01*
X149369534Y-104982766D01*
X149236908Y-104894148D01*
X149213773Y-104878690D01*
X149081310Y-104746227D01*
X148977235Y-104590467D01*
X148977234Y-104590466D01*
X148905546Y-104417395D01*
X148869000Y-104233667D01*
X148869000Y-104046333D01*
X148905546Y-103862605D01*
X148977234Y-103689534D01*
X149038716Y-103597520D01*
X149081310Y-103533773D01*
X149213773Y-103401310D01*
X149363428Y-103301314D01*
X149369534Y-103297234D01*
X149542605Y-103225546D01*
X149726333Y-103189000D01*
X149913667Y-103189000D01*
X150097395Y-103225546D01*
X150097395Y-103225546D01*
G37*
G36*
X74651000Y-105091000D02*
G01*
X72749000Y-105091000D01*
X72749000Y-103189000D01*
X74651000Y-103189000D01*
X74651000Y-105091000D01*
X74651000Y-105091000D01*
G37*
G36*
X76477395Y-103225546D02*
G01*
X76650466Y-103297234D01*
X76656572Y-103301314D01*
X76806227Y-103401310D01*
X76938690Y-103533773D01*
X76981284Y-103597520D01*
X77042766Y-103689534D01*
X77114454Y-103862605D01*
X77151000Y-104046333D01*
X77151000Y-104233667D01*
X77114454Y-104417395D01*
X77042766Y-104590466D01*
X77042765Y-104590467D01*
X76938690Y-104746227D01*
X76806227Y-104878690D01*
X76783092Y-104894148D01*
X76650466Y-104982766D01*
X76477395Y-105054454D01*
X76293667Y-105091000D01*
X76106333Y-105091000D01*
X75922605Y-105054454D01*
X75749534Y-104982766D01*
X75616908Y-104894148D01*
X75593773Y-104878690D01*
X75461310Y-104746227D01*
X75357235Y-104590467D01*
X75357234Y-104590466D01*
X75285546Y-104417395D01*
X75249000Y-104233667D01*
X75249000Y-104046333D01*
X75285546Y-103862605D01*
X75357234Y-103689534D01*
X75418716Y-103597520D01*
X75461310Y-103533773D01*
X75593773Y-103401310D01*
X75743428Y-103301314D01*
X75749534Y-103297234D01*
X75922605Y-103225546D01*
X76106333Y-103189000D01*
X76293667Y-103189000D01*
X76477395Y-103225546D01*
X76477395Y-103225546D01*
G37*
G36*
X137408228Y-103321703D02*
G01*
X137563100Y-103385853D01*
X137702481Y-103478985D01*
X137821015Y-103597519D01*
X137914147Y-103736900D01*
X137978297Y-103891772D01*
X138011000Y-104056184D01*
X138011000Y-104223816D01*
X137978297Y-104388228D01*
X137914147Y-104543100D01*
X137821015Y-104682481D01*
X137702481Y-104801015D01*
X137563100Y-104894147D01*
X137408228Y-104958297D01*
X137243816Y-104991000D01*
X137076184Y-104991000D01*
X136911772Y-104958297D01*
X136756900Y-104894147D01*
X136617519Y-104801015D01*
X136498985Y-104682481D01*
X136405853Y-104543100D01*
X136341703Y-104388228D01*
X136309000Y-104223816D01*
X136309000Y-104056184D01*
X136341703Y-103891772D01*
X136405853Y-103736900D01*
X136498985Y-103597519D01*
X136617519Y-103478985D01*
X136756900Y-103385853D01*
X136911772Y-103321703D01*
X137076184Y-103289000D01*
X137243816Y-103289000D01*
X137408228Y-103321703D01*
X137408228Y-103321703D01*
G37*
G36*
X86526823Y-103301313D02*
G01*
X86687242Y-103349976D01*
X86754361Y-103385852D01*
X86835078Y-103428996D01*
X86964659Y-103535341D01*
X87071004Y-103664922D01*
X87071005Y-103664924D01*
X87150024Y-103812758D01*
X87198687Y-103973177D01*
X87215117Y-104140000D01*
X87198687Y-104306823D01*
X87150024Y-104467242D01*
X87109477Y-104543100D01*
X87071004Y-104615078D01*
X86964659Y-104744659D01*
X86835078Y-104851004D01*
X86835076Y-104851005D01*
X86687242Y-104930024D01*
X86526823Y-104978687D01*
X86401804Y-104991000D01*
X86318196Y-104991000D01*
X86193177Y-104978687D01*
X86032758Y-104930024D01*
X85884924Y-104851005D01*
X85884922Y-104851004D01*
X85755341Y-104744659D01*
X85648996Y-104615078D01*
X85610523Y-104543100D01*
X85569976Y-104467242D01*
X85521313Y-104306823D01*
X85504883Y-104140000D01*
X85521313Y-103973177D01*
X85569976Y-103812758D01*
X85648995Y-103664924D01*
X85648996Y-103664922D01*
X85755341Y-103535341D01*
X85884922Y-103428996D01*
X85965639Y-103385852D01*
X86032758Y-103349976D01*
X86193177Y-103301313D01*
X86318196Y-103289000D01*
X86401804Y-103289000D01*
X86526823Y-103301313D01*
X86526823Y-103301313D01*
G37*
G36*
X101848228Y-103321703D02*
G01*
X102003100Y-103385853D01*
X102142481Y-103478985D01*
X102261015Y-103597519D01*
X102354147Y-103736900D01*
X102418297Y-103891772D01*
X102451000Y-104056184D01*
X102451000Y-104223816D01*
X102418297Y-104388228D01*
X102354147Y-104543100D01*
X102261015Y-104682481D01*
X102142481Y-104801015D01*
X102003100Y-104894147D01*
X101848228Y-104958297D01*
X101683816Y-104991000D01*
X101516184Y-104991000D01*
X101351772Y-104958297D01*
X101196900Y-104894147D01*
X101057519Y-104801015D01*
X100938985Y-104682481D01*
X100845853Y-104543100D01*
X100781703Y-104388228D01*
X100749000Y-104223816D01*
X100749000Y-104056184D01*
X100781703Y-103891772D01*
X100845853Y-103736900D01*
X100938985Y-103597519D01*
X101057519Y-103478985D01*
X101196900Y-103385853D01*
X101351772Y-103321703D01*
X101516184Y-103289000D01*
X101683816Y-103289000D01*
X101848228Y-103321703D01*
X101848228Y-103321703D01*
G37*
G36*
X139866823Y-103301313D02*
G01*
X140027242Y-103349976D01*
X140094361Y-103385852D01*
X140175078Y-103428996D01*
X140304659Y-103535341D01*
X140411004Y-103664922D01*
X140411005Y-103664924D01*
X140490024Y-103812758D01*
X140538687Y-103973177D01*
X140555117Y-104140000D01*
X140538687Y-104306823D01*
X140490024Y-104467242D01*
X140449477Y-104543100D01*
X140411004Y-104615078D01*
X140304659Y-104744659D01*
X140175078Y-104851004D01*
X140175076Y-104851005D01*
X140027242Y-104930024D01*
X139866823Y-104978687D01*
X139741804Y-104991000D01*
X139658196Y-104991000D01*
X139533177Y-104978687D01*
X139372758Y-104930024D01*
X139224924Y-104851005D01*
X139224922Y-104851004D01*
X139095341Y-104744659D01*
X138988996Y-104615078D01*
X138950523Y-104543100D01*
X138909976Y-104467242D01*
X138861313Y-104306823D01*
X138844883Y-104140000D01*
X138861313Y-103973177D01*
X138909976Y-103812758D01*
X138988995Y-103664924D01*
X138988996Y-103664922D01*
X139095341Y-103535341D01*
X139224922Y-103428996D01*
X139305639Y-103385852D01*
X139372758Y-103349976D01*
X139533177Y-103301313D01*
X139658196Y-103289000D01*
X139741804Y-103289000D01*
X139866823Y-103301313D01*
X139866823Y-103301313D01*
G37*
G36*
X122086823Y-103301313D02*
G01*
X122247242Y-103349976D01*
X122314361Y-103385852D01*
X122395078Y-103428996D01*
X122524659Y-103535341D01*
X122631004Y-103664922D01*
X122631005Y-103664924D01*
X122710024Y-103812758D01*
X122758687Y-103973177D01*
X122775117Y-104140000D01*
X122758687Y-104306823D01*
X122710024Y-104467242D01*
X122669477Y-104543100D01*
X122631004Y-104615078D01*
X122524659Y-104744659D01*
X122395078Y-104851004D01*
X122395076Y-104851005D01*
X122247242Y-104930024D01*
X122086823Y-104978687D01*
X121961804Y-104991000D01*
X121878196Y-104991000D01*
X121753177Y-104978687D01*
X121592758Y-104930024D01*
X121444924Y-104851005D01*
X121444922Y-104851004D01*
X121315341Y-104744659D01*
X121208996Y-104615078D01*
X121170523Y-104543100D01*
X121129976Y-104467242D01*
X121081313Y-104306823D01*
X121064883Y-104140000D01*
X121081313Y-103973177D01*
X121129976Y-103812758D01*
X121208995Y-103664924D01*
X121208996Y-103664922D01*
X121315341Y-103535341D01*
X121444922Y-103428996D01*
X121525639Y-103385852D01*
X121592758Y-103349976D01*
X121753177Y-103301313D01*
X121878196Y-103289000D01*
X121961804Y-103289000D01*
X122086823Y-103301313D01*
X122086823Y-103301313D01*
G37*
G36*
X119628228Y-103321703D02*
G01*
X119783100Y-103385853D01*
X119922481Y-103478985D01*
X120041015Y-103597519D01*
X120134147Y-103736900D01*
X120198297Y-103891772D01*
X120231000Y-104056184D01*
X120231000Y-104223816D01*
X120198297Y-104388228D01*
X120134147Y-104543100D01*
X120041015Y-104682481D01*
X119922481Y-104801015D01*
X119783100Y-104894147D01*
X119628228Y-104958297D01*
X119463816Y-104991000D01*
X119296184Y-104991000D01*
X119131772Y-104958297D01*
X118976900Y-104894147D01*
X118837519Y-104801015D01*
X118718985Y-104682481D01*
X118625853Y-104543100D01*
X118561703Y-104388228D01*
X118529000Y-104223816D01*
X118529000Y-104056184D01*
X118561703Y-103891772D01*
X118625853Y-103736900D01*
X118718985Y-103597519D01*
X118837519Y-103478985D01*
X118976900Y-103385853D01*
X119131772Y-103321703D01*
X119296184Y-103289000D01*
X119463816Y-103289000D01*
X119628228Y-103321703D01*
X119628228Y-103321703D01*
G37*
G36*
X104306823Y-103301313D02*
G01*
X104467242Y-103349976D01*
X104534361Y-103385852D01*
X104615078Y-103428996D01*
X104744659Y-103535341D01*
X104851004Y-103664922D01*
X104851005Y-103664924D01*
X104930024Y-103812758D01*
X104978687Y-103973177D01*
X104995117Y-104140000D01*
X104978687Y-104306823D01*
X104930024Y-104467242D01*
X104889477Y-104543100D01*
X104851004Y-104615078D01*
X104744659Y-104744659D01*
X104615078Y-104851004D01*
X104615076Y-104851005D01*
X104467242Y-104930024D01*
X104306823Y-104978687D01*
X104181804Y-104991000D01*
X104098196Y-104991000D01*
X103973177Y-104978687D01*
X103812758Y-104930024D01*
X103664924Y-104851005D01*
X103664922Y-104851004D01*
X103535341Y-104744659D01*
X103428996Y-104615078D01*
X103390523Y-104543100D01*
X103349976Y-104467242D01*
X103301313Y-104306823D01*
X103284883Y-104140000D01*
X103301313Y-103973177D01*
X103349976Y-103812758D01*
X103428995Y-103664924D01*
X103428996Y-103664922D01*
X103535341Y-103535341D01*
X103664922Y-103428996D01*
X103745639Y-103385852D01*
X103812758Y-103349976D01*
X103973177Y-103301313D01*
X104098196Y-103289000D01*
X104181804Y-103289000D01*
X104306823Y-103301313D01*
X104306823Y-103301313D01*
G37*
G36*
X84068228Y-103321703D02*
G01*
X84223100Y-103385853D01*
X84362481Y-103478985D01*
X84481015Y-103597519D01*
X84574147Y-103736900D01*
X84638297Y-103891772D01*
X84671000Y-104056184D01*
X84671000Y-104223816D01*
X84638297Y-104388228D01*
X84574147Y-104543100D01*
X84481015Y-104682481D01*
X84362481Y-104801015D01*
X84223100Y-104894147D01*
X84068228Y-104958297D01*
X83903816Y-104991000D01*
X83736184Y-104991000D01*
X83571772Y-104958297D01*
X83416900Y-104894147D01*
X83277519Y-104801015D01*
X83158985Y-104682481D01*
X83065853Y-104543100D01*
X83001703Y-104388228D01*
X82969000Y-104223816D01*
X82969000Y-104056184D01*
X83001703Y-103891772D01*
X83065853Y-103736900D01*
X83158985Y-103597519D01*
X83277519Y-103478985D01*
X83416900Y-103385853D01*
X83571772Y-103321703D01*
X83736184Y-103289000D01*
X83903816Y-103289000D01*
X84068228Y-103321703D01*
X84068228Y-103321703D01*
G37*
G36*
X155188228Y-100781703D02*
G01*
X155343100Y-100845853D01*
X155482481Y-100938985D01*
X155601015Y-101057519D01*
X155694147Y-101196900D01*
X155758297Y-101351772D01*
X155791000Y-101516184D01*
X155791000Y-101683816D01*
X155758297Y-101848228D01*
X155694147Y-102003100D01*
X155601015Y-102142481D01*
X155482481Y-102261015D01*
X155343100Y-102354147D01*
X155188228Y-102418297D01*
X155023816Y-102451000D01*
X154856184Y-102451000D01*
X154691772Y-102418297D01*
X154536900Y-102354147D01*
X154397519Y-102261015D01*
X154278985Y-102142481D01*
X154185853Y-102003100D01*
X154121703Y-101848228D01*
X154089000Y-101683816D01*
X154089000Y-101516184D01*
X154121703Y-101351772D01*
X154185853Y-101196900D01*
X154278985Y-101057519D01*
X154397519Y-100938985D01*
X154536900Y-100845853D01*
X154691772Y-100781703D01*
X154856184Y-100749000D01*
X155023816Y-100749000D01*
X155188228Y-100781703D01*
X155188228Y-100781703D01*
G37*
G36*
X68746823Y-100761313D02*
G01*
X68907242Y-100809976D01*
X68974361Y-100845852D01*
X69055078Y-100888996D01*
X69184659Y-100995341D01*
X69291004Y-101124922D01*
X69291005Y-101124924D01*
X69370024Y-101272758D01*
X69418687Y-101433177D01*
X69435117Y-101600000D01*
X69418687Y-101766823D01*
X69370024Y-101927242D01*
X69329477Y-102003100D01*
X69291004Y-102075078D01*
X69184659Y-102204659D01*
X69055078Y-102311004D01*
X69055076Y-102311005D01*
X68907242Y-102390024D01*
X68746823Y-102438687D01*
X68621804Y-102451000D01*
X68538196Y-102451000D01*
X68413177Y-102438687D01*
X68252758Y-102390024D01*
X68104924Y-102311005D01*
X68104922Y-102311004D01*
X67975341Y-102204659D01*
X67868996Y-102075078D01*
X67830523Y-102003100D01*
X67789976Y-101927242D01*
X67741313Y-101766823D01*
X67724883Y-101600000D01*
X67741313Y-101433177D01*
X67789976Y-101272758D01*
X67868995Y-101124924D01*
X67868996Y-101124922D01*
X67975341Y-100995341D01*
X68104922Y-100888996D01*
X68185639Y-100845852D01*
X68252758Y-100809976D01*
X68413177Y-100761313D01*
X68538196Y-100749000D01*
X68621804Y-100749000D01*
X68746823Y-100761313D01*
X68746823Y-100761313D01*
G37*
G36*
X116836604Y-94989416D02*
G01*
X117102579Y-95070099D01*
X117102581Y-95070100D01*
X117347701Y-95201119D01*
X117562556Y-95377444D01*
X117738881Y-95592299D01*
X117869900Y-95837418D01*
X117869900Y-95837419D01*
X117869901Y-95837421D01*
X117950584Y-96103397D01*
X117971000Y-96310685D01*
X117971000Y-96969316D01*
X117950584Y-97176604D01*
X117869901Y-97442578D01*
X117869900Y-97442581D01*
X117738881Y-97687701D01*
X117562556Y-97902556D01*
X117347700Y-98078881D01*
X117102580Y-98209900D01*
X117102578Y-98209901D01*
X116836603Y-98290584D01*
X116560000Y-98317827D01*
X116283396Y-98290584D01*
X116017421Y-98209901D01*
X116017419Y-98209900D01*
X115772299Y-98078881D01*
X115557444Y-97902556D01*
X115381119Y-97687700D01*
X115250100Y-97442580D01*
X115250099Y-97442578D01*
X115169416Y-97176603D01*
X115149000Y-96969315D01*
X115149000Y-96310684D01*
X115169416Y-96103396D01*
X115250099Y-95837421D01*
X115381120Y-95592298D01*
X115557444Y-95377444D01*
X115772300Y-95201119D01*
X116017420Y-95070100D01*
X116017422Y-95070099D01*
X116283397Y-94989416D01*
X116560000Y-94962173D01*
X116836604Y-94989416D01*
X116836604Y-94989416D01*
G37*
G36*
X89456604Y-94989416D02*
G01*
X89722579Y-95070099D01*
X89722581Y-95070100D01*
X89967701Y-95201119D01*
X90182556Y-95377444D01*
X90358881Y-95592299D01*
X90489900Y-95837418D01*
X90489900Y-95837419D01*
X90489901Y-95837421D01*
X90570584Y-96103397D01*
X90591000Y-96310685D01*
X90591000Y-96969316D01*
X90570584Y-97176604D01*
X90489901Y-97442578D01*
X90489900Y-97442581D01*
X90358881Y-97687701D01*
X90182556Y-97902556D01*
X89967700Y-98078881D01*
X89722580Y-98209900D01*
X89722578Y-98209901D01*
X89456603Y-98290584D01*
X89180000Y-98317827D01*
X88903396Y-98290584D01*
X88637421Y-98209901D01*
X88637419Y-98209900D01*
X88392299Y-98078881D01*
X88177444Y-97902556D01*
X88001119Y-97687700D01*
X87870100Y-97442580D01*
X87870099Y-97442578D01*
X87789416Y-97176603D01*
X87769000Y-96969315D01*
X87769000Y-96310684D01*
X87789416Y-96103396D01*
X87870099Y-95837421D01*
X88001120Y-95592298D01*
X88177444Y-95377444D01*
X88392300Y-95201119D01*
X88637420Y-95070100D01*
X88637422Y-95070099D01*
X88903397Y-94989416D01*
X89180000Y-94962173D01*
X89456604Y-94989416D01*
X89456604Y-94989416D01*
G37*
G36*
X99056604Y-94989416D02*
G01*
X99322579Y-95070099D01*
X99322581Y-95070100D01*
X99567701Y-95201119D01*
X99782556Y-95377444D01*
X99958881Y-95592299D01*
X100089900Y-95837418D01*
X100089900Y-95837419D01*
X100089901Y-95837421D01*
X100170584Y-96103397D01*
X100191000Y-96310685D01*
X100191000Y-96969316D01*
X100170584Y-97176604D01*
X100089901Y-97442578D01*
X100089900Y-97442581D01*
X99958881Y-97687701D01*
X99782556Y-97902556D01*
X99567700Y-98078881D01*
X99322580Y-98209900D01*
X99322578Y-98209901D01*
X99056603Y-98290584D01*
X98780000Y-98317827D01*
X98503396Y-98290584D01*
X98237421Y-98209901D01*
X98237419Y-98209900D01*
X97992299Y-98078881D01*
X97777444Y-97902556D01*
X97601119Y-97687700D01*
X97470100Y-97442580D01*
X97470099Y-97442578D01*
X97389416Y-97176603D01*
X97369000Y-96969315D01*
X97369000Y-96310684D01*
X97389416Y-96103396D01*
X97470099Y-95837421D01*
X97601120Y-95592298D01*
X97777444Y-95377444D01*
X97992300Y-95201119D01*
X98237420Y-95070100D01*
X98237422Y-95070099D01*
X98503397Y-94989416D01*
X98780000Y-94962173D01*
X99056604Y-94989416D01*
X99056604Y-94989416D01*
G37*
G36*
X71676604Y-94989416D02*
G01*
X71942579Y-95070099D01*
X71942581Y-95070100D01*
X72187701Y-95201119D01*
X72402556Y-95377444D01*
X72578881Y-95592299D01*
X72709900Y-95837418D01*
X72709900Y-95837419D01*
X72709901Y-95837421D01*
X72790584Y-96103397D01*
X72811000Y-96310685D01*
X72811000Y-96969316D01*
X72790584Y-97176604D01*
X72709901Y-97442578D01*
X72709900Y-97442581D01*
X72578881Y-97687701D01*
X72402556Y-97902556D01*
X72187700Y-98078881D01*
X71942580Y-98209900D01*
X71942578Y-98209901D01*
X71676603Y-98290584D01*
X71400000Y-98317827D01*
X71123396Y-98290584D01*
X70857421Y-98209901D01*
X70857419Y-98209900D01*
X70612299Y-98078881D01*
X70397444Y-97902556D01*
X70221119Y-97687700D01*
X70090100Y-97442580D01*
X70090099Y-97442578D01*
X70009416Y-97176603D01*
X69989000Y-96969315D01*
X69989000Y-96310684D01*
X70009416Y-96103396D01*
X70090099Y-95837421D01*
X70221120Y-95592298D01*
X70397444Y-95377444D01*
X70612300Y-95201119D01*
X70857420Y-95070100D01*
X70857422Y-95070099D01*
X71123397Y-94989416D01*
X71400000Y-94962173D01*
X71676604Y-94989416D01*
X71676604Y-94989416D01*
G37*
G36*
X81276604Y-94989416D02*
G01*
X81542579Y-95070099D01*
X81542581Y-95070100D01*
X81787701Y-95201119D01*
X82002556Y-95377444D01*
X82178881Y-95592299D01*
X82309900Y-95837418D01*
X82309900Y-95837419D01*
X82309901Y-95837421D01*
X82390584Y-96103397D01*
X82411000Y-96310685D01*
X82411000Y-96969316D01*
X82390584Y-97176604D01*
X82309901Y-97442578D01*
X82309900Y-97442581D01*
X82178881Y-97687701D01*
X82002556Y-97902556D01*
X81787700Y-98078881D01*
X81542580Y-98209900D01*
X81542578Y-98209901D01*
X81276603Y-98290584D01*
X81000000Y-98317827D01*
X80723396Y-98290584D01*
X80457421Y-98209901D01*
X80457419Y-98209900D01*
X80212299Y-98078881D01*
X79997444Y-97902556D01*
X79821119Y-97687700D01*
X79690100Y-97442580D01*
X79690099Y-97442578D01*
X79609416Y-97176603D01*
X79589000Y-96969315D01*
X79589000Y-96310684D01*
X79609416Y-96103396D01*
X79690099Y-95837421D01*
X79821120Y-95592298D01*
X79997444Y-95377444D01*
X80212300Y-95201119D01*
X80457420Y-95070100D01*
X80457422Y-95070099D01*
X80723397Y-94989416D01*
X81000000Y-94962173D01*
X81276604Y-94989416D01*
X81276604Y-94989416D01*
G37*
G36*
X152396604Y-94989416D02*
G01*
X152662579Y-95070099D01*
X152662581Y-95070100D01*
X152907701Y-95201119D01*
X153122556Y-95377444D01*
X153298881Y-95592299D01*
X153429900Y-95837418D01*
X153429900Y-95837419D01*
X153429901Y-95837421D01*
X153510584Y-96103397D01*
X153531000Y-96310685D01*
X153531000Y-96969316D01*
X153510584Y-97176604D01*
X153429901Y-97442578D01*
X153429900Y-97442581D01*
X153298881Y-97687701D01*
X153122556Y-97902556D01*
X152907700Y-98078881D01*
X152662580Y-98209900D01*
X152662578Y-98209901D01*
X152396603Y-98290584D01*
X152120000Y-98317827D01*
X151843396Y-98290584D01*
X151577421Y-98209901D01*
X151577419Y-98209900D01*
X151332299Y-98078881D01*
X151117444Y-97902556D01*
X150941119Y-97687700D01*
X150810100Y-97442580D01*
X150810099Y-97442578D01*
X150729416Y-97176603D01*
X150709000Y-96969315D01*
X150709000Y-96310684D01*
X150729416Y-96103396D01*
X150810099Y-95837421D01*
X150941120Y-95592298D01*
X151117444Y-95377444D01*
X151332300Y-95201119D01*
X151577420Y-95070100D01*
X151577422Y-95070099D01*
X151843397Y-94989416D01*
X152120000Y-94962173D01*
X152396604Y-94989416D01*
X152396604Y-94989416D01*
G37*
G36*
X142796604Y-94989416D02*
G01*
X143062579Y-95070099D01*
X143062581Y-95070100D01*
X143307701Y-95201119D01*
X143522556Y-95377444D01*
X143698881Y-95592299D01*
X143829900Y-95837418D01*
X143829900Y-95837419D01*
X143829901Y-95837421D01*
X143910584Y-96103397D01*
X143931000Y-96310685D01*
X143931000Y-96969316D01*
X143910584Y-97176604D01*
X143829901Y-97442578D01*
X143829900Y-97442581D01*
X143698881Y-97687701D01*
X143522556Y-97902556D01*
X143307700Y-98078881D01*
X143062580Y-98209900D01*
X143062578Y-98209901D01*
X142796603Y-98290584D01*
X142520000Y-98317827D01*
X142243396Y-98290584D01*
X141977421Y-98209901D01*
X141977419Y-98209900D01*
X141732299Y-98078881D01*
X141517444Y-97902556D01*
X141341119Y-97687700D01*
X141210100Y-97442580D01*
X141210099Y-97442578D01*
X141129416Y-97176603D01*
X141109000Y-96969315D01*
X141109000Y-96310684D01*
X141129416Y-96103396D01*
X141210099Y-95837421D01*
X141341120Y-95592298D01*
X141517444Y-95377444D01*
X141732300Y-95201119D01*
X141977420Y-95070100D01*
X141977422Y-95070099D01*
X142243397Y-94989416D01*
X142520000Y-94962173D01*
X142796604Y-94989416D01*
X142796604Y-94989416D01*
G37*
G36*
X125016604Y-94989416D02*
G01*
X125282579Y-95070099D01*
X125282581Y-95070100D01*
X125527701Y-95201119D01*
X125742556Y-95377444D01*
X125918881Y-95592299D01*
X126049900Y-95837418D01*
X126049900Y-95837419D01*
X126049901Y-95837421D01*
X126130584Y-96103397D01*
X126151000Y-96310685D01*
X126151000Y-96969316D01*
X126130584Y-97176604D01*
X126049901Y-97442578D01*
X126049900Y-97442581D01*
X125918881Y-97687701D01*
X125742556Y-97902556D01*
X125527700Y-98078881D01*
X125282580Y-98209900D01*
X125282578Y-98209901D01*
X125016603Y-98290584D01*
X124740000Y-98317827D01*
X124463396Y-98290584D01*
X124197421Y-98209901D01*
X124197419Y-98209900D01*
X123952299Y-98078881D01*
X123737444Y-97902556D01*
X123561119Y-97687700D01*
X123430100Y-97442580D01*
X123430099Y-97442578D01*
X123349416Y-97176603D01*
X123329000Y-96969315D01*
X123329000Y-96310684D01*
X123349416Y-96103396D01*
X123430099Y-95837421D01*
X123561120Y-95592298D01*
X123737444Y-95377444D01*
X123952300Y-95201119D01*
X124197420Y-95070100D01*
X124197422Y-95070099D01*
X124463397Y-94989416D01*
X124740000Y-94962173D01*
X125016604Y-94989416D01*
X125016604Y-94989416D01*
G37*
G36*
X134616604Y-94989416D02*
G01*
X134882579Y-95070099D01*
X134882581Y-95070100D01*
X135127701Y-95201119D01*
X135342556Y-95377444D01*
X135518881Y-95592299D01*
X135649900Y-95837418D01*
X135649900Y-95837419D01*
X135649901Y-95837421D01*
X135730584Y-96103397D01*
X135751000Y-96310685D01*
X135751000Y-96969316D01*
X135730584Y-97176604D01*
X135649901Y-97442578D01*
X135649900Y-97442581D01*
X135518881Y-97687701D01*
X135342556Y-97902556D01*
X135127700Y-98078881D01*
X134882580Y-98209900D01*
X134882578Y-98209901D01*
X134616603Y-98290584D01*
X134340000Y-98317827D01*
X134063396Y-98290584D01*
X133797421Y-98209901D01*
X133797419Y-98209900D01*
X133552299Y-98078881D01*
X133337444Y-97902556D01*
X133161119Y-97687700D01*
X133030100Y-97442580D01*
X133030099Y-97442578D01*
X132949416Y-97176603D01*
X132929000Y-96969315D01*
X132929000Y-96310684D01*
X132949416Y-96103396D01*
X133030099Y-95837421D01*
X133161120Y-95592298D01*
X133337444Y-95377444D01*
X133552300Y-95201119D01*
X133797420Y-95070100D01*
X133797422Y-95070099D01*
X134063397Y-94989416D01*
X134340000Y-94962173D01*
X134616604Y-94989416D01*
X134616604Y-94989416D01*
G37*
G36*
X107236604Y-94989416D02*
G01*
X107502579Y-95070099D01*
X107502581Y-95070100D01*
X107747701Y-95201119D01*
X107962556Y-95377444D01*
X108138881Y-95592299D01*
X108269900Y-95837418D01*
X108269900Y-95837419D01*
X108269901Y-95837421D01*
X108350584Y-96103397D01*
X108371000Y-96310685D01*
X108371000Y-96969316D01*
X108350584Y-97176604D01*
X108269901Y-97442578D01*
X108269900Y-97442581D01*
X108138881Y-97687701D01*
X107962556Y-97902556D01*
X107747700Y-98078881D01*
X107502580Y-98209900D01*
X107502578Y-98209901D01*
X107236603Y-98290584D01*
X106960000Y-98317827D01*
X106683396Y-98290584D01*
X106417421Y-98209901D01*
X106417419Y-98209900D01*
X106172299Y-98078881D01*
X105957444Y-97902556D01*
X105781119Y-97687700D01*
X105650100Y-97442580D01*
X105650099Y-97442578D01*
X105569416Y-97176603D01*
X105549000Y-96969315D01*
X105549000Y-96310684D01*
X105569416Y-96103396D01*
X105650099Y-95837421D01*
X105781120Y-95592298D01*
X105957444Y-95377444D01*
X106172300Y-95201119D01*
X106417420Y-95070100D01*
X106417422Y-95070099D01*
X106683397Y-94989416D01*
X106960000Y-94962173D01*
X107236604Y-94989416D01*
X107236604Y-94989416D01*
G37*
G36*
X86608228Y-93161703D02*
G01*
X86763100Y-93225853D01*
X86902481Y-93318985D01*
X87021015Y-93437519D01*
X87114147Y-93576900D01*
X87178297Y-93731772D01*
X87211000Y-93896184D01*
X87211000Y-94063816D01*
X87178297Y-94228228D01*
X87114147Y-94383100D01*
X87021015Y-94522481D01*
X86902481Y-94641015D01*
X86763100Y-94734147D01*
X86608228Y-94798297D01*
X86443816Y-94831000D01*
X86276184Y-94831000D01*
X86111772Y-94798297D01*
X85956900Y-94734147D01*
X85817519Y-94641015D01*
X85698985Y-94522481D01*
X85605853Y-94383100D01*
X85541703Y-94228228D01*
X85509000Y-94063816D01*
X85509000Y-93896184D01*
X85541703Y-93731772D01*
X85605853Y-93576900D01*
X85698985Y-93437519D01*
X85817519Y-93318985D01*
X85956900Y-93225853D01*
X86111772Y-93161703D01*
X86276184Y-93129000D01*
X86443816Y-93129000D01*
X86608228Y-93161703D01*
X86608228Y-93161703D01*
G37*
G36*
X83986823Y-93141313D02*
G01*
X84147242Y-93189976D01*
X84214361Y-93225852D01*
X84295078Y-93268996D01*
X84424659Y-93375341D01*
X84531004Y-93504922D01*
X84531005Y-93504924D01*
X84610024Y-93652758D01*
X84658687Y-93813177D01*
X84675117Y-93980000D01*
X84658687Y-94146823D01*
X84610024Y-94307242D01*
X84569477Y-94383100D01*
X84531004Y-94455078D01*
X84424659Y-94584659D01*
X84295078Y-94691004D01*
X84295076Y-94691005D01*
X84147242Y-94770024D01*
X83986823Y-94818687D01*
X83861804Y-94831000D01*
X83778196Y-94831000D01*
X83653177Y-94818687D01*
X83492758Y-94770024D01*
X83344924Y-94691005D01*
X83344922Y-94691004D01*
X83215341Y-94584659D01*
X83108996Y-94455078D01*
X83070523Y-94383100D01*
X83029976Y-94307242D01*
X82981313Y-94146823D01*
X82964883Y-93980000D01*
X82981313Y-93813177D01*
X83029976Y-93652758D01*
X83108995Y-93504924D01*
X83108996Y-93504922D01*
X83215341Y-93375341D01*
X83344922Y-93268996D01*
X83425639Y-93225852D01*
X83492758Y-93189976D01*
X83653177Y-93141313D01*
X83778196Y-93129000D01*
X83861804Y-93129000D01*
X83986823Y-93141313D01*
X83986823Y-93141313D01*
G37*
G36*
X137326823Y-93141313D02*
G01*
X137487242Y-93189976D01*
X137554361Y-93225852D01*
X137635078Y-93268996D01*
X137764659Y-93375341D01*
X137871004Y-93504922D01*
X137871005Y-93504924D01*
X137950024Y-93652758D01*
X137998687Y-93813177D01*
X138015117Y-93980000D01*
X137998687Y-94146823D01*
X137950024Y-94307242D01*
X137909477Y-94383100D01*
X137871004Y-94455078D01*
X137764659Y-94584659D01*
X137635078Y-94691004D01*
X137635076Y-94691005D01*
X137487242Y-94770024D01*
X137326823Y-94818687D01*
X137201804Y-94831000D01*
X137118196Y-94831000D01*
X136993177Y-94818687D01*
X136832758Y-94770024D01*
X136684924Y-94691005D01*
X136684922Y-94691004D01*
X136555341Y-94584659D01*
X136448996Y-94455078D01*
X136410523Y-94383100D01*
X136369976Y-94307242D01*
X136321313Y-94146823D01*
X136304883Y-93980000D01*
X136321313Y-93813177D01*
X136369976Y-93652758D01*
X136448995Y-93504924D01*
X136448996Y-93504922D01*
X136555341Y-93375341D01*
X136684922Y-93268996D01*
X136765639Y-93225852D01*
X136832758Y-93189976D01*
X136993177Y-93141313D01*
X137118196Y-93129000D01*
X137201804Y-93129000D01*
X137326823Y-93141313D01*
X137326823Y-93141313D01*
G37*
G36*
X122168228Y-93161703D02*
G01*
X122323100Y-93225853D01*
X122462481Y-93318985D01*
X122581015Y-93437519D01*
X122674147Y-93576900D01*
X122738297Y-93731772D01*
X122771000Y-93896184D01*
X122771000Y-94063816D01*
X122738297Y-94228228D01*
X122674147Y-94383100D01*
X122581015Y-94522481D01*
X122462481Y-94641015D01*
X122323100Y-94734147D01*
X122168228Y-94798297D01*
X122003816Y-94831000D01*
X121836184Y-94831000D01*
X121671772Y-94798297D01*
X121516900Y-94734147D01*
X121377519Y-94641015D01*
X121258985Y-94522481D01*
X121165853Y-94383100D01*
X121101703Y-94228228D01*
X121069000Y-94063816D01*
X121069000Y-93896184D01*
X121101703Y-93731772D01*
X121165853Y-93576900D01*
X121258985Y-93437519D01*
X121377519Y-93318985D01*
X121516900Y-93225853D01*
X121671772Y-93161703D01*
X121836184Y-93129000D01*
X122003816Y-93129000D01*
X122168228Y-93161703D01*
X122168228Y-93161703D01*
G37*
G36*
X101766823Y-93141313D02*
G01*
X101927242Y-93189976D01*
X101994361Y-93225852D01*
X102075078Y-93268996D01*
X102204659Y-93375341D01*
X102311004Y-93504922D01*
X102311005Y-93504924D01*
X102390024Y-93652758D01*
X102438687Y-93813177D01*
X102455117Y-93980000D01*
X102438687Y-94146823D01*
X102390024Y-94307242D01*
X102349477Y-94383100D01*
X102311004Y-94455078D01*
X102204659Y-94584659D01*
X102075078Y-94691004D01*
X102075076Y-94691005D01*
X101927242Y-94770024D01*
X101766823Y-94818687D01*
X101641804Y-94831000D01*
X101558196Y-94831000D01*
X101433177Y-94818687D01*
X101272758Y-94770024D01*
X101124924Y-94691005D01*
X101124922Y-94691004D01*
X100995341Y-94584659D01*
X100888996Y-94455078D01*
X100850523Y-94383100D01*
X100809976Y-94307242D01*
X100761313Y-94146823D01*
X100744883Y-93980000D01*
X100761313Y-93813177D01*
X100809976Y-93652758D01*
X100888995Y-93504924D01*
X100888996Y-93504922D01*
X100995341Y-93375341D01*
X101124922Y-93268996D01*
X101205639Y-93225852D01*
X101272758Y-93189976D01*
X101433177Y-93141313D01*
X101558196Y-93129000D01*
X101641804Y-93129000D01*
X101766823Y-93141313D01*
X101766823Y-93141313D01*
G37*
G36*
X119546823Y-93141313D02*
G01*
X119707242Y-93189976D01*
X119774361Y-93225852D01*
X119855078Y-93268996D01*
X119984659Y-93375341D01*
X120091004Y-93504922D01*
X120091005Y-93504924D01*
X120170024Y-93652758D01*
X120218687Y-93813177D01*
X120235117Y-93980000D01*
X120218687Y-94146823D01*
X120170024Y-94307242D01*
X120129477Y-94383100D01*
X120091004Y-94455078D01*
X119984659Y-94584659D01*
X119855078Y-94691004D01*
X119855076Y-94691005D01*
X119707242Y-94770024D01*
X119546823Y-94818687D01*
X119421804Y-94831000D01*
X119338196Y-94831000D01*
X119213177Y-94818687D01*
X119052758Y-94770024D01*
X118904924Y-94691005D01*
X118904922Y-94691004D01*
X118775341Y-94584659D01*
X118668996Y-94455078D01*
X118630523Y-94383100D01*
X118589976Y-94307242D01*
X118541313Y-94146823D01*
X118524883Y-93980000D01*
X118541313Y-93813177D01*
X118589976Y-93652758D01*
X118668995Y-93504924D01*
X118668996Y-93504922D01*
X118775341Y-93375341D01*
X118904922Y-93268996D01*
X118985639Y-93225852D01*
X119052758Y-93189976D01*
X119213177Y-93141313D01*
X119338196Y-93129000D01*
X119421804Y-93129000D01*
X119546823Y-93141313D01*
X119546823Y-93141313D01*
G37*
G36*
X139948228Y-93161703D02*
G01*
X140103100Y-93225853D01*
X140242481Y-93318985D01*
X140361015Y-93437519D01*
X140454147Y-93576900D01*
X140518297Y-93731772D01*
X140551000Y-93896184D01*
X140551000Y-94063816D01*
X140518297Y-94228228D01*
X140454147Y-94383100D01*
X140361015Y-94522481D01*
X140242481Y-94641015D01*
X140103100Y-94734147D01*
X139948228Y-94798297D01*
X139783816Y-94831000D01*
X139616184Y-94831000D01*
X139451772Y-94798297D01*
X139296900Y-94734147D01*
X139157519Y-94641015D01*
X139038985Y-94522481D01*
X138945853Y-94383100D01*
X138881703Y-94228228D01*
X138849000Y-94063816D01*
X138849000Y-93896184D01*
X138881703Y-93731772D01*
X138945853Y-93576900D01*
X139038985Y-93437519D01*
X139157519Y-93318985D01*
X139296900Y-93225853D01*
X139451772Y-93161703D01*
X139616184Y-93129000D01*
X139783816Y-93129000D01*
X139948228Y-93161703D01*
X139948228Y-93161703D01*
G37*
G36*
X104388228Y-93161703D02*
G01*
X104543100Y-93225853D01*
X104682481Y-93318985D01*
X104801015Y-93437519D01*
X104894147Y-93576900D01*
X104958297Y-93731772D01*
X104991000Y-93896184D01*
X104991000Y-94063816D01*
X104958297Y-94228228D01*
X104894147Y-94383100D01*
X104801015Y-94522481D01*
X104682481Y-94641015D01*
X104543100Y-94734147D01*
X104388228Y-94798297D01*
X104223816Y-94831000D01*
X104056184Y-94831000D01*
X103891772Y-94798297D01*
X103736900Y-94734147D01*
X103597519Y-94641015D01*
X103478985Y-94522481D01*
X103385853Y-94383100D01*
X103321703Y-94228228D01*
X103289000Y-94063816D01*
X103289000Y-93896184D01*
X103321703Y-93731772D01*
X103385853Y-93576900D01*
X103478985Y-93437519D01*
X103597519Y-93318985D01*
X103736900Y-93225853D01*
X103891772Y-93161703D01*
X104056184Y-93129000D01*
X104223816Y-93129000D01*
X104388228Y-93161703D01*
X104388228Y-93161703D01*
G37*
G36*
X155106823Y-90601313D02*
G01*
X155267242Y-90649976D01*
X155334361Y-90685852D01*
X155415078Y-90728996D01*
X155544659Y-90835341D01*
X155651004Y-90964922D01*
X155651005Y-90964924D01*
X155730024Y-91112758D01*
X155778687Y-91273177D01*
X155795117Y-91440000D01*
X155778687Y-91606823D01*
X155730024Y-91767242D01*
X155689477Y-91843100D01*
X155651004Y-91915078D01*
X155544659Y-92044659D01*
X155415078Y-92151004D01*
X155415076Y-92151005D01*
X155267242Y-92230024D01*
X155106823Y-92278687D01*
X154981804Y-92291000D01*
X154898196Y-92291000D01*
X154773177Y-92278687D01*
X154612758Y-92230024D01*
X154464924Y-92151005D01*
X154464922Y-92151004D01*
X154335341Y-92044659D01*
X154228996Y-91915078D01*
X154190523Y-91843100D01*
X154149976Y-91767242D01*
X154101313Y-91606823D01*
X154084883Y-91440000D01*
X154101313Y-91273177D01*
X154149976Y-91112758D01*
X154228995Y-90964924D01*
X154228996Y-90964922D01*
X154335341Y-90835341D01*
X154464922Y-90728996D01*
X154545639Y-90685852D01*
X154612758Y-90649976D01*
X154773177Y-90601313D01*
X154898196Y-90589000D01*
X154981804Y-90589000D01*
X155106823Y-90601313D01*
X155106823Y-90601313D01*
G37*
G36*
X68828228Y-90621703D02*
G01*
X68983100Y-90685853D01*
X69122481Y-90778985D01*
X69241015Y-90897519D01*
X69334147Y-91036900D01*
X69398297Y-91191772D01*
X69431000Y-91356184D01*
X69431000Y-91523816D01*
X69398297Y-91688228D01*
X69334147Y-91843100D01*
X69241015Y-91982481D01*
X69122481Y-92101015D01*
X68983100Y-92194147D01*
X68828228Y-92258297D01*
X68663816Y-92291000D01*
X68496184Y-92291000D01*
X68331772Y-92258297D01*
X68176900Y-92194147D01*
X68037519Y-92101015D01*
X67918985Y-91982481D01*
X67825853Y-91843100D01*
X67761703Y-91688228D01*
X67729000Y-91523816D01*
X67729000Y-91356184D01*
X67761703Y-91191772D01*
X67825853Y-91036900D01*
X67918985Y-90897519D01*
X68037519Y-90778985D01*
X68176900Y-90685853D01*
X68331772Y-90621703D01*
X68496184Y-90589000D01*
X68663816Y-90589000D01*
X68828228Y-90621703D01*
X68828228Y-90621703D01*
G37*
G36*
X119569890Y-90179017D02*
G01*
X119688364Y-90228091D01*
X119794988Y-90299335D01*
X119885665Y-90390012D01*
X119956910Y-90496638D01*
X120005983Y-90615110D01*
X120031000Y-90740881D01*
X120031000Y-90869119D01*
X120005983Y-90994890D01*
X119988581Y-91036903D01*
X119956909Y-91113364D01*
X119885665Y-91219988D01*
X119794988Y-91310665D01*
X119688364Y-91381909D01*
X119688363Y-91381910D01*
X119688362Y-91381910D01*
X119569890Y-91430983D01*
X119444119Y-91456000D01*
X119315881Y-91456000D01*
X119190110Y-91430983D01*
X119071638Y-91381910D01*
X119071637Y-91381910D01*
X119071636Y-91381909D01*
X118965012Y-91310665D01*
X118874335Y-91219988D01*
X118803091Y-91113364D01*
X118771420Y-91036903D01*
X118754017Y-90994890D01*
X118729000Y-90869119D01*
X118729000Y-90740881D01*
X118754017Y-90615110D01*
X118803090Y-90496638D01*
X118874335Y-90390012D01*
X118965012Y-90299335D01*
X119071636Y-90228091D01*
X119190110Y-90179017D01*
X119315881Y-90154000D01*
X119444119Y-90154000D01*
X119569890Y-90179017D01*
X119569890Y-90179017D01*
G37*
G36*
X139811000Y-91456000D02*
G01*
X138509000Y-91456000D01*
X138509000Y-90154000D01*
X139811000Y-90154000D01*
X139811000Y-91456000D01*
X139811000Y-91456000D01*
G37*
G36*
X137349890Y-90179017D02*
G01*
X137468364Y-90228091D01*
X137574988Y-90299335D01*
X137665665Y-90390012D01*
X137736910Y-90496638D01*
X137785983Y-90615110D01*
X137811000Y-90740881D01*
X137811000Y-90869119D01*
X137785983Y-90994890D01*
X137768581Y-91036903D01*
X137736909Y-91113364D01*
X137665665Y-91219988D01*
X137574988Y-91310665D01*
X137468364Y-91381909D01*
X137468363Y-91381910D01*
X137468362Y-91381910D01*
X137349890Y-91430983D01*
X137224119Y-91456000D01*
X137095881Y-91456000D01*
X136970110Y-91430983D01*
X136851638Y-91381910D01*
X136851637Y-91381910D01*
X136851636Y-91381909D01*
X136745012Y-91310665D01*
X136654335Y-91219988D01*
X136583091Y-91113364D01*
X136551420Y-91036903D01*
X136534017Y-90994890D01*
X136509000Y-90869119D01*
X136509000Y-90740881D01*
X136534017Y-90615110D01*
X136583090Y-90496638D01*
X136654335Y-90390012D01*
X136745012Y-90299335D01*
X136851636Y-90228091D01*
X136970110Y-90179017D01*
X137095881Y-90154000D01*
X137224119Y-90154000D01*
X137349890Y-90179017D01*
X137349890Y-90179017D01*
G37*
G36*
X86471000Y-91456000D02*
G01*
X85169000Y-91456000D01*
X85169000Y-90154000D01*
X86471000Y-90154000D01*
X86471000Y-91456000D01*
X86471000Y-91456000D01*
G37*
G36*
X84009890Y-90179017D02*
G01*
X84128364Y-90228091D01*
X84234988Y-90299335D01*
X84325665Y-90390012D01*
X84396910Y-90496638D01*
X84445983Y-90615110D01*
X84471000Y-90740881D01*
X84471000Y-90869119D01*
X84445983Y-90994890D01*
X84428581Y-91036903D01*
X84396909Y-91113364D01*
X84325665Y-91219988D01*
X84234988Y-91310665D01*
X84128364Y-91381909D01*
X84128363Y-91381910D01*
X84128362Y-91381910D01*
X84009890Y-91430983D01*
X83884119Y-91456000D01*
X83755881Y-91456000D01*
X83630110Y-91430983D01*
X83511638Y-91381910D01*
X83511637Y-91381910D01*
X83511636Y-91381909D01*
X83405012Y-91310665D01*
X83314335Y-91219988D01*
X83243091Y-91113364D01*
X83211420Y-91036903D01*
X83194017Y-90994890D01*
X83169000Y-90869119D01*
X83169000Y-90740881D01*
X83194017Y-90615110D01*
X83243090Y-90496638D01*
X83314335Y-90390012D01*
X83405012Y-90299335D01*
X83511636Y-90228091D01*
X83630110Y-90179017D01*
X83755881Y-90154000D01*
X83884119Y-90154000D01*
X84009890Y-90179017D01*
X84009890Y-90179017D01*
G37*
G36*
X122031000Y-91456000D02*
G01*
X120729000Y-91456000D01*
X120729000Y-90154000D01*
X122031000Y-90154000D01*
X122031000Y-91456000D01*
X122031000Y-91456000D01*
G37*
G36*
X89701000Y-90746000D02*
G01*
X88099000Y-90746000D01*
X88099000Y-89594000D01*
X89701000Y-89594000D01*
X89701000Y-90746000D01*
X89701000Y-90746000D01*
G37*
G36*
X94257395Y-87985546D02*
G01*
X94430466Y-88057234D01*
X94430467Y-88057235D01*
X94586227Y-88161310D01*
X94718690Y-88293773D01*
X94744456Y-88332335D01*
X94822766Y-88449534D01*
X94894454Y-88622605D01*
X94931000Y-88806333D01*
X94931000Y-88993667D01*
X94894454Y-89177395D01*
X94822766Y-89350466D01*
X94822765Y-89350467D01*
X94718690Y-89506227D01*
X94586227Y-89638690D01*
X94507818Y-89691081D01*
X94430466Y-89742766D01*
X94257395Y-89814454D01*
X94073667Y-89851000D01*
X93886333Y-89851000D01*
X93702605Y-89814454D01*
X93529534Y-89742766D01*
X93452182Y-89691081D01*
X93373773Y-89638690D01*
X93241310Y-89506227D01*
X93137235Y-89350467D01*
X93137234Y-89350466D01*
X93065546Y-89177395D01*
X93029000Y-88993667D01*
X93029000Y-88806333D01*
X93065546Y-88622605D01*
X93137234Y-88449534D01*
X93215544Y-88332335D01*
X93241310Y-88293773D01*
X93373773Y-88161310D01*
X93529533Y-88057235D01*
X93529534Y-88057234D01*
X93702605Y-87985546D01*
X93886333Y-87949000D01*
X94073667Y-87949000D01*
X94257395Y-87985546D01*
X94257395Y-87985546D01*
G37*
G36*
X147597395Y-87985546D02*
G01*
X147770466Y-88057234D01*
X147770467Y-88057235D01*
X147926227Y-88161310D01*
X148058690Y-88293773D01*
X148084456Y-88332335D01*
X148162766Y-88449534D01*
X148234454Y-88622605D01*
X148271000Y-88806333D01*
X148271000Y-88993667D01*
X148234454Y-89177395D01*
X148162766Y-89350466D01*
X148162765Y-89350467D01*
X148058690Y-89506227D01*
X147926227Y-89638690D01*
X147847818Y-89691081D01*
X147770466Y-89742766D01*
X147597395Y-89814454D01*
X147413667Y-89851000D01*
X147226333Y-89851000D01*
X147042605Y-89814454D01*
X146869534Y-89742766D01*
X146792182Y-89691081D01*
X146713773Y-89638690D01*
X146581310Y-89506227D01*
X146477235Y-89350467D01*
X146477234Y-89350466D01*
X146405546Y-89177395D01*
X146369000Y-88993667D01*
X146369000Y-88806333D01*
X146405546Y-88622605D01*
X146477234Y-88449534D01*
X146555544Y-88332335D01*
X146581310Y-88293773D01*
X146713773Y-88161310D01*
X146869533Y-88057235D01*
X146869534Y-88057234D01*
X147042605Y-87985546D01*
X147226333Y-87949000D01*
X147413667Y-87949000D01*
X147597395Y-87985546D01*
X147597395Y-87985546D01*
G37*
G36*
X129817395Y-87985546D02*
G01*
X129990466Y-88057234D01*
X129990467Y-88057235D01*
X130146227Y-88161310D01*
X130278690Y-88293773D01*
X130304456Y-88332335D01*
X130382766Y-88449534D01*
X130454454Y-88622605D01*
X130491000Y-88806333D01*
X130491000Y-88993667D01*
X130454454Y-89177395D01*
X130382766Y-89350466D01*
X130382765Y-89350467D01*
X130278690Y-89506227D01*
X130146227Y-89638690D01*
X130067818Y-89691081D01*
X129990466Y-89742766D01*
X129817395Y-89814454D01*
X129633667Y-89851000D01*
X129446333Y-89851000D01*
X129262605Y-89814454D01*
X129089534Y-89742766D01*
X129012182Y-89691081D01*
X128933773Y-89638690D01*
X128801310Y-89506227D01*
X128697235Y-89350467D01*
X128697234Y-89350466D01*
X128625546Y-89177395D01*
X128589000Y-88993667D01*
X128589000Y-88806333D01*
X128625546Y-88622605D01*
X128697234Y-88449534D01*
X128775544Y-88332335D01*
X128801310Y-88293773D01*
X128933773Y-88161310D01*
X129089533Y-88057235D01*
X129089534Y-88057234D01*
X129262605Y-87985546D01*
X129446333Y-87949000D01*
X129633667Y-87949000D01*
X129817395Y-87985546D01*
X129817395Y-87985546D01*
G37*
G36*
X112037395Y-87985546D02*
G01*
X112210466Y-88057234D01*
X112210467Y-88057235D01*
X112366227Y-88161310D01*
X112498690Y-88293773D01*
X112524456Y-88332335D01*
X112602766Y-88449534D01*
X112674454Y-88622605D01*
X112711000Y-88806333D01*
X112711000Y-88993667D01*
X112674454Y-89177395D01*
X112602766Y-89350466D01*
X112602765Y-89350467D01*
X112498690Y-89506227D01*
X112366227Y-89638690D01*
X112287818Y-89691081D01*
X112210466Y-89742766D01*
X112037395Y-89814454D01*
X111853667Y-89851000D01*
X111666333Y-89851000D01*
X111482605Y-89814454D01*
X111309534Y-89742766D01*
X111232182Y-89691081D01*
X111153773Y-89638690D01*
X111021310Y-89506227D01*
X110917235Y-89350467D01*
X110917234Y-89350466D01*
X110845546Y-89177395D01*
X110809000Y-88993667D01*
X110809000Y-88806333D01*
X110845546Y-88622605D01*
X110917234Y-88449534D01*
X110995544Y-88332335D01*
X111021310Y-88293773D01*
X111153773Y-88161310D01*
X111309533Y-88057235D01*
X111309534Y-88057234D01*
X111482605Y-87985546D01*
X111666333Y-87949000D01*
X111853667Y-87949000D01*
X112037395Y-87985546D01*
X112037395Y-87985546D01*
G37*
G36*
X76477395Y-87985546D02*
G01*
X76650466Y-88057234D01*
X76650467Y-88057235D01*
X76806227Y-88161310D01*
X76938690Y-88293773D01*
X76964456Y-88332335D01*
X77042766Y-88449534D01*
X77114454Y-88622605D01*
X77151000Y-88806333D01*
X77151000Y-88993667D01*
X77114454Y-89177395D01*
X77042766Y-89350466D01*
X77042765Y-89350467D01*
X76938690Y-89506227D01*
X76806227Y-89638690D01*
X76727818Y-89691081D01*
X76650466Y-89742766D01*
X76477395Y-89814454D01*
X76293667Y-89851000D01*
X76106333Y-89851000D01*
X75922605Y-89814454D01*
X75749534Y-89742766D01*
X75672182Y-89691081D01*
X75593773Y-89638690D01*
X75461310Y-89506227D01*
X75357235Y-89350467D01*
X75357234Y-89350466D01*
X75285546Y-89177395D01*
X75249000Y-88993667D01*
X75249000Y-88806333D01*
X75285546Y-88622605D01*
X75357234Y-88449534D01*
X75435544Y-88332335D01*
X75461310Y-88293773D01*
X75593773Y-88161310D01*
X75749533Y-88057235D01*
X75749534Y-88057234D01*
X75922605Y-87985546D01*
X76106333Y-87949000D01*
X76293667Y-87949000D01*
X76477395Y-87985546D01*
X76477395Y-87985546D01*
G37*
G36*
X154007916Y-88332334D02*
G01*
X154116492Y-88365271D01*
X154116495Y-88365272D01*
X154152601Y-88384571D01*
X154216557Y-88418756D01*
X154304264Y-88490736D01*
X154376244Y-88578443D01*
X154410429Y-88642399D01*
X154429728Y-88678505D01*
X154429729Y-88678508D01*
X154462666Y-88787084D01*
X154473787Y-88900000D01*
X154462666Y-89012916D01*
X154429729Y-89121492D01*
X154429728Y-89121495D01*
X154410429Y-89157601D01*
X154376244Y-89221557D01*
X154304264Y-89309264D01*
X154216557Y-89381244D01*
X154152601Y-89415429D01*
X154116495Y-89434728D01*
X154116492Y-89434729D01*
X154007916Y-89467666D01*
X153923298Y-89476000D01*
X153416702Y-89476000D01*
X153332084Y-89467666D01*
X153223508Y-89434729D01*
X153223505Y-89434728D01*
X153187399Y-89415429D01*
X153123443Y-89381244D01*
X153035736Y-89309264D01*
X152963756Y-89221557D01*
X152929571Y-89157601D01*
X152910272Y-89121495D01*
X152910271Y-89121492D01*
X152877334Y-89012916D01*
X152866213Y-88900000D01*
X152877334Y-88787084D01*
X152910271Y-88678508D01*
X152910272Y-88678505D01*
X152929571Y-88642399D01*
X152963756Y-88578443D01*
X153035736Y-88490736D01*
X153123443Y-88418756D01*
X153187399Y-88384571D01*
X153223505Y-88365272D01*
X153223508Y-88365271D01*
X153332084Y-88332334D01*
X153416702Y-88324000D01*
X153923298Y-88324000D01*
X154007916Y-88332334D01*
X154007916Y-88332334D01*
G37*
G36*
X105747916Y-88332334D02*
G01*
X105856492Y-88365271D01*
X105856495Y-88365272D01*
X105892601Y-88384571D01*
X105956557Y-88418756D01*
X106044264Y-88490736D01*
X106116244Y-88578443D01*
X106150429Y-88642399D01*
X106169728Y-88678505D01*
X106169729Y-88678508D01*
X106202666Y-88787084D01*
X106213787Y-88900000D01*
X106202666Y-89012916D01*
X106169729Y-89121492D01*
X106169728Y-89121495D01*
X106150429Y-89157601D01*
X106116244Y-89221557D01*
X106044264Y-89309264D01*
X105956557Y-89381244D01*
X105892601Y-89415429D01*
X105856495Y-89434728D01*
X105856492Y-89434729D01*
X105747916Y-89467666D01*
X105663298Y-89476000D01*
X105156702Y-89476000D01*
X105072084Y-89467666D01*
X104963508Y-89434729D01*
X104963505Y-89434728D01*
X104927399Y-89415429D01*
X104863443Y-89381244D01*
X104775736Y-89309264D01*
X104703756Y-89221557D01*
X104669571Y-89157601D01*
X104650272Y-89121495D01*
X104650271Y-89121492D01*
X104617334Y-89012916D01*
X104606213Y-88900000D01*
X104617334Y-88787084D01*
X104650271Y-88678508D01*
X104650272Y-88678505D01*
X104669571Y-88642399D01*
X104703756Y-88578443D01*
X104775736Y-88490736D01*
X104863443Y-88418756D01*
X104927399Y-88384571D01*
X104963505Y-88365272D01*
X104963508Y-88365271D01*
X105072084Y-88332334D01*
X105156702Y-88324000D01*
X105663298Y-88324000D01*
X105747916Y-88332334D01*
X105747916Y-88332334D01*
G37*
G36*
X70187916Y-88332334D02*
G01*
X70296492Y-88365271D01*
X70296495Y-88365272D01*
X70332601Y-88384571D01*
X70396557Y-88418756D01*
X70484264Y-88490736D01*
X70556244Y-88578443D01*
X70590429Y-88642399D01*
X70609728Y-88678505D01*
X70609729Y-88678508D01*
X70642666Y-88787084D01*
X70653787Y-88900000D01*
X70642666Y-89012916D01*
X70609729Y-89121492D01*
X70609728Y-89121495D01*
X70590429Y-89157601D01*
X70556244Y-89221557D01*
X70484264Y-89309264D01*
X70396557Y-89381244D01*
X70332601Y-89415429D01*
X70296495Y-89434728D01*
X70296492Y-89434729D01*
X70187916Y-89467666D01*
X70103298Y-89476000D01*
X69596702Y-89476000D01*
X69512084Y-89467666D01*
X69403508Y-89434729D01*
X69403505Y-89434728D01*
X69367399Y-89415429D01*
X69303443Y-89381244D01*
X69215736Y-89309264D01*
X69143756Y-89221557D01*
X69109571Y-89157601D01*
X69090272Y-89121495D01*
X69090271Y-89121492D01*
X69057334Y-89012916D01*
X69046213Y-88900000D01*
X69057334Y-88787084D01*
X69090271Y-88678508D01*
X69090272Y-88678505D01*
X69109571Y-88642399D01*
X69143756Y-88578443D01*
X69215736Y-88490736D01*
X69303443Y-88418756D01*
X69367399Y-88384571D01*
X69403505Y-88365272D01*
X69403508Y-88365271D01*
X69512084Y-88332334D01*
X69596702Y-88324000D01*
X70103298Y-88324000D01*
X70187916Y-88332334D01*
X70187916Y-88332334D01*
G37*
G36*
X89237916Y-87062334D02*
G01*
X89346492Y-87095271D01*
X89346495Y-87095272D01*
X89382601Y-87114571D01*
X89446557Y-87148756D01*
X89534264Y-87220736D01*
X89606244Y-87308443D01*
X89640429Y-87372399D01*
X89659728Y-87408505D01*
X89659729Y-87408508D01*
X89692666Y-87517084D01*
X89703787Y-87630000D01*
X89692666Y-87742916D01*
X89659729Y-87851492D01*
X89659728Y-87851495D01*
X89640429Y-87887601D01*
X89606244Y-87951557D01*
X89534264Y-88039264D01*
X89446557Y-88111244D01*
X89382601Y-88145429D01*
X89346495Y-88164728D01*
X89346492Y-88164729D01*
X89237916Y-88197666D01*
X89153298Y-88206000D01*
X88646702Y-88206000D01*
X88562084Y-88197666D01*
X88453508Y-88164729D01*
X88453505Y-88164728D01*
X88417399Y-88145429D01*
X88353443Y-88111244D01*
X88265736Y-88039264D01*
X88193756Y-87951557D01*
X88159571Y-87887601D01*
X88140272Y-87851495D01*
X88140271Y-87851492D01*
X88107334Y-87742916D01*
X88096213Y-87630000D01*
X88107334Y-87517084D01*
X88140271Y-87408508D01*
X88140272Y-87408505D01*
X88159571Y-87372399D01*
X88193756Y-87308443D01*
X88265736Y-87220736D01*
X88353443Y-87148756D01*
X88417399Y-87114571D01*
X88453505Y-87095272D01*
X88453508Y-87095271D01*
X88562084Y-87062334D01*
X88646702Y-87054000D01*
X89153298Y-87054000D01*
X89237916Y-87062334D01*
X89237916Y-87062334D01*
G37*
G36*
X130491000Y-87311000D02*
G01*
X128589000Y-87311000D01*
X128589000Y-85409000D01*
X130491000Y-85409000D01*
X130491000Y-87311000D01*
X130491000Y-87311000D01*
G37*
G36*
X112711000Y-87311000D02*
G01*
X110809000Y-87311000D01*
X110809000Y-85409000D01*
X112711000Y-85409000D01*
X112711000Y-87311000D01*
X112711000Y-87311000D01*
G37*
G36*
X94931000Y-87311000D02*
G01*
X93029000Y-87311000D01*
X93029000Y-85409000D01*
X94931000Y-85409000D01*
X94931000Y-87311000D01*
X94931000Y-87311000D01*
G37*
G36*
X77151000Y-87311000D02*
G01*
X75249000Y-87311000D01*
X75249000Y-85409000D01*
X77151000Y-85409000D01*
X77151000Y-87311000D01*
X77151000Y-87311000D01*
G37*
G36*
X148271000Y-87311000D02*
G01*
X146369000Y-87311000D01*
X146369000Y-85409000D01*
X148271000Y-85409000D01*
X148271000Y-87311000D01*
X148271000Y-87311000D01*
G37*
G36*
X70651000Y-86936000D02*
G01*
X69049000Y-86936000D01*
X69049000Y-85784000D01*
X70651000Y-85784000D01*
X70651000Y-86936000D01*
X70651000Y-86936000D01*
G37*
G36*
X106211000Y-86936000D02*
G01*
X104609000Y-86936000D01*
X104609000Y-85784000D01*
X106211000Y-85784000D01*
X106211000Y-86936000D01*
X106211000Y-86936000D01*
G37*
G36*
X154471000Y-86936000D02*
G01*
X152869000Y-86936000D01*
X152869000Y-85784000D01*
X154471000Y-85784000D01*
X154471000Y-86936000D01*
X154471000Y-86936000D01*
G37*
G36*
X122032916Y-84932334D02*
G01*
X122141492Y-84965271D01*
X122141495Y-84965272D01*
X122177601Y-84984571D01*
X122241557Y-85018756D01*
X122329264Y-85090736D01*
X122401244Y-85178443D01*
X122435429Y-85242399D01*
X122454728Y-85278505D01*
X122454729Y-85278508D01*
X122487666Y-85387084D01*
X122496000Y-85471703D01*
X122496000Y-85978298D01*
X122487666Y-86062916D01*
X122454729Y-86171491D01*
X122454728Y-86171495D01*
X122435429Y-86207601D01*
X122401244Y-86271557D01*
X122329264Y-86359264D01*
X122241556Y-86431244D01*
X122177600Y-86465429D01*
X122141494Y-86484728D01*
X122141491Y-86484729D01*
X122032915Y-86517666D01*
X121920000Y-86528787D01*
X121807084Y-86517666D01*
X121698508Y-86484729D01*
X121698505Y-86484728D01*
X121662399Y-86465429D01*
X121598443Y-86431244D01*
X121510736Y-86359264D01*
X121438756Y-86271556D01*
X121385273Y-86171495D01*
X121385272Y-86171494D01*
X121385271Y-86171491D01*
X121352334Y-86062915D01*
X121344000Y-85978297D01*
X121344000Y-85471702D01*
X121352334Y-85387084D01*
X121385271Y-85278508D01*
X121385272Y-85278505D01*
X121438756Y-85178445D01*
X121438757Y-85178443D01*
X121510737Y-85090736D01*
X121598444Y-85018756D01*
X121662400Y-84984571D01*
X121698506Y-84965272D01*
X121698509Y-84965271D01*
X121807085Y-84932334D01*
X121920000Y-84921213D01*
X122032916Y-84932334D01*
X122032916Y-84932334D01*
G37*
G36*
X125036000Y-86526000D02*
G01*
X123884000Y-86526000D01*
X123884000Y-84924000D01*
X125036000Y-84924000D01*
X125036000Y-86526000D01*
X125036000Y-86526000D01*
G37*
G36*
X85011000Y-86376000D02*
G01*
X83709000Y-86376000D01*
X83709000Y-85074000D01*
X85011000Y-85074000D01*
X85011000Y-86376000D01*
X85011000Y-86376000D01*
G37*
G36*
X139848258Y-85090736D02*
G01*
X139889890Y-85099017D01*
X140008364Y-85148091D01*
X140114988Y-85219335D01*
X140205665Y-85310012D01*
X140271807Y-85409000D01*
X140276910Y-85416638D01*
X140325983Y-85535110D01*
X140351000Y-85660881D01*
X140351000Y-85789119D01*
X140325983Y-85914890D01*
X140299723Y-85978288D01*
X140276909Y-86033364D01*
X140205665Y-86139988D01*
X140114988Y-86230665D01*
X140008364Y-86301909D01*
X140008363Y-86301910D01*
X140008362Y-86301910D01*
X139889890Y-86350983D01*
X139764119Y-86376000D01*
X139635881Y-86376000D01*
X139510110Y-86350983D01*
X139391638Y-86301910D01*
X139391637Y-86301910D01*
X139391636Y-86301909D01*
X139285012Y-86230665D01*
X139194335Y-86139988D01*
X139123091Y-86033364D01*
X139100278Y-85978288D01*
X139074017Y-85914890D01*
X139049000Y-85789119D01*
X139049000Y-85660881D01*
X139074017Y-85535110D01*
X139123090Y-85416638D01*
X139128194Y-85409000D01*
X139194335Y-85310012D01*
X139285012Y-85219335D01*
X139391636Y-85148091D01*
X139510110Y-85099017D01*
X139551742Y-85090736D01*
X139635881Y-85074000D01*
X139764119Y-85074000D01*
X139848258Y-85090736D01*
X139848258Y-85090736D01*
G37*
G36*
X138351000Y-86376000D02*
G01*
X137049000Y-86376000D01*
X137049000Y-85074000D01*
X138351000Y-85074000D01*
X138351000Y-86376000D01*
X138351000Y-86376000D01*
G37*
G36*
X86508258Y-85090736D02*
G01*
X86549890Y-85099017D01*
X86668364Y-85148091D01*
X86774988Y-85219335D01*
X86865665Y-85310012D01*
X86931807Y-85409000D01*
X86936910Y-85416638D01*
X86985983Y-85535110D01*
X87011000Y-85660881D01*
X87011000Y-85789119D01*
X86985983Y-85914890D01*
X86959723Y-85978288D01*
X86936909Y-86033364D01*
X86865665Y-86139988D01*
X86774988Y-86230665D01*
X86668364Y-86301909D01*
X86668363Y-86301910D01*
X86668362Y-86301910D01*
X86549890Y-86350983D01*
X86424119Y-86376000D01*
X86295881Y-86376000D01*
X86170110Y-86350983D01*
X86051638Y-86301910D01*
X86051637Y-86301910D01*
X86051636Y-86301909D01*
X85945012Y-86230665D01*
X85854335Y-86139988D01*
X85783091Y-86033364D01*
X85760278Y-85978288D01*
X85734017Y-85914890D01*
X85709000Y-85789119D01*
X85709000Y-85660881D01*
X85734017Y-85535110D01*
X85783090Y-85416638D01*
X85788194Y-85409000D01*
X85854335Y-85310012D01*
X85945012Y-85219335D01*
X86051636Y-85148091D01*
X86170110Y-85099017D01*
X86211742Y-85090736D01*
X86295881Y-85074000D01*
X86424119Y-85074000D01*
X86508258Y-85090736D01*
X86508258Y-85090736D01*
G37*
G36*
X94257395Y-81635546D02*
G01*
X94430466Y-81707234D01*
X94436572Y-81711314D01*
X94586227Y-81811310D01*
X94718690Y-81943773D01*
X94761284Y-82007520D01*
X94822766Y-82099534D01*
X94894454Y-82272605D01*
X94931000Y-82456333D01*
X94931000Y-82643667D01*
X94894454Y-82827395D01*
X94822766Y-83000466D01*
X94791502Y-83047256D01*
X94718690Y-83156227D01*
X94586227Y-83288690D01*
X94563092Y-83304148D01*
X94430466Y-83392766D01*
X94257395Y-83464454D01*
X94073667Y-83501000D01*
X93886333Y-83501000D01*
X93702605Y-83464454D01*
X93529534Y-83392766D01*
X93396908Y-83304148D01*
X93373773Y-83288690D01*
X93241310Y-83156227D01*
X93168498Y-83047256D01*
X93137234Y-83000466D01*
X93065546Y-82827395D01*
X93029000Y-82643667D01*
X93029000Y-82456333D01*
X93065546Y-82272605D01*
X93137234Y-82099534D01*
X93198716Y-82007520D01*
X93241310Y-81943773D01*
X93373773Y-81811310D01*
X93523428Y-81711314D01*
X93529534Y-81707234D01*
X93702605Y-81635546D01*
X93886333Y-81599000D01*
X94073667Y-81599000D01*
X94257395Y-81635546D01*
X94257395Y-81635546D01*
G37*
G36*
X110211000Y-83501000D02*
G01*
X108309000Y-83501000D01*
X108309000Y-81599000D01*
X110211000Y-81599000D01*
X110211000Y-83501000D01*
X110211000Y-83501000D01*
G37*
G36*
X92431000Y-83501000D02*
G01*
X90529000Y-83501000D01*
X90529000Y-81599000D01*
X92431000Y-81599000D01*
X92431000Y-83501000D01*
X92431000Y-83501000D01*
G37*
G36*
X78977395Y-81635546D02*
G01*
X79150466Y-81707234D01*
X79156572Y-81711314D01*
X79306227Y-81811310D01*
X79438690Y-81943773D01*
X79481284Y-82007520D01*
X79542766Y-82099534D01*
X79614454Y-82272605D01*
X79651000Y-82456333D01*
X79651000Y-82643667D01*
X79614454Y-82827395D01*
X79542766Y-83000466D01*
X79511502Y-83047256D01*
X79438690Y-83156227D01*
X79306227Y-83288690D01*
X79283092Y-83304148D01*
X79150466Y-83392766D01*
X78977395Y-83464454D01*
X78793667Y-83501000D01*
X78606333Y-83501000D01*
X78422605Y-83464454D01*
X78249534Y-83392766D01*
X78116908Y-83304148D01*
X78093773Y-83288690D01*
X77961310Y-83156227D01*
X77888498Y-83047256D01*
X77857234Y-83000466D01*
X77785546Y-82827395D01*
X77749000Y-82643667D01*
X77749000Y-82456333D01*
X77785546Y-82272605D01*
X77857234Y-82099534D01*
X77918716Y-82007520D01*
X77961310Y-81943773D01*
X78093773Y-81811310D01*
X78243428Y-81711314D01*
X78249534Y-81707234D01*
X78422605Y-81635546D01*
X78606333Y-81599000D01*
X78793667Y-81599000D01*
X78977395Y-81635546D01*
X78977395Y-81635546D01*
G37*
G36*
X76477395Y-81635546D02*
G01*
X76650466Y-81707234D01*
X76656572Y-81711314D01*
X76806227Y-81811310D01*
X76938690Y-81943773D01*
X76981284Y-82007520D01*
X77042766Y-82099534D01*
X77114454Y-82272605D01*
X77151000Y-82456333D01*
X77151000Y-82643667D01*
X77114454Y-82827395D01*
X77042766Y-83000466D01*
X77011502Y-83047256D01*
X76938690Y-83156227D01*
X76806227Y-83288690D01*
X76783092Y-83304148D01*
X76650466Y-83392766D01*
X76477395Y-83464454D01*
X76293667Y-83501000D01*
X76106333Y-83501000D01*
X75922605Y-83464454D01*
X75749534Y-83392766D01*
X75616908Y-83304148D01*
X75593773Y-83288690D01*
X75461310Y-83156227D01*
X75388498Y-83047256D01*
X75357234Y-83000466D01*
X75285546Y-82827395D01*
X75249000Y-82643667D01*
X75249000Y-82456333D01*
X75285546Y-82272605D01*
X75357234Y-82099534D01*
X75418716Y-82007520D01*
X75461310Y-81943773D01*
X75593773Y-81811310D01*
X75743428Y-81711314D01*
X75749534Y-81707234D01*
X75922605Y-81635546D01*
X76106333Y-81599000D01*
X76293667Y-81599000D01*
X76477395Y-81635546D01*
X76477395Y-81635546D01*
G37*
G36*
X74651000Y-83501000D02*
G01*
X72749000Y-83501000D01*
X72749000Y-81599000D01*
X74651000Y-81599000D01*
X74651000Y-83501000D01*
X74651000Y-83501000D01*
G37*
G36*
X150097395Y-81635546D02*
G01*
X150270466Y-81707234D01*
X150276572Y-81711314D01*
X150426227Y-81811310D01*
X150558690Y-81943773D01*
X150601284Y-82007520D01*
X150662766Y-82099534D01*
X150734454Y-82272605D01*
X150771000Y-82456333D01*
X150771000Y-82643667D01*
X150734454Y-82827395D01*
X150662766Y-83000466D01*
X150631502Y-83047256D01*
X150558690Y-83156227D01*
X150426227Y-83288690D01*
X150403092Y-83304148D01*
X150270466Y-83392766D01*
X150097395Y-83464454D01*
X149913667Y-83501000D01*
X149726333Y-83501000D01*
X149542605Y-83464454D01*
X149369534Y-83392766D01*
X149236908Y-83304148D01*
X149213773Y-83288690D01*
X149081310Y-83156227D01*
X149008498Y-83047256D01*
X148977234Y-83000466D01*
X148905546Y-82827395D01*
X148869000Y-82643667D01*
X148869000Y-82456333D01*
X148905546Y-82272605D01*
X148977234Y-82099534D01*
X149038716Y-82007520D01*
X149081310Y-81943773D01*
X149213773Y-81811310D01*
X149363428Y-81711314D01*
X149369534Y-81707234D01*
X149542605Y-81635546D01*
X149726333Y-81599000D01*
X149913667Y-81599000D01*
X150097395Y-81635546D01*
X150097395Y-81635546D01*
G37*
G36*
X96757395Y-81635546D02*
G01*
X96930466Y-81707234D01*
X96936572Y-81711314D01*
X97086227Y-81811310D01*
X97218690Y-81943773D01*
X97261284Y-82007520D01*
X97322766Y-82099534D01*
X97394454Y-82272605D01*
X97431000Y-82456333D01*
X97431000Y-82643667D01*
X97394454Y-82827395D01*
X97322766Y-83000466D01*
X97291502Y-83047256D01*
X97218690Y-83156227D01*
X97086227Y-83288690D01*
X97063092Y-83304148D01*
X96930466Y-83392766D01*
X96757395Y-83464454D01*
X96573667Y-83501000D01*
X96386333Y-83501000D01*
X96202605Y-83464454D01*
X96029534Y-83392766D01*
X95896908Y-83304148D01*
X95873773Y-83288690D01*
X95741310Y-83156227D01*
X95668498Y-83047256D01*
X95637234Y-83000466D01*
X95565546Y-82827395D01*
X95529000Y-82643667D01*
X95529000Y-82456333D01*
X95565546Y-82272605D01*
X95637234Y-82099534D01*
X95698716Y-82007520D01*
X95741310Y-81943773D01*
X95873773Y-81811310D01*
X96023428Y-81711314D01*
X96029534Y-81707234D01*
X96202605Y-81635546D01*
X96386333Y-81599000D01*
X96573667Y-81599000D01*
X96757395Y-81635546D01*
X96757395Y-81635546D01*
G37*
G36*
X147597395Y-81635546D02*
G01*
X147770466Y-81707234D01*
X147776572Y-81711314D01*
X147926227Y-81811310D01*
X148058690Y-81943773D01*
X148101284Y-82007520D01*
X148162766Y-82099534D01*
X148234454Y-82272605D01*
X148271000Y-82456333D01*
X148271000Y-82643667D01*
X148234454Y-82827395D01*
X148162766Y-83000466D01*
X148131502Y-83047256D01*
X148058690Y-83156227D01*
X147926227Y-83288690D01*
X147903092Y-83304148D01*
X147770466Y-83392766D01*
X147597395Y-83464454D01*
X147413667Y-83501000D01*
X147226333Y-83501000D01*
X147042605Y-83464454D01*
X146869534Y-83392766D01*
X146736908Y-83304148D01*
X146713773Y-83288690D01*
X146581310Y-83156227D01*
X146508498Y-83047256D01*
X146477234Y-83000466D01*
X146405546Y-82827395D01*
X146369000Y-82643667D01*
X146369000Y-82456333D01*
X146405546Y-82272605D01*
X146477234Y-82099534D01*
X146538716Y-82007520D01*
X146581310Y-81943773D01*
X146713773Y-81811310D01*
X146863428Y-81711314D01*
X146869534Y-81707234D01*
X147042605Y-81635546D01*
X147226333Y-81599000D01*
X147413667Y-81599000D01*
X147597395Y-81635546D01*
X147597395Y-81635546D01*
G37*
G36*
X145771000Y-83501000D02*
G01*
X143869000Y-83501000D01*
X143869000Y-81599000D01*
X145771000Y-81599000D01*
X145771000Y-83501000D01*
X145771000Y-83501000D01*
G37*
G36*
X132317395Y-81635546D02*
G01*
X132490466Y-81707234D01*
X132496572Y-81711314D01*
X132646227Y-81811310D01*
X132778690Y-81943773D01*
X132821284Y-82007520D01*
X132882766Y-82099534D01*
X132954454Y-82272605D01*
X132991000Y-82456333D01*
X132991000Y-82643667D01*
X132954454Y-82827395D01*
X132882766Y-83000466D01*
X132851502Y-83047256D01*
X132778690Y-83156227D01*
X132646227Y-83288690D01*
X132623092Y-83304148D01*
X132490466Y-83392766D01*
X132317395Y-83464454D01*
X132133667Y-83501000D01*
X131946333Y-83501000D01*
X131762605Y-83464454D01*
X131589534Y-83392766D01*
X131456908Y-83304148D01*
X131433773Y-83288690D01*
X131301310Y-83156227D01*
X131228498Y-83047256D01*
X131197234Y-83000466D01*
X131125546Y-82827395D01*
X131089000Y-82643667D01*
X131089000Y-82456333D01*
X131125546Y-82272605D01*
X131197234Y-82099534D01*
X131258716Y-82007520D01*
X131301310Y-81943773D01*
X131433773Y-81811310D01*
X131583428Y-81711314D01*
X131589534Y-81707234D01*
X131762605Y-81635546D01*
X131946333Y-81599000D01*
X132133667Y-81599000D01*
X132317395Y-81635546D01*
X132317395Y-81635546D01*
G37*
G36*
X114537395Y-81635546D02*
G01*
X114710466Y-81707234D01*
X114716572Y-81711314D01*
X114866227Y-81811310D01*
X114998690Y-81943773D01*
X115041284Y-82007520D01*
X115102766Y-82099534D01*
X115174454Y-82272605D01*
X115211000Y-82456333D01*
X115211000Y-82643667D01*
X115174454Y-82827395D01*
X115102766Y-83000466D01*
X115071502Y-83047256D01*
X114998690Y-83156227D01*
X114866227Y-83288690D01*
X114843092Y-83304148D01*
X114710466Y-83392766D01*
X114537395Y-83464454D01*
X114353667Y-83501000D01*
X114166333Y-83501000D01*
X113982605Y-83464454D01*
X113809534Y-83392766D01*
X113676908Y-83304148D01*
X113653773Y-83288690D01*
X113521310Y-83156227D01*
X113448498Y-83047256D01*
X113417234Y-83000466D01*
X113345546Y-82827395D01*
X113309000Y-82643667D01*
X113309000Y-82456333D01*
X113345546Y-82272605D01*
X113417234Y-82099534D01*
X113478716Y-82007520D01*
X113521310Y-81943773D01*
X113653773Y-81811310D01*
X113803428Y-81711314D01*
X113809534Y-81707234D01*
X113982605Y-81635546D01*
X114166333Y-81599000D01*
X114353667Y-81599000D01*
X114537395Y-81635546D01*
X114537395Y-81635546D01*
G37*
G36*
X129817395Y-81635546D02*
G01*
X129990466Y-81707234D01*
X129996572Y-81711314D01*
X130146227Y-81811310D01*
X130278690Y-81943773D01*
X130321284Y-82007520D01*
X130382766Y-82099534D01*
X130454454Y-82272605D01*
X130491000Y-82456333D01*
X130491000Y-82643667D01*
X130454454Y-82827395D01*
X130382766Y-83000466D01*
X130351502Y-83047256D01*
X130278690Y-83156227D01*
X130146227Y-83288690D01*
X130123092Y-83304148D01*
X129990466Y-83392766D01*
X129817395Y-83464454D01*
X129633667Y-83501000D01*
X129446333Y-83501000D01*
X129262605Y-83464454D01*
X129089534Y-83392766D01*
X128956908Y-83304148D01*
X128933773Y-83288690D01*
X128801310Y-83156227D01*
X128728498Y-83047256D01*
X128697234Y-83000466D01*
X128625546Y-82827395D01*
X128589000Y-82643667D01*
X128589000Y-82456333D01*
X128625546Y-82272605D01*
X128697234Y-82099534D01*
X128758716Y-82007520D01*
X128801310Y-81943773D01*
X128933773Y-81811310D01*
X129083428Y-81711314D01*
X129089534Y-81707234D01*
X129262605Y-81635546D01*
X129446333Y-81599000D01*
X129633667Y-81599000D01*
X129817395Y-81635546D01*
X129817395Y-81635546D01*
G37*
G36*
X127991000Y-83501000D02*
G01*
X126089000Y-83501000D01*
X126089000Y-81599000D01*
X127991000Y-81599000D01*
X127991000Y-83501000D01*
X127991000Y-83501000D01*
G37*
G36*
X112037395Y-81635546D02*
G01*
X112210466Y-81707234D01*
X112216572Y-81711314D01*
X112366227Y-81811310D01*
X112498690Y-81943773D01*
X112541284Y-82007520D01*
X112602766Y-82099534D01*
X112674454Y-82272605D01*
X112711000Y-82456333D01*
X112711000Y-82643667D01*
X112674454Y-82827395D01*
X112602766Y-83000466D01*
X112571502Y-83047256D01*
X112498690Y-83156227D01*
X112366227Y-83288690D01*
X112343092Y-83304148D01*
X112210466Y-83392766D01*
X112037395Y-83464454D01*
X111853667Y-83501000D01*
X111666333Y-83501000D01*
X111482605Y-83464454D01*
X111309534Y-83392766D01*
X111176908Y-83304148D01*
X111153773Y-83288690D01*
X111021310Y-83156227D01*
X110948498Y-83047256D01*
X110917234Y-83000466D01*
X110845546Y-82827395D01*
X110809000Y-82643667D01*
X110809000Y-82456333D01*
X110845546Y-82272605D01*
X110917234Y-82099534D01*
X110978716Y-82007520D01*
X111021310Y-81943773D01*
X111153773Y-81811310D01*
X111303428Y-81711314D01*
X111309534Y-81707234D01*
X111482605Y-81635546D01*
X111666333Y-81599000D01*
X111853667Y-81599000D01*
X112037395Y-81635546D01*
X112037395Y-81635546D01*
G37*
G36*
X84068228Y-81731703D02*
G01*
X84223100Y-81795853D01*
X84362481Y-81888985D01*
X84481015Y-82007519D01*
X84574147Y-82146900D01*
X84638297Y-82301772D01*
X84671000Y-82466184D01*
X84671000Y-82633816D01*
X84638297Y-82798228D01*
X84574147Y-82953100D01*
X84481015Y-83092481D01*
X84362481Y-83211015D01*
X84223100Y-83304147D01*
X84068228Y-83368297D01*
X83903816Y-83401000D01*
X83736184Y-83401000D01*
X83571772Y-83368297D01*
X83416900Y-83304147D01*
X83277519Y-83211015D01*
X83158985Y-83092481D01*
X83065853Y-82953100D01*
X83001703Y-82798228D01*
X82969000Y-82633816D01*
X82969000Y-82466184D01*
X83001703Y-82301772D01*
X83065853Y-82146900D01*
X83158985Y-82007519D01*
X83277519Y-81888985D01*
X83416900Y-81795853D01*
X83571772Y-81731703D01*
X83736184Y-81699000D01*
X83903816Y-81699000D01*
X84068228Y-81731703D01*
X84068228Y-81731703D01*
G37*
G36*
X119628228Y-81731703D02*
G01*
X119783100Y-81795853D01*
X119922481Y-81888985D01*
X120041015Y-82007519D01*
X120134147Y-82146900D01*
X120198297Y-82301772D01*
X120231000Y-82466184D01*
X120231000Y-82633816D01*
X120198297Y-82798228D01*
X120134147Y-82953100D01*
X120041015Y-83092481D01*
X119922481Y-83211015D01*
X119783100Y-83304147D01*
X119628228Y-83368297D01*
X119463816Y-83401000D01*
X119296184Y-83401000D01*
X119131772Y-83368297D01*
X118976900Y-83304147D01*
X118837519Y-83211015D01*
X118718985Y-83092481D01*
X118625853Y-82953100D01*
X118561703Y-82798228D01*
X118529000Y-82633816D01*
X118529000Y-82466184D01*
X118561703Y-82301772D01*
X118625853Y-82146900D01*
X118718985Y-82007519D01*
X118837519Y-81888985D01*
X118976900Y-81795853D01*
X119131772Y-81731703D01*
X119296184Y-81699000D01*
X119463816Y-81699000D01*
X119628228Y-81731703D01*
X119628228Y-81731703D01*
G37*
G36*
X122086823Y-81711313D02*
G01*
X122247242Y-81759976D01*
X122314361Y-81795852D01*
X122395078Y-81838996D01*
X122524659Y-81945341D01*
X122631004Y-82074922D01*
X122631005Y-82074924D01*
X122710024Y-82222758D01*
X122758687Y-82383177D01*
X122775117Y-82550000D01*
X122758687Y-82716823D01*
X122710024Y-82877242D01*
X122669477Y-82953100D01*
X122631004Y-83025078D01*
X122524659Y-83154659D01*
X122395078Y-83261004D01*
X122395076Y-83261005D01*
X122247242Y-83340024D01*
X122086823Y-83388687D01*
X121961804Y-83401000D01*
X121878196Y-83401000D01*
X121753177Y-83388687D01*
X121592758Y-83340024D01*
X121444924Y-83261005D01*
X121444922Y-83261004D01*
X121315341Y-83154659D01*
X121208996Y-83025078D01*
X121170523Y-82953100D01*
X121129976Y-82877242D01*
X121081313Y-82716823D01*
X121064883Y-82550000D01*
X121081313Y-82383177D01*
X121129976Y-82222758D01*
X121208995Y-82074924D01*
X121208996Y-82074922D01*
X121315341Y-81945341D01*
X121444922Y-81838996D01*
X121525639Y-81795852D01*
X121592758Y-81759976D01*
X121753177Y-81711313D01*
X121878196Y-81699000D01*
X121961804Y-81699000D01*
X122086823Y-81711313D01*
X122086823Y-81711313D01*
G37*
G36*
X139866823Y-81711313D02*
G01*
X140027242Y-81759976D01*
X140094361Y-81795852D01*
X140175078Y-81838996D01*
X140304659Y-81945341D01*
X140411004Y-82074922D01*
X140411005Y-82074924D01*
X140490024Y-82222758D01*
X140538687Y-82383177D01*
X140555117Y-82550000D01*
X140538687Y-82716823D01*
X140490024Y-82877242D01*
X140449477Y-82953100D01*
X140411004Y-83025078D01*
X140304659Y-83154659D01*
X140175078Y-83261004D01*
X140175076Y-83261005D01*
X140027242Y-83340024D01*
X139866823Y-83388687D01*
X139741804Y-83401000D01*
X139658196Y-83401000D01*
X139533177Y-83388687D01*
X139372758Y-83340024D01*
X139224924Y-83261005D01*
X139224922Y-83261004D01*
X139095341Y-83154659D01*
X138988996Y-83025078D01*
X138950523Y-82953100D01*
X138909976Y-82877242D01*
X138861313Y-82716823D01*
X138844883Y-82550000D01*
X138861313Y-82383177D01*
X138909976Y-82222758D01*
X138988995Y-82074924D01*
X138988996Y-82074922D01*
X139095341Y-81945341D01*
X139224922Y-81838996D01*
X139305639Y-81795852D01*
X139372758Y-81759976D01*
X139533177Y-81711313D01*
X139658196Y-81699000D01*
X139741804Y-81699000D01*
X139866823Y-81711313D01*
X139866823Y-81711313D01*
G37*
G36*
X68746823Y-81711313D02*
G01*
X68907242Y-81759976D01*
X68974361Y-81795852D01*
X69055078Y-81838996D01*
X69184659Y-81945341D01*
X69291004Y-82074922D01*
X69291005Y-82074924D01*
X69370024Y-82222758D01*
X69418687Y-82383177D01*
X69435117Y-82550000D01*
X69418687Y-82716823D01*
X69370024Y-82877242D01*
X69329477Y-82953100D01*
X69291004Y-83025078D01*
X69184659Y-83154659D01*
X69055078Y-83261004D01*
X69055076Y-83261005D01*
X68907242Y-83340024D01*
X68746823Y-83388687D01*
X68621804Y-83401000D01*
X68538196Y-83401000D01*
X68413177Y-83388687D01*
X68252758Y-83340024D01*
X68104924Y-83261005D01*
X68104922Y-83261004D01*
X67975341Y-83154659D01*
X67868996Y-83025078D01*
X67830523Y-82953100D01*
X67789976Y-82877242D01*
X67741313Y-82716823D01*
X67724883Y-82550000D01*
X67741313Y-82383177D01*
X67789976Y-82222758D01*
X67868995Y-82074924D01*
X67868996Y-82074922D01*
X67975341Y-81945341D01*
X68104922Y-81838996D01*
X68185639Y-81795852D01*
X68252758Y-81759976D01*
X68413177Y-81711313D01*
X68538196Y-81699000D01*
X68621804Y-81699000D01*
X68746823Y-81711313D01*
X68746823Y-81711313D01*
G37*
G36*
X155188228Y-81731703D02*
G01*
X155343100Y-81795853D01*
X155482481Y-81888985D01*
X155601015Y-82007519D01*
X155694147Y-82146900D01*
X155758297Y-82301772D01*
X155791000Y-82466184D01*
X155791000Y-82633816D01*
X155758297Y-82798228D01*
X155694147Y-82953100D01*
X155601015Y-83092481D01*
X155482481Y-83211015D01*
X155343100Y-83304147D01*
X155188228Y-83368297D01*
X155023816Y-83401000D01*
X154856184Y-83401000D01*
X154691772Y-83368297D01*
X154536900Y-83304147D01*
X154397519Y-83211015D01*
X154278985Y-83092481D01*
X154185853Y-82953100D01*
X154121703Y-82798228D01*
X154089000Y-82633816D01*
X154089000Y-82466184D01*
X154121703Y-82301772D01*
X154185853Y-82146900D01*
X154278985Y-82007519D01*
X154397519Y-81888985D01*
X154536900Y-81795853D01*
X154691772Y-81731703D01*
X154856184Y-81699000D01*
X155023816Y-81699000D01*
X155188228Y-81731703D01*
X155188228Y-81731703D01*
G37*
G36*
X86526823Y-81711313D02*
G01*
X86687242Y-81759976D01*
X86754361Y-81795852D01*
X86835078Y-81838996D01*
X86964659Y-81945341D01*
X87071004Y-82074922D01*
X87071005Y-82074924D01*
X87150024Y-82222758D01*
X87198687Y-82383177D01*
X87215117Y-82550000D01*
X87198687Y-82716823D01*
X87150024Y-82877242D01*
X87109477Y-82953100D01*
X87071004Y-83025078D01*
X86964659Y-83154659D01*
X86835078Y-83261004D01*
X86835076Y-83261005D01*
X86687242Y-83340024D01*
X86526823Y-83388687D01*
X86401804Y-83401000D01*
X86318196Y-83401000D01*
X86193177Y-83388687D01*
X86032758Y-83340024D01*
X85884924Y-83261005D01*
X85884922Y-83261004D01*
X85755341Y-83154659D01*
X85648996Y-83025078D01*
X85610523Y-82953100D01*
X85569976Y-82877242D01*
X85521313Y-82716823D01*
X85504883Y-82550000D01*
X85521313Y-82383177D01*
X85569976Y-82222758D01*
X85648995Y-82074924D01*
X85648996Y-82074922D01*
X85755341Y-81945341D01*
X85884922Y-81838996D01*
X85965639Y-81795852D01*
X86032758Y-81759976D01*
X86193177Y-81711313D01*
X86318196Y-81699000D01*
X86401804Y-81699000D01*
X86526823Y-81711313D01*
X86526823Y-81711313D01*
G37*
G36*
X104306823Y-81711313D02*
G01*
X104467242Y-81759976D01*
X104534361Y-81795852D01*
X104615078Y-81838996D01*
X104744659Y-81945341D01*
X104851004Y-82074922D01*
X104851005Y-82074924D01*
X104930024Y-82222758D01*
X104978687Y-82383177D01*
X104995117Y-82550000D01*
X104978687Y-82716823D01*
X104930024Y-82877242D01*
X104889477Y-82953100D01*
X104851004Y-83025078D01*
X104744659Y-83154659D01*
X104615078Y-83261004D01*
X104615076Y-83261005D01*
X104467242Y-83340024D01*
X104306823Y-83388687D01*
X104181804Y-83401000D01*
X104098196Y-83401000D01*
X103973177Y-83388687D01*
X103812758Y-83340024D01*
X103664924Y-83261005D01*
X103664922Y-83261004D01*
X103535341Y-83154659D01*
X103428996Y-83025078D01*
X103390523Y-82953100D01*
X103349976Y-82877242D01*
X103301313Y-82716823D01*
X103284883Y-82550000D01*
X103301313Y-82383177D01*
X103349976Y-82222758D01*
X103428995Y-82074924D01*
X103428996Y-82074922D01*
X103535341Y-81945341D01*
X103664922Y-81838996D01*
X103745639Y-81795852D01*
X103812758Y-81759976D01*
X103973177Y-81711313D01*
X104098196Y-81699000D01*
X104181804Y-81699000D01*
X104306823Y-81711313D01*
X104306823Y-81711313D01*
G37*
G36*
X101848228Y-81731703D02*
G01*
X102003100Y-81795853D01*
X102142481Y-81888985D01*
X102261015Y-82007519D01*
X102354147Y-82146900D01*
X102418297Y-82301772D01*
X102451000Y-82466184D01*
X102451000Y-82633816D01*
X102418297Y-82798228D01*
X102354147Y-82953100D01*
X102261015Y-83092481D01*
X102142481Y-83211015D01*
X102003100Y-83304147D01*
X101848228Y-83368297D01*
X101683816Y-83401000D01*
X101516184Y-83401000D01*
X101351772Y-83368297D01*
X101196900Y-83304147D01*
X101057519Y-83211015D01*
X100938985Y-83092481D01*
X100845853Y-82953100D01*
X100781703Y-82798228D01*
X100749000Y-82633816D01*
X100749000Y-82466184D01*
X100781703Y-82301772D01*
X100845853Y-82146900D01*
X100938985Y-82007519D01*
X101057519Y-81888985D01*
X101196900Y-81795853D01*
X101351772Y-81731703D01*
X101516184Y-81699000D01*
X101683816Y-81699000D01*
X101848228Y-81731703D01*
X101848228Y-81731703D01*
G37*
G36*
X137408228Y-81686478D02*
G01*
X137563100Y-81750628D01*
X137702481Y-81843760D01*
X137821015Y-81962294D01*
X137914147Y-82101675D01*
X137978297Y-82256547D01*
X138011000Y-82420959D01*
X138011000Y-82588591D01*
X137978297Y-82753003D01*
X137914147Y-82907875D01*
X137821015Y-83047256D01*
X137702481Y-83165790D01*
X137563100Y-83258922D01*
X137408228Y-83323072D01*
X137243816Y-83355775D01*
X137076184Y-83355775D01*
X136911772Y-83323072D01*
X136756900Y-83258922D01*
X136617519Y-83165790D01*
X136498985Y-83047256D01*
X136405853Y-82907875D01*
X136341703Y-82753003D01*
X136309000Y-82588591D01*
X136309000Y-82420959D01*
X136341703Y-82256547D01*
X136405853Y-82101675D01*
X136498985Y-81962294D01*
X136617519Y-81843760D01*
X136756900Y-81750628D01*
X136911772Y-81686478D01*
X137076184Y-81653775D01*
X137243816Y-81653775D01*
X137408228Y-81686478D01*
X137408228Y-81686478D01*
G37*
G36*
X81276604Y-73399416D02*
G01*
X81542579Y-73480099D01*
X81542581Y-73480100D01*
X81787701Y-73611119D01*
X82002556Y-73787444D01*
X82178881Y-74002299D01*
X82309900Y-74247418D01*
X82309900Y-74247419D01*
X82309901Y-74247421D01*
X82390584Y-74513397D01*
X82411000Y-74720685D01*
X82411000Y-75379316D01*
X82390584Y-75586604D01*
X82309901Y-75852578D01*
X82309900Y-75852581D01*
X82178881Y-76097701D01*
X82002556Y-76312556D01*
X81787700Y-76488881D01*
X81542580Y-76619900D01*
X81542578Y-76619901D01*
X81276603Y-76700584D01*
X81000000Y-76727827D01*
X80723396Y-76700584D01*
X80457421Y-76619901D01*
X80457419Y-76619900D01*
X80212299Y-76488881D01*
X79997444Y-76312556D01*
X79821119Y-76097700D01*
X79690100Y-75852580D01*
X79690099Y-75852578D01*
X79609416Y-75586603D01*
X79589000Y-75379315D01*
X79589000Y-74720684D01*
X79609416Y-74513396D01*
X79690099Y-74247421D01*
X79821120Y-74002298D01*
X79997444Y-73787444D01*
X80212300Y-73611119D01*
X80457420Y-73480100D01*
X80457422Y-73480099D01*
X80723397Y-73399416D01*
X81000000Y-73372173D01*
X81276604Y-73399416D01*
X81276604Y-73399416D01*
G37*
G36*
X89456604Y-73399416D02*
G01*
X89722579Y-73480099D01*
X89722581Y-73480100D01*
X89967701Y-73611119D01*
X90182556Y-73787444D01*
X90358881Y-74002299D01*
X90489900Y-74247418D01*
X90489900Y-74247419D01*
X90489901Y-74247421D01*
X90570584Y-74513397D01*
X90591000Y-74720685D01*
X90591000Y-75379316D01*
X90570584Y-75586604D01*
X90489901Y-75852578D01*
X90489900Y-75852581D01*
X90358881Y-76097701D01*
X90182556Y-76312556D01*
X89967700Y-76488881D01*
X89722580Y-76619900D01*
X89722578Y-76619901D01*
X89456603Y-76700584D01*
X89180000Y-76727827D01*
X88903396Y-76700584D01*
X88637421Y-76619901D01*
X88637419Y-76619900D01*
X88392299Y-76488881D01*
X88177444Y-76312556D01*
X88001119Y-76097700D01*
X87870100Y-75852580D01*
X87870099Y-75852578D01*
X87789416Y-75586603D01*
X87769000Y-75379315D01*
X87769000Y-74720684D01*
X87789416Y-74513396D01*
X87870099Y-74247421D01*
X88001120Y-74002298D01*
X88177444Y-73787444D01*
X88392300Y-73611119D01*
X88637420Y-73480100D01*
X88637422Y-73480099D01*
X88903397Y-73399416D01*
X89180000Y-73372173D01*
X89456604Y-73399416D01*
X89456604Y-73399416D01*
G37*
G36*
X107236604Y-73399416D02*
G01*
X107502579Y-73480099D01*
X107502581Y-73480100D01*
X107747701Y-73611119D01*
X107962556Y-73787444D01*
X108138881Y-74002299D01*
X108269900Y-74247418D01*
X108269900Y-74247419D01*
X108269901Y-74247421D01*
X108350584Y-74513397D01*
X108371000Y-74720685D01*
X108371000Y-75379316D01*
X108350584Y-75586604D01*
X108269901Y-75852578D01*
X108269900Y-75852581D01*
X108138881Y-76097701D01*
X107962556Y-76312556D01*
X107747700Y-76488881D01*
X107502580Y-76619900D01*
X107502578Y-76619901D01*
X107236603Y-76700584D01*
X106960000Y-76727827D01*
X106683396Y-76700584D01*
X106417421Y-76619901D01*
X106417419Y-76619900D01*
X106172299Y-76488881D01*
X105957444Y-76312556D01*
X105781119Y-76097700D01*
X105650100Y-75852580D01*
X105650099Y-75852578D01*
X105569416Y-75586603D01*
X105549000Y-75379315D01*
X105549000Y-74720684D01*
X105569416Y-74513396D01*
X105650099Y-74247421D01*
X105781120Y-74002298D01*
X105957444Y-73787444D01*
X106172300Y-73611119D01*
X106417420Y-73480100D01*
X106417422Y-73480099D01*
X106683397Y-73399416D01*
X106960000Y-73372173D01*
X107236604Y-73399416D01*
X107236604Y-73399416D01*
G37*
G36*
X99056604Y-73399416D02*
G01*
X99322579Y-73480099D01*
X99322581Y-73480100D01*
X99567701Y-73611119D01*
X99782556Y-73787444D01*
X99958881Y-74002299D01*
X100089900Y-74247418D01*
X100089900Y-74247419D01*
X100089901Y-74247421D01*
X100170584Y-74513397D01*
X100191000Y-74720685D01*
X100191000Y-75379316D01*
X100170584Y-75586604D01*
X100089901Y-75852578D01*
X100089900Y-75852581D01*
X99958881Y-76097701D01*
X99782556Y-76312556D01*
X99567700Y-76488881D01*
X99322580Y-76619900D01*
X99322578Y-76619901D01*
X99056603Y-76700584D01*
X98780000Y-76727827D01*
X98503396Y-76700584D01*
X98237421Y-76619901D01*
X98237419Y-76619900D01*
X97992299Y-76488881D01*
X97777444Y-76312556D01*
X97601119Y-76097700D01*
X97470100Y-75852580D01*
X97470099Y-75852578D01*
X97389416Y-75586603D01*
X97369000Y-75379315D01*
X97369000Y-74720684D01*
X97389416Y-74513396D01*
X97470099Y-74247421D01*
X97601120Y-74002298D01*
X97777444Y-73787444D01*
X97992300Y-73611119D01*
X98237420Y-73480100D01*
X98237422Y-73480099D01*
X98503397Y-73399416D01*
X98780000Y-73372173D01*
X99056604Y-73399416D01*
X99056604Y-73399416D01*
G37*
G36*
X71676604Y-73399416D02*
G01*
X71942579Y-73480099D01*
X71942581Y-73480100D01*
X72187701Y-73611119D01*
X72402556Y-73787444D01*
X72578881Y-74002299D01*
X72709900Y-74247418D01*
X72709900Y-74247419D01*
X72709901Y-74247421D01*
X72790584Y-74513397D01*
X72811000Y-74720685D01*
X72811000Y-75379316D01*
X72790584Y-75586604D01*
X72709901Y-75852578D01*
X72709900Y-75852581D01*
X72578881Y-76097701D01*
X72402556Y-76312556D01*
X72187700Y-76488881D01*
X71942580Y-76619900D01*
X71942578Y-76619901D01*
X71676603Y-76700584D01*
X71400000Y-76727827D01*
X71123396Y-76700584D01*
X70857421Y-76619901D01*
X70857419Y-76619900D01*
X70612299Y-76488881D01*
X70397444Y-76312556D01*
X70221119Y-76097700D01*
X70090100Y-75852580D01*
X70090099Y-75852578D01*
X70009416Y-75586603D01*
X69989000Y-75379315D01*
X69989000Y-74720684D01*
X70009416Y-74513396D01*
X70090099Y-74247421D01*
X70221120Y-74002298D01*
X70397444Y-73787444D01*
X70612300Y-73611119D01*
X70857420Y-73480100D01*
X70857422Y-73480099D01*
X71123397Y-73399416D01*
X71400000Y-73372173D01*
X71676604Y-73399416D01*
X71676604Y-73399416D01*
G37*
G36*
X152396604Y-73399416D02*
G01*
X152662579Y-73480099D01*
X152662581Y-73480100D01*
X152907701Y-73611119D01*
X153122556Y-73787444D01*
X153298881Y-74002299D01*
X153429900Y-74247418D01*
X153429900Y-74247419D01*
X153429901Y-74247421D01*
X153510584Y-74513397D01*
X153531000Y-74720685D01*
X153531000Y-75379316D01*
X153510584Y-75586604D01*
X153429901Y-75852578D01*
X153429900Y-75852581D01*
X153298881Y-76097701D01*
X153122556Y-76312556D01*
X152907700Y-76488881D01*
X152662580Y-76619900D01*
X152662578Y-76619901D01*
X152396603Y-76700584D01*
X152120000Y-76727827D01*
X151843396Y-76700584D01*
X151577421Y-76619901D01*
X151577419Y-76619900D01*
X151332299Y-76488881D01*
X151117444Y-76312556D01*
X150941119Y-76097700D01*
X150810100Y-75852580D01*
X150810099Y-75852578D01*
X150729416Y-75586603D01*
X150709000Y-75379315D01*
X150709000Y-74720684D01*
X150729416Y-74513396D01*
X150810099Y-74247421D01*
X150941120Y-74002298D01*
X151117444Y-73787444D01*
X151332300Y-73611119D01*
X151577420Y-73480100D01*
X151577422Y-73480099D01*
X151843397Y-73399416D01*
X152120000Y-73372173D01*
X152396604Y-73399416D01*
X152396604Y-73399416D01*
G37*
G36*
X116836604Y-73399416D02*
G01*
X117102579Y-73480099D01*
X117102581Y-73480100D01*
X117347701Y-73611119D01*
X117562556Y-73787444D01*
X117738881Y-74002299D01*
X117869900Y-74247418D01*
X117869900Y-74247419D01*
X117869901Y-74247421D01*
X117950584Y-74513397D01*
X117971000Y-74720685D01*
X117971000Y-75379316D01*
X117950584Y-75586604D01*
X117869901Y-75852578D01*
X117869900Y-75852581D01*
X117738881Y-76097701D01*
X117562556Y-76312556D01*
X117347700Y-76488881D01*
X117102580Y-76619900D01*
X117102578Y-76619901D01*
X116836603Y-76700584D01*
X116560000Y-76727827D01*
X116283396Y-76700584D01*
X116017421Y-76619901D01*
X116017419Y-76619900D01*
X115772299Y-76488881D01*
X115557444Y-76312556D01*
X115381119Y-76097700D01*
X115250100Y-75852580D01*
X115250099Y-75852578D01*
X115169416Y-75586603D01*
X115149000Y-75379315D01*
X115149000Y-74720684D01*
X115169416Y-74513396D01*
X115250099Y-74247421D01*
X115381120Y-74002298D01*
X115557444Y-73787444D01*
X115772300Y-73611119D01*
X116017420Y-73480100D01*
X116017422Y-73480099D01*
X116283397Y-73399416D01*
X116560000Y-73372173D01*
X116836604Y-73399416D01*
X116836604Y-73399416D01*
G37*
G36*
X134616604Y-73399416D02*
G01*
X134882579Y-73480099D01*
X134882581Y-73480100D01*
X135127701Y-73611119D01*
X135342556Y-73787444D01*
X135518881Y-74002299D01*
X135649900Y-74247418D01*
X135649900Y-74247419D01*
X135649901Y-74247421D01*
X135730584Y-74513397D01*
X135751000Y-74720685D01*
X135751000Y-75379316D01*
X135730584Y-75586604D01*
X135649901Y-75852578D01*
X135649900Y-75852581D01*
X135518881Y-76097701D01*
X135342556Y-76312556D01*
X135127700Y-76488881D01*
X134882580Y-76619900D01*
X134882578Y-76619901D01*
X134616603Y-76700584D01*
X134340000Y-76727827D01*
X134063396Y-76700584D01*
X133797421Y-76619901D01*
X133797419Y-76619900D01*
X133552299Y-76488881D01*
X133337444Y-76312556D01*
X133161119Y-76097700D01*
X133030100Y-75852580D01*
X133030099Y-75852578D01*
X132949416Y-75586603D01*
X132929000Y-75379315D01*
X132929000Y-74720684D01*
X132949416Y-74513396D01*
X133030099Y-74247421D01*
X133161120Y-74002298D01*
X133337444Y-73787444D01*
X133552300Y-73611119D01*
X133797420Y-73480100D01*
X133797422Y-73480099D01*
X134063397Y-73399416D01*
X134340000Y-73372173D01*
X134616604Y-73399416D01*
X134616604Y-73399416D01*
G37*
G36*
X142796604Y-73399416D02*
G01*
X143062579Y-73480099D01*
X143062581Y-73480100D01*
X143307701Y-73611119D01*
X143522556Y-73787444D01*
X143698881Y-74002299D01*
X143829900Y-74247418D01*
X143829900Y-74247419D01*
X143829901Y-74247421D01*
X143910584Y-74513397D01*
X143931000Y-74720685D01*
X143931000Y-75379316D01*
X143910584Y-75586604D01*
X143829901Y-75852578D01*
X143829900Y-75852581D01*
X143698881Y-76097701D01*
X143522556Y-76312556D01*
X143307700Y-76488881D01*
X143062580Y-76619900D01*
X143062578Y-76619901D01*
X142796603Y-76700584D01*
X142520000Y-76727827D01*
X142243396Y-76700584D01*
X141977421Y-76619901D01*
X141977419Y-76619900D01*
X141732299Y-76488881D01*
X141517444Y-76312556D01*
X141341119Y-76097700D01*
X141210100Y-75852580D01*
X141210099Y-75852578D01*
X141129416Y-75586603D01*
X141109000Y-75379315D01*
X141109000Y-74720684D01*
X141129416Y-74513396D01*
X141210099Y-74247421D01*
X141341120Y-74002298D01*
X141517444Y-73787444D01*
X141732300Y-73611119D01*
X141977420Y-73480100D01*
X141977422Y-73480099D01*
X142243397Y-73399416D01*
X142520000Y-73372173D01*
X142796604Y-73399416D01*
X142796604Y-73399416D01*
G37*
G36*
X125016604Y-73399416D02*
G01*
X125282579Y-73480099D01*
X125282581Y-73480100D01*
X125527701Y-73611119D01*
X125742556Y-73787444D01*
X125918881Y-74002299D01*
X126049900Y-74247418D01*
X126049900Y-74247419D01*
X126049901Y-74247421D01*
X126130584Y-74513397D01*
X126151000Y-74720685D01*
X126151000Y-75379316D01*
X126130584Y-75586604D01*
X126049901Y-75852578D01*
X126049900Y-75852581D01*
X125918881Y-76097701D01*
X125742556Y-76312556D01*
X125527700Y-76488881D01*
X125282580Y-76619900D01*
X125282578Y-76619901D01*
X125016603Y-76700584D01*
X124740000Y-76727827D01*
X124463396Y-76700584D01*
X124197421Y-76619901D01*
X124197419Y-76619900D01*
X123952299Y-76488881D01*
X123737444Y-76312556D01*
X123561119Y-76097700D01*
X123430100Y-75852580D01*
X123430099Y-75852578D01*
X123349416Y-75586603D01*
X123329000Y-75379315D01*
X123329000Y-74720684D01*
X123349416Y-74513396D01*
X123430099Y-74247421D01*
X123561120Y-74002298D01*
X123737444Y-73787444D01*
X123952300Y-73611119D01*
X124197420Y-73480100D01*
X124197422Y-73480099D01*
X124463397Y-73399416D01*
X124740000Y-73372173D01*
X125016604Y-73399416D01*
X125016604Y-73399416D01*
G37*
G36*
X83986823Y-71551313D02*
G01*
X84147242Y-71599976D01*
X84214361Y-71635852D01*
X84295078Y-71678996D01*
X84424659Y-71785341D01*
X84531004Y-71914922D01*
X84531005Y-71914924D01*
X84610024Y-72062758D01*
X84658687Y-72223177D01*
X84675117Y-72390000D01*
X84658687Y-72556823D01*
X84610024Y-72717242D01*
X84569477Y-72793100D01*
X84531004Y-72865078D01*
X84424659Y-72994659D01*
X84295078Y-73101004D01*
X84295076Y-73101005D01*
X84147242Y-73180024D01*
X83986823Y-73228687D01*
X83861804Y-73241000D01*
X83778196Y-73241000D01*
X83653177Y-73228687D01*
X83492758Y-73180024D01*
X83344924Y-73101005D01*
X83344922Y-73101004D01*
X83215341Y-72994659D01*
X83108996Y-72865078D01*
X83070523Y-72793100D01*
X83029976Y-72717242D01*
X82981313Y-72556823D01*
X82964883Y-72390000D01*
X82981313Y-72223177D01*
X83029976Y-72062758D01*
X83108995Y-71914924D01*
X83108996Y-71914922D01*
X83215341Y-71785341D01*
X83344922Y-71678996D01*
X83425639Y-71635852D01*
X83492758Y-71599976D01*
X83653177Y-71551313D01*
X83778196Y-71539000D01*
X83861804Y-71539000D01*
X83986823Y-71551313D01*
X83986823Y-71551313D01*
G37*
G36*
X101766823Y-71551313D02*
G01*
X101927242Y-71599976D01*
X101994361Y-71635852D01*
X102075078Y-71678996D01*
X102204659Y-71785341D01*
X102311004Y-71914922D01*
X102311005Y-71914924D01*
X102390024Y-72062758D01*
X102438687Y-72223177D01*
X102455117Y-72390000D01*
X102438687Y-72556823D01*
X102390024Y-72717242D01*
X102349477Y-72793100D01*
X102311004Y-72865078D01*
X102204659Y-72994659D01*
X102075078Y-73101004D01*
X102075076Y-73101005D01*
X101927242Y-73180024D01*
X101766823Y-73228687D01*
X101641804Y-73241000D01*
X101558196Y-73241000D01*
X101433177Y-73228687D01*
X101272758Y-73180024D01*
X101124924Y-73101005D01*
X101124922Y-73101004D01*
X100995341Y-72994659D01*
X100888996Y-72865078D01*
X100850523Y-72793100D01*
X100809976Y-72717242D01*
X100761313Y-72556823D01*
X100744883Y-72390000D01*
X100761313Y-72223177D01*
X100809976Y-72062758D01*
X100888995Y-71914924D01*
X100888996Y-71914922D01*
X100995341Y-71785341D01*
X101124922Y-71678996D01*
X101205639Y-71635852D01*
X101272758Y-71599976D01*
X101433177Y-71551313D01*
X101558196Y-71539000D01*
X101641804Y-71539000D01*
X101766823Y-71551313D01*
X101766823Y-71551313D01*
G37*
G36*
X86608228Y-71571703D02*
G01*
X86763100Y-71635853D01*
X86902481Y-71728985D01*
X87021015Y-71847519D01*
X87114147Y-71986900D01*
X87178297Y-72141772D01*
X87211000Y-72306184D01*
X87211000Y-72473816D01*
X87178297Y-72638228D01*
X87114147Y-72793100D01*
X87021015Y-72932481D01*
X86902481Y-73051015D01*
X86763100Y-73144147D01*
X86608228Y-73208297D01*
X86443816Y-73241000D01*
X86276184Y-73241000D01*
X86111772Y-73208297D01*
X85956900Y-73144147D01*
X85817519Y-73051015D01*
X85698985Y-72932481D01*
X85605853Y-72793100D01*
X85541703Y-72638228D01*
X85509000Y-72473816D01*
X85509000Y-72306184D01*
X85541703Y-72141772D01*
X85605853Y-71986900D01*
X85698985Y-71847519D01*
X85817519Y-71728985D01*
X85956900Y-71635853D01*
X86111772Y-71571703D01*
X86276184Y-71539000D01*
X86443816Y-71539000D01*
X86608228Y-71571703D01*
X86608228Y-71571703D01*
G37*
G36*
X104388228Y-71571703D02*
G01*
X104543100Y-71635853D01*
X104682481Y-71728985D01*
X104801015Y-71847519D01*
X104894147Y-71986900D01*
X104958297Y-72141772D01*
X104991000Y-72306184D01*
X104991000Y-72473816D01*
X104958297Y-72638228D01*
X104894147Y-72793100D01*
X104801015Y-72932481D01*
X104682481Y-73051015D01*
X104543100Y-73144147D01*
X104388228Y-73208297D01*
X104223816Y-73241000D01*
X104056184Y-73241000D01*
X103891772Y-73208297D01*
X103736900Y-73144147D01*
X103597519Y-73051015D01*
X103478985Y-72932481D01*
X103385853Y-72793100D01*
X103321703Y-72638228D01*
X103289000Y-72473816D01*
X103289000Y-72306184D01*
X103321703Y-72141772D01*
X103385853Y-71986900D01*
X103478985Y-71847519D01*
X103597519Y-71728985D01*
X103736900Y-71635853D01*
X103891772Y-71571703D01*
X104056184Y-71539000D01*
X104223816Y-71539000D01*
X104388228Y-71571703D01*
X104388228Y-71571703D01*
G37*
G36*
X119546823Y-71551313D02*
G01*
X119707242Y-71599976D01*
X119774361Y-71635852D01*
X119855078Y-71678996D01*
X119984659Y-71785341D01*
X120091004Y-71914922D01*
X120091005Y-71914924D01*
X120170024Y-72062758D01*
X120218687Y-72223177D01*
X120235117Y-72390000D01*
X120218687Y-72556823D01*
X120170024Y-72717242D01*
X120129477Y-72793100D01*
X120091004Y-72865078D01*
X119984659Y-72994659D01*
X119855078Y-73101004D01*
X119855076Y-73101005D01*
X119707242Y-73180024D01*
X119546823Y-73228687D01*
X119421804Y-73241000D01*
X119338196Y-73241000D01*
X119213177Y-73228687D01*
X119052758Y-73180024D01*
X118904924Y-73101005D01*
X118904922Y-73101004D01*
X118775341Y-72994659D01*
X118668996Y-72865078D01*
X118630523Y-72793100D01*
X118589976Y-72717242D01*
X118541313Y-72556823D01*
X118524883Y-72390000D01*
X118541313Y-72223177D01*
X118589976Y-72062758D01*
X118668995Y-71914924D01*
X118668996Y-71914922D01*
X118775341Y-71785341D01*
X118904922Y-71678996D01*
X118985639Y-71635852D01*
X119052758Y-71599976D01*
X119213177Y-71551313D01*
X119338196Y-71539000D01*
X119421804Y-71539000D01*
X119546823Y-71551313D01*
X119546823Y-71551313D01*
G37*
G36*
X122168228Y-71571703D02*
G01*
X122323100Y-71635853D01*
X122462481Y-71728985D01*
X122581015Y-71847519D01*
X122674147Y-71986900D01*
X122738297Y-72141772D01*
X122771000Y-72306184D01*
X122771000Y-72473816D01*
X122738297Y-72638228D01*
X122674147Y-72793100D01*
X122581015Y-72932481D01*
X122462481Y-73051015D01*
X122323100Y-73144147D01*
X122168228Y-73208297D01*
X122003816Y-73241000D01*
X121836184Y-73241000D01*
X121671772Y-73208297D01*
X121516900Y-73144147D01*
X121377519Y-73051015D01*
X121258985Y-72932481D01*
X121165853Y-72793100D01*
X121101703Y-72638228D01*
X121069000Y-72473816D01*
X121069000Y-72306184D01*
X121101703Y-72141772D01*
X121165853Y-71986900D01*
X121258985Y-71847519D01*
X121377519Y-71728985D01*
X121516900Y-71635853D01*
X121671772Y-71571703D01*
X121836184Y-71539000D01*
X122003816Y-71539000D01*
X122168228Y-71571703D01*
X122168228Y-71571703D01*
G37*
G36*
X139948228Y-71571703D02*
G01*
X140103100Y-71635853D01*
X140242481Y-71728985D01*
X140361015Y-71847519D01*
X140454147Y-71986900D01*
X140518297Y-72141772D01*
X140551000Y-72306184D01*
X140551000Y-72473816D01*
X140518297Y-72638228D01*
X140454147Y-72793100D01*
X140361015Y-72932481D01*
X140242481Y-73051015D01*
X140103100Y-73144147D01*
X139948228Y-73208297D01*
X139783816Y-73241000D01*
X139616184Y-73241000D01*
X139451772Y-73208297D01*
X139296900Y-73144147D01*
X139157519Y-73051015D01*
X139038985Y-72932481D01*
X138945853Y-72793100D01*
X138881703Y-72638228D01*
X138849000Y-72473816D01*
X138849000Y-72306184D01*
X138881703Y-72141772D01*
X138945853Y-71986900D01*
X139038985Y-71847519D01*
X139157519Y-71728985D01*
X139296900Y-71635853D01*
X139451772Y-71571703D01*
X139616184Y-71539000D01*
X139783816Y-71539000D01*
X139948228Y-71571703D01*
X139948228Y-71571703D01*
G37*
G36*
X155106823Y-71551313D02*
G01*
X155267242Y-71599976D01*
X155334361Y-71635852D01*
X155415078Y-71678996D01*
X155544659Y-71785341D01*
X155651004Y-71914922D01*
X155651005Y-71914924D01*
X155730024Y-72062758D01*
X155778687Y-72223177D01*
X155795117Y-72390000D01*
X155778687Y-72556823D01*
X155730024Y-72717242D01*
X155689477Y-72793100D01*
X155651004Y-72865078D01*
X155544659Y-72994659D01*
X155415078Y-73101004D01*
X155415076Y-73101005D01*
X155267242Y-73180024D01*
X155106823Y-73228687D01*
X154981804Y-73241000D01*
X154898196Y-73241000D01*
X154773177Y-73228687D01*
X154612758Y-73180024D01*
X154464924Y-73101005D01*
X154464922Y-73101004D01*
X154335341Y-72994659D01*
X154228996Y-72865078D01*
X154190523Y-72793100D01*
X154149976Y-72717242D01*
X154101313Y-72556823D01*
X154084883Y-72390000D01*
X154101313Y-72223177D01*
X154149976Y-72062758D01*
X154228995Y-71914924D01*
X154228996Y-71914922D01*
X154335341Y-71785341D01*
X154464922Y-71678996D01*
X154545639Y-71635852D01*
X154612758Y-71599976D01*
X154773177Y-71551313D01*
X154898196Y-71539000D01*
X154981804Y-71539000D01*
X155106823Y-71551313D01*
X155106823Y-71551313D01*
G37*
G36*
X68828228Y-71571703D02*
G01*
X68983100Y-71635853D01*
X69122481Y-71728985D01*
X69241015Y-71847519D01*
X69334147Y-71986900D01*
X69398297Y-72141772D01*
X69431000Y-72306184D01*
X69431000Y-72473816D01*
X69398297Y-72638228D01*
X69334147Y-72793100D01*
X69241015Y-72932481D01*
X69122481Y-73051015D01*
X68983100Y-73144147D01*
X68828228Y-73208297D01*
X68663816Y-73241000D01*
X68496184Y-73241000D01*
X68331772Y-73208297D01*
X68176900Y-73144147D01*
X68037519Y-73051015D01*
X67918985Y-72932481D01*
X67825853Y-72793100D01*
X67761703Y-72638228D01*
X67729000Y-72473816D01*
X67729000Y-72306184D01*
X67761703Y-72141772D01*
X67825853Y-71986900D01*
X67918985Y-71847519D01*
X68037519Y-71728985D01*
X68176900Y-71635853D01*
X68331772Y-71571703D01*
X68496184Y-71539000D01*
X68663816Y-71539000D01*
X68828228Y-71571703D01*
X68828228Y-71571703D01*
G37*
G36*
X137326823Y-71506088D02*
G01*
X137487242Y-71554751D01*
X137571850Y-71599975D01*
X137635078Y-71633771D01*
X137764659Y-71740116D01*
X137871004Y-71869697D01*
X137871005Y-71869699D01*
X137950024Y-72017533D01*
X137998687Y-72177952D01*
X138015117Y-72344775D01*
X137998687Y-72511598D01*
X137950024Y-72672017D01*
X137885305Y-72793097D01*
X137871004Y-72819853D01*
X137764659Y-72949434D01*
X137635078Y-73055779D01*
X137635076Y-73055780D01*
X137487242Y-73134799D01*
X137326823Y-73183462D01*
X137201804Y-73195775D01*
X137118196Y-73195775D01*
X136993177Y-73183462D01*
X136832758Y-73134799D01*
X136684924Y-73055780D01*
X136684922Y-73055779D01*
X136555341Y-72949434D01*
X136448996Y-72819853D01*
X136434695Y-72793097D01*
X136369976Y-72672017D01*
X136321313Y-72511598D01*
X136304883Y-72344775D01*
X136321313Y-72177952D01*
X136369976Y-72017533D01*
X136448995Y-71869699D01*
X136448996Y-71869697D01*
X136555341Y-71740116D01*
X136684922Y-71633771D01*
X136748150Y-71599975D01*
X136832758Y-71554751D01*
X136993177Y-71506088D01*
X137118196Y-71493775D01*
X137201804Y-71493775D01*
X137326823Y-71506088D01*
X137326823Y-71506088D01*
G37*
G36*
X76477395Y-66395546D02*
G01*
X76650466Y-66467234D01*
X76650467Y-66467235D01*
X76806227Y-66571310D01*
X76938690Y-66703773D01*
X76964456Y-66742335D01*
X77042766Y-66859534D01*
X77114454Y-67032605D01*
X77151000Y-67216333D01*
X77151000Y-67403667D01*
X77114454Y-67587395D01*
X77042766Y-67760466D01*
X77042765Y-67760467D01*
X76938690Y-67916227D01*
X76806227Y-68048690D01*
X76727818Y-68101081D01*
X76650466Y-68152766D01*
X76477395Y-68224454D01*
X76293667Y-68261000D01*
X76106333Y-68261000D01*
X75922605Y-68224454D01*
X75749534Y-68152766D01*
X75672182Y-68101081D01*
X75593773Y-68048690D01*
X75461310Y-67916227D01*
X75357235Y-67760467D01*
X75357234Y-67760466D01*
X75285546Y-67587395D01*
X75249000Y-67403667D01*
X75249000Y-67216333D01*
X75285546Y-67032605D01*
X75357234Y-66859534D01*
X75435544Y-66742335D01*
X75461310Y-66703773D01*
X75593773Y-66571310D01*
X75749533Y-66467235D01*
X75749534Y-66467234D01*
X75922605Y-66395546D01*
X76106333Y-66359000D01*
X76293667Y-66359000D01*
X76477395Y-66395546D01*
X76477395Y-66395546D01*
G37*
G36*
X129817395Y-66395546D02*
G01*
X129990466Y-66467234D01*
X129990467Y-66467235D01*
X130146227Y-66571310D01*
X130278690Y-66703773D01*
X130304456Y-66742335D01*
X130382766Y-66859534D01*
X130454454Y-67032605D01*
X130491000Y-67216333D01*
X130491000Y-67403667D01*
X130454454Y-67587395D01*
X130382766Y-67760466D01*
X130382765Y-67760467D01*
X130278690Y-67916227D01*
X130146227Y-68048690D01*
X130067818Y-68101081D01*
X129990466Y-68152766D01*
X129817395Y-68224454D01*
X129633667Y-68261000D01*
X129446333Y-68261000D01*
X129262605Y-68224454D01*
X129089534Y-68152766D01*
X129012182Y-68101081D01*
X128933773Y-68048690D01*
X128801310Y-67916227D01*
X128697235Y-67760467D01*
X128697234Y-67760466D01*
X128625546Y-67587395D01*
X128589000Y-67403667D01*
X128589000Y-67216333D01*
X128625546Y-67032605D01*
X128697234Y-66859534D01*
X128775544Y-66742335D01*
X128801310Y-66703773D01*
X128933773Y-66571310D01*
X129089533Y-66467235D01*
X129089534Y-66467234D01*
X129262605Y-66395546D01*
X129446333Y-66359000D01*
X129633667Y-66359000D01*
X129817395Y-66395546D01*
X129817395Y-66395546D01*
G37*
G36*
X112037395Y-66395546D02*
G01*
X112210466Y-66467234D01*
X112210467Y-66467235D01*
X112366227Y-66571310D01*
X112498690Y-66703773D01*
X112524456Y-66742335D01*
X112602766Y-66859534D01*
X112674454Y-67032605D01*
X112711000Y-67216333D01*
X112711000Y-67403667D01*
X112674454Y-67587395D01*
X112602766Y-67760466D01*
X112602765Y-67760467D01*
X112498690Y-67916227D01*
X112366227Y-68048690D01*
X112287818Y-68101081D01*
X112210466Y-68152766D01*
X112037395Y-68224454D01*
X111853667Y-68261000D01*
X111666333Y-68261000D01*
X111482605Y-68224454D01*
X111309534Y-68152766D01*
X111232182Y-68101081D01*
X111153773Y-68048690D01*
X111021310Y-67916227D01*
X110917235Y-67760467D01*
X110917234Y-67760466D01*
X110845546Y-67587395D01*
X110809000Y-67403667D01*
X110809000Y-67216333D01*
X110845546Y-67032605D01*
X110917234Y-66859534D01*
X110995544Y-66742335D01*
X111021310Y-66703773D01*
X111153773Y-66571310D01*
X111309533Y-66467235D01*
X111309534Y-66467234D01*
X111482605Y-66395546D01*
X111666333Y-66359000D01*
X111853667Y-66359000D01*
X112037395Y-66395546D01*
X112037395Y-66395546D01*
G37*
G36*
X94257395Y-66395546D02*
G01*
X94430466Y-66467234D01*
X94430467Y-66467235D01*
X94586227Y-66571310D01*
X94718690Y-66703773D01*
X94744456Y-66742335D01*
X94822766Y-66859534D01*
X94894454Y-67032605D01*
X94931000Y-67216333D01*
X94931000Y-67403667D01*
X94894454Y-67587395D01*
X94822766Y-67760466D01*
X94822765Y-67760467D01*
X94718690Y-67916227D01*
X94586227Y-68048690D01*
X94507818Y-68101081D01*
X94430466Y-68152766D01*
X94257395Y-68224454D01*
X94073667Y-68261000D01*
X93886333Y-68261000D01*
X93702605Y-68224454D01*
X93529534Y-68152766D01*
X93452182Y-68101081D01*
X93373773Y-68048690D01*
X93241310Y-67916227D01*
X93137235Y-67760467D01*
X93137234Y-67760466D01*
X93065546Y-67587395D01*
X93029000Y-67403667D01*
X93029000Y-67216333D01*
X93065546Y-67032605D01*
X93137234Y-66859534D01*
X93215544Y-66742335D01*
X93241310Y-66703773D01*
X93373773Y-66571310D01*
X93529533Y-66467235D01*
X93529534Y-66467234D01*
X93702605Y-66395546D01*
X93886333Y-66359000D01*
X94073667Y-66359000D01*
X94257395Y-66395546D01*
X94257395Y-66395546D01*
G37*
G36*
X147597395Y-66395546D02*
G01*
X147770466Y-66467234D01*
X147770467Y-66467235D01*
X147926227Y-66571310D01*
X148058690Y-66703773D01*
X148084456Y-66742335D01*
X148162766Y-66859534D01*
X148234454Y-67032605D01*
X148271000Y-67216333D01*
X148271000Y-67403667D01*
X148234454Y-67587395D01*
X148162766Y-67760466D01*
X148162765Y-67760467D01*
X148058690Y-67916227D01*
X147926227Y-68048690D01*
X147847818Y-68101081D01*
X147770466Y-68152766D01*
X147597395Y-68224454D01*
X147413667Y-68261000D01*
X147226333Y-68261000D01*
X147042605Y-68224454D01*
X146869534Y-68152766D01*
X146792182Y-68101081D01*
X146713773Y-68048690D01*
X146581310Y-67916227D01*
X146477235Y-67760467D01*
X146477234Y-67760466D01*
X146405546Y-67587395D01*
X146369000Y-67403667D01*
X146369000Y-67216333D01*
X146405546Y-67032605D01*
X146477234Y-66859534D01*
X146555544Y-66742335D01*
X146581310Y-66703773D01*
X146713773Y-66571310D01*
X146869533Y-66467235D01*
X146869534Y-66467234D01*
X147042605Y-66395546D01*
X147226333Y-66359000D01*
X147413667Y-66359000D01*
X147597395Y-66395546D01*
X147597395Y-66395546D01*
G37*
G36*
X84471000Y-67961000D02*
G01*
X83169000Y-67961000D01*
X83169000Y-66659000D01*
X84471000Y-66659000D01*
X84471000Y-67961000D01*
X84471000Y-67961000D01*
G37*
G36*
X82009890Y-66684017D02*
G01*
X82128364Y-66733091D01*
X82234988Y-66804335D01*
X82325665Y-66895012D01*
X82388094Y-66988443D01*
X82396910Y-67001638D01*
X82445983Y-67120110D01*
X82471000Y-67245881D01*
X82471000Y-67374119D01*
X82445983Y-67499890D01*
X82409737Y-67587396D01*
X82396909Y-67618364D01*
X82325665Y-67724988D01*
X82234988Y-67815665D01*
X82128364Y-67886909D01*
X82128363Y-67886910D01*
X82128362Y-67886910D01*
X82009890Y-67935983D01*
X81884119Y-67961000D01*
X81755881Y-67961000D01*
X81630110Y-67935983D01*
X81511638Y-67886910D01*
X81511637Y-67886910D01*
X81511636Y-67886909D01*
X81405012Y-67815665D01*
X81314335Y-67724988D01*
X81243091Y-67618364D01*
X81230264Y-67587396D01*
X81194017Y-67499890D01*
X81169000Y-67374119D01*
X81169000Y-67245881D01*
X81194017Y-67120110D01*
X81243090Y-67001638D01*
X81251907Y-66988443D01*
X81314335Y-66895012D01*
X81405012Y-66804335D01*
X81511636Y-66733091D01*
X81630110Y-66684017D01*
X81755881Y-66659000D01*
X81884119Y-66659000D01*
X82009890Y-66684017D01*
X82009890Y-66684017D01*
G37*
G36*
X137811000Y-67961000D02*
G01*
X136509000Y-67961000D01*
X136509000Y-66659000D01*
X137811000Y-66659000D01*
X137811000Y-67961000D01*
X137811000Y-67961000D01*
G37*
G36*
X153129890Y-66684017D02*
G01*
X153248364Y-66733091D01*
X153354988Y-66804335D01*
X153445665Y-66895012D01*
X153508094Y-66988443D01*
X153516910Y-67001638D01*
X153565983Y-67120110D01*
X153591000Y-67245881D01*
X153591000Y-67374119D01*
X153565983Y-67499890D01*
X153529737Y-67587396D01*
X153516909Y-67618364D01*
X153445665Y-67724988D01*
X153354988Y-67815665D01*
X153248364Y-67886909D01*
X153248363Y-67886910D01*
X153248362Y-67886910D01*
X153129890Y-67935983D01*
X153004119Y-67961000D01*
X152875881Y-67961000D01*
X152750110Y-67935983D01*
X152631638Y-67886910D01*
X152631637Y-67886910D01*
X152631636Y-67886909D01*
X152525012Y-67815665D01*
X152434335Y-67724988D01*
X152363091Y-67618364D01*
X152350264Y-67587396D01*
X152314017Y-67499890D01*
X152289000Y-67374119D01*
X152289000Y-67245881D01*
X152314017Y-67120110D01*
X152363090Y-67001638D01*
X152371907Y-66988443D01*
X152434335Y-66895012D01*
X152525012Y-66804335D01*
X152631636Y-66733091D01*
X152750110Y-66684017D01*
X152875881Y-66659000D01*
X153004119Y-66659000D01*
X153129890Y-66684017D01*
X153129890Y-66684017D01*
G37*
G36*
X135349890Y-66684017D02*
G01*
X135468364Y-66733091D01*
X135574988Y-66804335D01*
X135665665Y-66895012D01*
X135728094Y-66988443D01*
X135736910Y-67001638D01*
X135785983Y-67120110D01*
X135811000Y-67245881D01*
X135811000Y-67374119D01*
X135785983Y-67499890D01*
X135749737Y-67587396D01*
X135736909Y-67618364D01*
X135665665Y-67724988D01*
X135574988Y-67815665D01*
X135468364Y-67886909D01*
X135468363Y-67886910D01*
X135468362Y-67886910D01*
X135349890Y-67935983D01*
X135224119Y-67961000D01*
X135095881Y-67961000D01*
X134970110Y-67935983D01*
X134851638Y-67886910D01*
X134851637Y-67886910D01*
X134851636Y-67886909D01*
X134745012Y-67815665D01*
X134654335Y-67724988D01*
X134583091Y-67618364D01*
X134570264Y-67587396D01*
X134534017Y-67499890D01*
X134509000Y-67374119D01*
X134509000Y-67245881D01*
X134534017Y-67120110D01*
X134583090Y-67001638D01*
X134591907Y-66988443D01*
X134654335Y-66895012D01*
X134745012Y-66804335D01*
X134851636Y-66733091D01*
X134970110Y-66684017D01*
X135095881Y-66659000D01*
X135224119Y-66659000D01*
X135349890Y-66684017D01*
X135349890Y-66684017D01*
G37*
G36*
X102251000Y-67961000D02*
G01*
X100949000Y-67961000D01*
X100949000Y-66659000D01*
X102251000Y-66659000D01*
X102251000Y-67961000D01*
X102251000Y-67961000D01*
G37*
G36*
X117569890Y-66684017D02*
G01*
X117688364Y-66733091D01*
X117794988Y-66804335D01*
X117885665Y-66895012D01*
X117948094Y-66988443D01*
X117956910Y-67001638D01*
X118005983Y-67120110D01*
X118031000Y-67245881D01*
X118031000Y-67374119D01*
X118005983Y-67499890D01*
X117969737Y-67587396D01*
X117956909Y-67618364D01*
X117885665Y-67724988D01*
X117794988Y-67815665D01*
X117688364Y-67886909D01*
X117688363Y-67886910D01*
X117688362Y-67886910D01*
X117569890Y-67935983D01*
X117444119Y-67961000D01*
X117315881Y-67961000D01*
X117190110Y-67935983D01*
X117071638Y-67886910D01*
X117071637Y-67886910D01*
X117071636Y-67886909D01*
X116965012Y-67815665D01*
X116874335Y-67724988D01*
X116803091Y-67618364D01*
X116790264Y-67587396D01*
X116754017Y-67499890D01*
X116729000Y-67374119D01*
X116729000Y-67245881D01*
X116754017Y-67120110D01*
X116803090Y-67001638D01*
X116811907Y-66988443D01*
X116874335Y-66895012D01*
X116965012Y-66804335D01*
X117071636Y-66733091D01*
X117190110Y-66684017D01*
X117315881Y-66659000D01*
X117444119Y-66659000D01*
X117569890Y-66684017D01*
X117569890Y-66684017D01*
G37*
G36*
X120031000Y-67961000D02*
G01*
X118729000Y-67961000D01*
X118729000Y-66659000D01*
X120031000Y-66659000D01*
X120031000Y-67961000D01*
X120031000Y-67961000D01*
G37*
G36*
X155591000Y-67961000D02*
G01*
X154289000Y-67961000D01*
X154289000Y-66659000D01*
X155591000Y-66659000D01*
X155591000Y-67961000D01*
X155591000Y-67961000D01*
G37*
G36*
X99789890Y-66684017D02*
G01*
X99908364Y-66733091D01*
X100014988Y-66804335D01*
X100105665Y-66895012D01*
X100168094Y-66988443D01*
X100176910Y-67001638D01*
X100225983Y-67120110D01*
X100251000Y-67245881D01*
X100251000Y-67374119D01*
X100225983Y-67499890D01*
X100189737Y-67587396D01*
X100176909Y-67618364D01*
X100105665Y-67724988D01*
X100014988Y-67815665D01*
X99908364Y-67886909D01*
X99908363Y-67886910D01*
X99908362Y-67886910D01*
X99789890Y-67935983D01*
X99664119Y-67961000D01*
X99535881Y-67961000D01*
X99410110Y-67935983D01*
X99291638Y-67886910D01*
X99291637Y-67886910D01*
X99291636Y-67886909D01*
X99185012Y-67815665D01*
X99094335Y-67724988D01*
X99023091Y-67618364D01*
X99010264Y-67587396D01*
X98974017Y-67499890D01*
X98949000Y-67374119D01*
X98949000Y-67245881D01*
X98974017Y-67120110D01*
X99023090Y-67001638D01*
X99031907Y-66988443D01*
X99094335Y-66895012D01*
X99185012Y-66804335D01*
X99291636Y-66733091D01*
X99410110Y-66684017D01*
X99535881Y-66659000D01*
X99664119Y-66659000D01*
X99789890Y-66684017D01*
X99789890Y-66684017D01*
G37*
G36*
X123527916Y-66742334D02*
G01*
X123636492Y-66775271D01*
X123636495Y-66775272D01*
X123672601Y-66794571D01*
X123736557Y-66828756D01*
X123824264Y-66900736D01*
X123896244Y-66988443D01*
X123930429Y-67052399D01*
X123949728Y-67088505D01*
X123949729Y-67088508D01*
X123982666Y-67197084D01*
X123993787Y-67310000D01*
X123982666Y-67422916D01*
X123949729Y-67531492D01*
X123949728Y-67531495D01*
X123930429Y-67567601D01*
X123896244Y-67631557D01*
X123824264Y-67719264D01*
X123736557Y-67791244D01*
X123672601Y-67825429D01*
X123636495Y-67844728D01*
X123636492Y-67844729D01*
X123527916Y-67877666D01*
X123443298Y-67886000D01*
X122936702Y-67886000D01*
X122852084Y-67877666D01*
X122743508Y-67844729D01*
X122743505Y-67844728D01*
X122707399Y-67825429D01*
X122643443Y-67791244D01*
X122555736Y-67719264D01*
X122483756Y-67631557D01*
X122449571Y-67567601D01*
X122430272Y-67531495D01*
X122430271Y-67531492D01*
X122397334Y-67422916D01*
X122386213Y-67310000D01*
X122397334Y-67197084D01*
X122430271Y-67088508D01*
X122430272Y-67088505D01*
X122449571Y-67052399D01*
X122483756Y-66988443D01*
X122555736Y-66900736D01*
X122643443Y-66828756D01*
X122707399Y-66794571D01*
X122743505Y-66775272D01*
X122743508Y-66775271D01*
X122852084Y-66742334D01*
X122936702Y-66734000D01*
X123443298Y-66734000D01*
X123527916Y-66742334D01*
X123527916Y-66742334D01*
G37*
G36*
X141307916Y-66742334D02*
G01*
X141416492Y-66775271D01*
X141416495Y-66775272D01*
X141452601Y-66794571D01*
X141516557Y-66828756D01*
X141604264Y-66900736D01*
X141676244Y-66988443D01*
X141710429Y-67052399D01*
X141729728Y-67088505D01*
X141729729Y-67088508D01*
X141762666Y-67197084D01*
X141773787Y-67310000D01*
X141762666Y-67422916D01*
X141729729Y-67531492D01*
X141729728Y-67531495D01*
X141710429Y-67567601D01*
X141676244Y-67631557D01*
X141604264Y-67719264D01*
X141516557Y-67791244D01*
X141452601Y-67825429D01*
X141416495Y-67844728D01*
X141416492Y-67844729D01*
X141307916Y-67877666D01*
X141223298Y-67886000D01*
X140716702Y-67886000D01*
X140632084Y-67877666D01*
X140523508Y-67844729D01*
X140523505Y-67844728D01*
X140487399Y-67825429D01*
X140423443Y-67791244D01*
X140335736Y-67719264D01*
X140263756Y-67631557D01*
X140229571Y-67567601D01*
X140210272Y-67531495D01*
X140210271Y-67531492D01*
X140177334Y-67422916D01*
X140166213Y-67310000D01*
X140177334Y-67197084D01*
X140210271Y-67088508D01*
X140210272Y-67088505D01*
X140229571Y-67052399D01*
X140263756Y-66988443D01*
X140335736Y-66900736D01*
X140423443Y-66828756D01*
X140487399Y-66794571D01*
X140523505Y-66775272D01*
X140523508Y-66775271D01*
X140632084Y-66742334D01*
X140716702Y-66734000D01*
X141223298Y-66734000D01*
X141307916Y-66742334D01*
X141307916Y-66742334D01*
G37*
G36*
X105747916Y-66742334D02*
G01*
X105856492Y-66775271D01*
X105856495Y-66775272D01*
X105892601Y-66794571D01*
X105956557Y-66828756D01*
X106044264Y-66900736D01*
X106116244Y-66988443D01*
X106150429Y-67052399D01*
X106169728Y-67088505D01*
X106169729Y-67088508D01*
X106202666Y-67197084D01*
X106213787Y-67310000D01*
X106202666Y-67422916D01*
X106169729Y-67531492D01*
X106169728Y-67531495D01*
X106150429Y-67567601D01*
X106116244Y-67631557D01*
X106044264Y-67719264D01*
X105956557Y-67791244D01*
X105892601Y-67825429D01*
X105856495Y-67844728D01*
X105856492Y-67844729D01*
X105747916Y-67877666D01*
X105663298Y-67886000D01*
X105156702Y-67886000D01*
X105072084Y-67877666D01*
X104963508Y-67844729D01*
X104963505Y-67844728D01*
X104927399Y-67825429D01*
X104863443Y-67791244D01*
X104775736Y-67719264D01*
X104703756Y-67631557D01*
X104669571Y-67567601D01*
X104650272Y-67531495D01*
X104650271Y-67531492D01*
X104617334Y-67422916D01*
X104606213Y-67310000D01*
X104617334Y-67197084D01*
X104650271Y-67088508D01*
X104650272Y-67088505D01*
X104669571Y-67052399D01*
X104703756Y-66988443D01*
X104775736Y-66900736D01*
X104863443Y-66828756D01*
X104927399Y-66794571D01*
X104963505Y-66775272D01*
X104963508Y-66775271D01*
X105072084Y-66742334D01*
X105156702Y-66734000D01*
X105663298Y-66734000D01*
X105747916Y-66742334D01*
X105747916Y-66742334D01*
G37*
G36*
X70187916Y-66742334D02*
G01*
X70296492Y-66775271D01*
X70296495Y-66775272D01*
X70332601Y-66794571D01*
X70396557Y-66828756D01*
X70484264Y-66900736D01*
X70556244Y-66988443D01*
X70590429Y-67052399D01*
X70609728Y-67088505D01*
X70609729Y-67088508D01*
X70642666Y-67197084D01*
X70653787Y-67310000D01*
X70642666Y-67422916D01*
X70609729Y-67531492D01*
X70609728Y-67531495D01*
X70590429Y-67567601D01*
X70556244Y-67631557D01*
X70484264Y-67719264D01*
X70396557Y-67791244D01*
X70332601Y-67825429D01*
X70296495Y-67844728D01*
X70296492Y-67844729D01*
X70187916Y-67877666D01*
X70103298Y-67886000D01*
X69596702Y-67886000D01*
X69512084Y-67877666D01*
X69403508Y-67844729D01*
X69403505Y-67844728D01*
X69367399Y-67825429D01*
X69303443Y-67791244D01*
X69215736Y-67719264D01*
X69143756Y-67631557D01*
X69109571Y-67567601D01*
X69090272Y-67531495D01*
X69090271Y-67531492D01*
X69057334Y-67422916D01*
X69046213Y-67310000D01*
X69057334Y-67197084D01*
X69090271Y-67088508D01*
X69090272Y-67088505D01*
X69109571Y-67052399D01*
X69143756Y-66988443D01*
X69215736Y-66900736D01*
X69303443Y-66828756D01*
X69367399Y-66794571D01*
X69403505Y-66775272D01*
X69403508Y-66775271D01*
X69512084Y-66742334D01*
X69596702Y-66734000D01*
X70103298Y-66734000D01*
X70187916Y-66742334D01*
X70187916Y-66742334D01*
G37*
G36*
X87967916Y-66742334D02*
G01*
X88076492Y-66775271D01*
X88076495Y-66775272D01*
X88112601Y-66794571D01*
X88176557Y-66828756D01*
X88264264Y-66900736D01*
X88336244Y-66988443D01*
X88370429Y-67052399D01*
X88389728Y-67088505D01*
X88389729Y-67088508D01*
X88422666Y-67197084D01*
X88433787Y-67310000D01*
X88422666Y-67422916D01*
X88389729Y-67531492D01*
X88389728Y-67531495D01*
X88370429Y-67567601D01*
X88336244Y-67631557D01*
X88264264Y-67719264D01*
X88176557Y-67791244D01*
X88112601Y-67825429D01*
X88076495Y-67844728D01*
X88076492Y-67844729D01*
X87967916Y-67877666D01*
X87883298Y-67886000D01*
X87376702Y-67886000D01*
X87292084Y-67877666D01*
X87183508Y-67844729D01*
X87183505Y-67844728D01*
X87147399Y-67825429D01*
X87083443Y-67791244D01*
X86995736Y-67719264D01*
X86923756Y-67631557D01*
X86889571Y-67567601D01*
X86870272Y-67531495D01*
X86870271Y-67531492D01*
X86837334Y-67422916D01*
X86826213Y-67310000D01*
X86837334Y-67197084D01*
X86870271Y-67088508D01*
X86870272Y-67088505D01*
X86889571Y-67052399D01*
X86923756Y-66988443D01*
X86995736Y-66900736D01*
X87083443Y-66828756D01*
X87147399Y-66794571D01*
X87183505Y-66775272D01*
X87183508Y-66775271D01*
X87292084Y-66742334D01*
X87376702Y-66734000D01*
X87883298Y-66734000D01*
X87967916Y-66742334D01*
X87967916Y-66742334D01*
G37*
G36*
X112711000Y-65721000D02*
G01*
X110809000Y-65721000D01*
X110809000Y-63819000D01*
X112711000Y-63819000D01*
X112711000Y-65721000D01*
X112711000Y-65721000D01*
G37*
G36*
X130491000Y-65721000D02*
G01*
X128589000Y-65721000D01*
X128589000Y-63819000D01*
X130491000Y-63819000D01*
X130491000Y-65721000D01*
X130491000Y-65721000D01*
G37*
G36*
X148271000Y-65721000D02*
G01*
X146369000Y-65721000D01*
X146369000Y-63819000D01*
X148271000Y-63819000D01*
X148271000Y-65721000D01*
X148271000Y-65721000D01*
G37*
G36*
X77151000Y-65721000D02*
G01*
X75249000Y-65721000D01*
X75249000Y-63819000D01*
X77151000Y-63819000D01*
X77151000Y-65721000D01*
X77151000Y-65721000D01*
G37*
G36*
X94931000Y-65721000D02*
G01*
X93029000Y-65721000D01*
X93029000Y-63819000D01*
X94931000Y-63819000D01*
X94931000Y-65721000D01*
X94931000Y-65721000D01*
G37*
G36*
X141771000Y-65346000D02*
G01*
X140169000Y-65346000D01*
X140169000Y-64194000D01*
X141771000Y-64194000D01*
X141771000Y-65346000D01*
X141771000Y-65346000D01*
G37*
G36*
X123991000Y-65346000D02*
G01*
X122389000Y-65346000D01*
X122389000Y-64194000D01*
X123991000Y-64194000D01*
X123991000Y-65346000D01*
X123991000Y-65346000D01*
G37*
G36*
X70651000Y-65346000D02*
G01*
X69049000Y-65346000D01*
X69049000Y-64194000D01*
X70651000Y-64194000D01*
X70651000Y-65346000D01*
X70651000Y-65346000D01*
G37*
G36*
X88431000Y-65346000D02*
G01*
X86829000Y-65346000D01*
X86829000Y-64194000D01*
X88431000Y-64194000D01*
X88431000Y-65346000D01*
X88431000Y-65346000D01*
G37*
G36*
X106211000Y-65346000D02*
G01*
X104609000Y-65346000D01*
X104609000Y-64194000D01*
X106211000Y-64194000D01*
X106211000Y-65346000D01*
X106211000Y-65346000D01*
G37*
G36*
X109716031Y-60184207D02*
G01*
X109914145Y-60244305D01*
X109914148Y-60244306D01*
X109941610Y-60258985D01*
X110096729Y-60341897D01*
X110256765Y-60473235D01*
X110388103Y-60633271D01*
X110408682Y-60671772D01*
X110485694Y-60815851D01*
X110485694Y-60815852D01*
X110485695Y-60815854D01*
X110545793Y-61013968D01*
X110561000Y-61168370D01*
X110561000Y-61771629D01*
X110545793Y-61926031D01*
X110485695Y-62124145D01*
X110485694Y-62124148D01*
X110433940Y-62220974D01*
X110388103Y-62306729D01*
X110256765Y-62466765D01*
X110096729Y-62598103D01*
X110010975Y-62643939D01*
X109914149Y-62695694D01*
X109914146Y-62695695D01*
X109716032Y-62755793D01*
X109510000Y-62776085D01*
X109303969Y-62755793D01*
X109105855Y-62695695D01*
X109105852Y-62695694D01*
X109009026Y-62643939D01*
X108923272Y-62598103D01*
X108763236Y-62466765D01*
X108631898Y-62306729D01*
X108534306Y-62124148D01*
X108534305Y-62124147D01*
X108514272Y-62058108D01*
X108474207Y-61926032D01*
X108459000Y-61771630D01*
X108459000Y-61168371D01*
X108474207Y-61013969D01*
X108534305Y-60815855D01*
X108534306Y-60815852D01*
X108569521Y-60749970D01*
X108631897Y-60633271D01*
X108763235Y-60473235D01*
X108923271Y-60341897D01*
X109078389Y-60258985D01*
X109105851Y-60244306D01*
X109105854Y-60244305D01*
X109303968Y-60184207D01*
X109510000Y-60163915D01*
X109716031Y-60184207D01*
X109716031Y-60184207D01*
G37*
G36*
X114216031Y-60184207D02*
G01*
X114414145Y-60244305D01*
X114414148Y-60244306D01*
X114441610Y-60258985D01*
X114596729Y-60341897D01*
X114756765Y-60473235D01*
X114888103Y-60633271D01*
X114908682Y-60671772D01*
X114985694Y-60815851D01*
X114985694Y-60815852D01*
X114985695Y-60815854D01*
X115045793Y-61013968D01*
X115061000Y-61168370D01*
X115061000Y-61771629D01*
X115045793Y-61926031D01*
X114985695Y-62124145D01*
X114985694Y-62124148D01*
X114933940Y-62220974D01*
X114888103Y-62306729D01*
X114756765Y-62466765D01*
X114596729Y-62598103D01*
X114510975Y-62643939D01*
X114414149Y-62695694D01*
X114414146Y-62695695D01*
X114216032Y-62755793D01*
X114010000Y-62776085D01*
X113803969Y-62755793D01*
X113605855Y-62695695D01*
X113605852Y-62695694D01*
X113509026Y-62643939D01*
X113423272Y-62598103D01*
X113263236Y-62466765D01*
X113131898Y-62306729D01*
X113034306Y-62124148D01*
X113034305Y-62124147D01*
X113014272Y-62058108D01*
X112974207Y-61926032D01*
X112959000Y-61771630D01*
X112959000Y-61168371D01*
X112974207Y-61013969D01*
X113034305Y-60815855D01*
X113034306Y-60815852D01*
X113069521Y-60749970D01*
X113131897Y-60633271D01*
X113263235Y-60473235D01*
X113423271Y-60341897D01*
X113578389Y-60258985D01*
X113605851Y-60244306D01*
X113605854Y-60244305D01*
X113803968Y-60184207D01*
X114010000Y-60163915D01*
X114216031Y-60184207D01*
X114216031Y-60184207D01*
G37*
G36*
X146581000Y-62761000D02*
G01*
X142979000Y-62761000D01*
X142979000Y-59159000D01*
X146581000Y-59159000D01*
X146581000Y-62761000D01*
X146581000Y-62761000D01*
G37*
G36*
X122168228Y-60101703D02*
G01*
X122323100Y-60165853D01*
X122462481Y-60258985D01*
X122581015Y-60377519D01*
X122674147Y-60516900D01*
X122738297Y-60671772D01*
X122771000Y-60836184D01*
X122771000Y-61003816D01*
X122738297Y-61168228D01*
X122674147Y-61323100D01*
X122581015Y-61462481D01*
X122462481Y-61581015D01*
X122323100Y-61674147D01*
X122168228Y-61738297D01*
X122003816Y-61771000D01*
X121836184Y-61771000D01*
X121671772Y-61738297D01*
X121516900Y-61674147D01*
X121377519Y-61581015D01*
X121258985Y-61462481D01*
X121165853Y-61323100D01*
X121101703Y-61168228D01*
X121069000Y-61003816D01*
X121069000Y-60836184D01*
X121101703Y-60671772D01*
X121165853Y-60516900D01*
X121258985Y-60377519D01*
X121377519Y-60258985D01*
X121516900Y-60165853D01*
X121671772Y-60101703D01*
X121836184Y-60069000D01*
X122003816Y-60069000D01*
X122168228Y-60101703D01*
X122168228Y-60101703D01*
G37*
G36*
X129650442Y-58795518D02*
G01*
X129716627Y-58802037D01*
X129886466Y-58853557D01*
X130042991Y-58937222D01*
X130073768Y-58962480D01*
X130180186Y-59049814D01*
X130255847Y-59142009D01*
X130292778Y-59187009D01*
X130376443Y-59343534D01*
X130427963Y-59513373D01*
X130445359Y-59690000D01*
X130427963Y-59866627D01*
X130376443Y-60036466D01*
X130292778Y-60192991D01*
X130263448Y-60228729D01*
X130180186Y-60330186D01*
X130122508Y-60377520D01*
X130042991Y-60442778D01*
X129886466Y-60526443D01*
X129716627Y-60577963D01*
X129650443Y-60584481D01*
X129584260Y-60591000D01*
X129495740Y-60591000D01*
X129429557Y-60584481D01*
X129363373Y-60577963D01*
X129193534Y-60526443D01*
X129037009Y-60442778D01*
X128957492Y-60377520D01*
X128899814Y-60330186D01*
X128816552Y-60228729D01*
X128787222Y-60192991D01*
X128703557Y-60036466D01*
X128652037Y-59866627D01*
X128634641Y-59690000D01*
X128652037Y-59513373D01*
X128703557Y-59343534D01*
X128787222Y-59187009D01*
X128824153Y-59142009D01*
X128899814Y-59049814D01*
X129006232Y-58962480D01*
X129037009Y-58937222D01*
X129193534Y-58853557D01*
X129363373Y-58802037D01*
X129429558Y-58795518D01*
X129495740Y-58789000D01*
X129584260Y-58789000D01*
X129650442Y-58795518D01*
X129650442Y-58795518D01*
G37*
G36*
X74561000Y-60591000D02*
G01*
X72759000Y-60591000D01*
X72759000Y-58789000D01*
X74561000Y-58789000D01*
X74561000Y-60591000D01*
X74561000Y-60591000D01*
G37*
G36*
X78850442Y-58795518D02*
G01*
X78916627Y-58802037D01*
X79086466Y-58853557D01*
X79242991Y-58937222D01*
X79273768Y-58962480D01*
X79380186Y-59049814D01*
X79455847Y-59142009D01*
X79492778Y-59187009D01*
X79576443Y-59343534D01*
X79627963Y-59513373D01*
X79645359Y-59690000D01*
X79627963Y-59866627D01*
X79576443Y-60036466D01*
X79492778Y-60192991D01*
X79463448Y-60228729D01*
X79380186Y-60330186D01*
X79322508Y-60377520D01*
X79242991Y-60442778D01*
X79086466Y-60526443D01*
X78916627Y-60577963D01*
X78850443Y-60584481D01*
X78784260Y-60591000D01*
X78695740Y-60591000D01*
X78629557Y-60584481D01*
X78563373Y-60577963D01*
X78393534Y-60526443D01*
X78237009Y-60442778D01*
X78157492Y-60377520D01*
X78099814Y-60330186D01*
X78016552Y-60228729D01*
X77987222Y-60192991D01*
X77903557Y-60036466D01*
X77852037Y-59866627D01*
X77834641Y-59690000D01*
X77852037Y-59513373D01*
X77903557Y-59343534D01*
X77987222Y-59187009D01*
X78024153Y-59142009D01*
X78099814Y-59049814D01*
X78206232Y-58962480D01*
X78237009Y-58937222D01*
X78393534Y-58853557D01*
X78563373Y-58802037D01*
X78629558Y-58795518D01*
X78695740Y-58789000D01*
X78784260Y-58789000D01*
X78850442Y-58795518D01*
X78850442Y-58795518D01*
G37*
G36*
X132190442Y-58795518D02*
G01*
X132256627Y-58802037D01*
X132426466Y-58853557D01*
X132582991Y-58937222D01*
X132613768Y-58962480D01*
X132720186Y-59049814D01*
X132795847Y-59142009D01*
X132832778Y-59187009D01*
X132916443Y-59343534D01*
X132967963Y-59513373D01*
X132985359Y-59690000D01*
X132967963Y-59866627D01*
X132916443Y-60036466D01*
X132832778Y-60192991D01*
X132803448Y-60228729D01*
X132720186Y-60330186D01*
X132662508Y-60377520D01*
X132582991Y-60442778D01*
X132426466Y-60526443D01*
X132256627Y-60577963D01*
X132190443Y-60584481D01*
X132124260Y-60591000D01*
X132035740Y-60591000D01*
X131969557Y-60584481D01*
X131903373Y-60577963D01*
X131733534Y-60526443D01*
X131577009Y-60442778D01*
X131497492Y-60377520D01*
X131439814Y-60330186D01*
X131356552Y-60228729D01*
X131327222Y-60192991D01*
X131243557Y-60036466D01*
X131192037Y-59866627D01*
X131174641Y-59690000D01*
X131192037Y-59513373D01*
X131243557Y-59343534D01*
X131327222Y-59187009D01*
X131364153Y-59142009D01*
X131439814Y-59049814D01*
X131546232Y-58962480D01*
X131577009Y-58937222D01*
X131733534Y-58853557D01*
X131903373Y-58802037D01*
X131969558Y-58795518D01*
X132035740Y-58789000D01*
X132124260Y-58789000D01*
X132190442Y-58795518D01*
X132190442Y-58795518D01*
G37*
G36*
X76310442Y-58795518D02*
G01*
X76376627Y-58802037D01*
X76546466Y-58853557D01*
X76702991Y-58937222D01*
X76733768Y-58962480D01*
X76840186Y-59049814D01*
X76915847Y-59142009D01*
X76952778Y-59187009D01*
X77036443Y-59343534D01*
X77087963Y-59513373D01*
X77105359Y-59690000D01*
X77087963Y-59866627D01*
X77036443Y-60036466D01*
X76952778Y-60192991D01*
X76923448Y-60228729D01*
X76840186Y-60330186D01*
X76782508Y-60377520D01*
X76702991Y-60442778D01*
X76546466Y-60526443D01*
X76376627Y-60577963D01*
X76310443Y-60584481D01*
X76244260Y-60591000D01*
X76155740Y-60591000D01*
X76089557Y-60584481D01*
X76023373Y-60577963D01*
X75853534Y-60526443D01*
X75697009Y-60442778D01*
X75617492Y-60377520D01*
X75559814Y-60330186D01*
X75476552Y-60228729D01*
X75447222Y-60192991D01*
X75363557Y-60036466D01*
X75312037Y-59866627D01*
X75294641Y-59690000D01*
X75312037Y-59513373D01*
X75363557Y-59343534D01*
X75447222Y-59187009D01*
X75484153Y-59142009D01*
X75559814Y-59049814D01*
X75666232Y-58962480D01*
X75697009Y-58937222D01*
X75853534Y-58853557D01*
X76023373Y-58802037D01*
X76089558Y-58795518D01*
X76155740Y-58789000D01*
X76244260Y-58789000D01*
X76310442Y-58795518D01*
X76310442Y-58795518D01*
G37*
G36*
X127901000Y-60591000D02*
G01*
X126099000Y-60591000D01*
X126099000Y-58789000D01*
X127901000Y-58789000D01*
X127901000Y-60591000D01*
X127901000Y-60591000D01*
G37*
G36*
X111920721Y-59040174D02*
G01*
X112020995Y-59081709D01*
X112020996Y-59081710D01*
X112111242Y-59142010D01*
X112187990Y-59218758D01*
X112187991Y-59218760D01*
X112248291Y-59309005D01*
X112289826Y-59409279D01*
X112311000Y-59515730D01*
X112311000Y-59624270D01*
X112289826Y-59730721D01*
X112248291Y-59830995D01*
X112248290Y-59830996D01*
X112187990Y-59921242D01*
X112111242Y-59997990D01*
X112065812Y-60028345D01*
X112020995Y-60058291D01*
X111920721Y-60099826D01*
X111814270Y-60121000D01*
X111705730Y-60121000D01*
X111599279Y-60099826D01*
X111499005Y-60058291D01*
X111454188Y-60028345D01*
X111408758Y-59997990D01*
X111332010Y-59921242D01*
X111271710Y-59830996D01*
X111271709Y-59830995D01*
X111230174Y-59730721D01*
X111209000Y-59624270D01*
X111209000Y-59515730D01*
X111230174Y-59409279D01*
X111271709Y-59309005D01*
X111332009Y-59218760D01*
X111332010Y-59218758D01*
X111408758Y-59142010D01*
X111499004Y-59081710D01*
X111499005Y-59081709D01*
X111599279Y-59040174D01*
X111705730Y-59019000D01*
X111814270Y-59019000D01*
X111920721Y-59040174D01*
X111920721Y-59040174D01*
G37*
G36*
X141881000Y-59761000D02*
G01*
X138279000Y-59761000D01*
X138279000Y-56159000D01*
X141881000Y-56159000D01*
X141881000Y-59761000D01*
X141881000Y-59761000D01*
G37*
G36*
X122168228Y-57601703D02*
G01*
X122323100Y-57665853D01*
X122462481Y-57758985D01*
X122581015Y-57877519D01*
X122674147Y-58016900D01*
X122738297Y-58171772D01*
X122771000Y-58336184D01*
X122771000Y-58503816D01*
X122738297Y-58668228D01*
X122674147Y-58823100D01*
X122581015Y-58962481D01*
X122462481Y-59081015D01*
X122323100Y-59174147D01*
X122168228Y-59238297D01*
X122003816Y-59271000D01*
X121836184Y-59271000D01*
X121671772Y-59238297D01*
X121516900Y-59174147D01*
X121377519Y-59081015D01*
X121258985Y-58962481D01*
X121165853Y-58823100D01*
X121101703Y-58668228D01*
X121069000Y-58503816D01*
X121069000Y-58336184D01*
X121101703Y-58171772D01*
X121165853Y-58016900D01*
X121258985Y-57877519D01*
X121377519Y-57758985D01*
X121516900Y-57665853D01*
X121671772Y-57601703D01*
X121836184Y-57569000D01*
X122003816Y-57569000D01*
X122168228Y-57601703D01*
X122168228Y-57601703D01*
G37*
G36*
X113466031Y-54884207D02*
G01*
X113664145Y-54944305D01*
X113664148Y-54944306D01*
X113730030Y-54979521D01*
X113846729Y-55041897D01*
X114006765Y-55173235D01*
X114138103Y-55333271D01*
X114138104Y-55333273D01*
X114235694Y-55515851D01*
X114235694Y-55515852D01*
X114235695Y-55515854D01*
X114295793Y-55713968D01*
X114295793Y-55713970D01*
X114310690Y-55865217D01*
X114311000Y-55868370D01*
X114311000Y-56471629D01*
X114295793Y-56626031D01*
X114254850Y-56761000D01*
X114235694Y-56824148D01*
X114183940Y-56920974D01*
X114138103Y-57006729D01*
X114006765Y-57166765D01*
X113846729Y-57298103D01*
X113760975Y-57343939D01*
X113664149Y-57395694D01*
X113664146Y-57395695D01*
X113466032Y-57455793D01*
X113260000Y-57476085D01*
X113053969Y-57455793D01*
X112855855Y-57395695D01*
X112855852Y-57395694D01*
X112759026Y-57343939D01*
X112673272Y-57298103D01*
X112513236Y-57166765D01*
X112381898Y-57006729D01*
X112284306Y-56824148D01*
X112284305Y-56824147D01*
X112264272Y-56758108D01*
X112224207Y-56626032D01*
X112209000Y-56471630D01*
X112209000Y-55868371D01*
X112224207Y-55713969D01*
X112284305Y-55515855D01*
X112284306Y-55515852D01*
X112319521Y-55449970D01*
X112381897Y-55333271D01*
X112513235Y-55173235D01*
X112673271Y-55041897D01*
X112759025Y-54996061D01*
X112855851Y-54944306D01*
X112855854Y-54944305D01*
X113053968Y-54884207D01*
X113260000Y-54863915D01*
X113466031Y-54884207D01*
X113466031Y-54884207D01*
G37*
G36*
X146581000Y-56761000D02*
G01*
X142979000Y-56761000D01*
X142979000Y-53159000D01*
X146581000Y-53159000D01*
X146581000Y-56761000D01*
X146581000Y-56761000D01*
G37*
G36*
X156884239Y-50151467D02*
G01*
X157198282Y-50213934D01*
X157789926Y-50459001D01*
X158322392Y-50814784D01*
X158775216Y-51267608D01*
X159130999Y-51800074D01*
X159376066Y-52391718D01*
X159501000Y-53019804D01*
X159501000Y-53660196D01*
X159376066Y-54288282D01*
X159130999Y-54879926D01*
X158845986Y-55306477D01*
X158775217Y-55412391D01*
X158322391Y-55865217D01*
X158216477Y-55935986D01*
X157789926Y-56220999D01*
X157198282Y-56466066D01*
X156884239Y-56528533D01*
X156570197Y-56591000D01*
X155929803Y-56591000D01*
X155615761Y-56528533D01*
X155301718Y-56466066D01*
X154710074Y-56220999D01*
X154283523Y-55935986D01*
X154177609Y-55865217D01*
X153724783Y-55412391D01*
X153654014Y-55306477D01*
X153369001Y-54879926D01*
X153123934Y-54288282D01*
X152999000Y-53660196D01*
X152999000Y-53019804D01*
X153123934Y-52391718D01*
X153369001Y-51800074D01*
X153724784Y-51267608D01*
X154177608Y-50814784D01*
X154710074Y-50459001D01*
X155301718Y-50213934D01*
X155615761Y-50151467D01*
X155929803Y-50089000D01*
X156570197Y-50089000D01*
X156884239Y-50151467D01*
X156884239Y-50151467D01*
G37*
G36*
X67984239Y-50151467D02*
G01*
X68298282Y-50213934D01*
X68889926Y-50459001D01*
X69422392Y-50814784D01*
X69875216Y-51267608D01*
X70230999Y-51800074D01*
X70476066Y-52391718D01*
X70601000Y-53019804D01*
X70601000Y-53660196D01*
X70476066Y-54288282D01*
X70230999Y-54879926D01*
X69945986Y-55306477D01*
X69875217Y-55412391D01*
X69422391Y-55865217D01*
X69316477Y-55935986D01*
X68889926Y-56220999D01*
X68298282Y-56466066D01*
X67984239Y-56528533D01*
X67670197Y-56591000D01*
X67029803Y-56591000D01*
X66715761Y-56528533D01*
X66401718Y-56466066D01*
X65810074Y-56220999D01*
X65383523Y-55935986D01*
X65277609Y-55865217D01*
X64824783Y-55412391D01*
X64754014Y-55306477D01*
X64469001Y-54879926D01*
X64223934Y-54288282D01*
X64099000Y-53660196D01*
X64099000Y-53019804D01*
X64223934Y-52391718D01*
X64469001Y-51800074D01*
X64824784Y-51267608D01*
X65277608Y-50814784D01*
X65810074Y-50459001D01*
X66401718Y-50213934D01*
X66715761Y-50151467D01*
X67029803Y-50089000D01*
X67670197Y-50089000D01*
X67984239Y-50151467D01*
X67984239Y-50151467D01*
G37*
G36*
X111920721Y-51540174D02*
G01*
X112020995Y-51581709D01*
X112020996Y-51581710D01*
X112111242Y-51642010D01*
X112187990Y-51718758D01*
X112187991Y-51718760D01*
X112248291Y-51809005D01*
X112289826Y-51909279D01*
X112311000Y-52015730D01*
X112311000Y-52124270D01*
X112289826Y-52230721D01*
X112248291Y-52330995D01*
X112248290Y-52330996D01*
X112187990Y-52421242D01*
X112111242Y-52497990D01*
X112065812Y-52528345D01*
X112020995Y-52558291D01*
X111920721Y-52599826D01*
X111814270Y-52621000D01*
X111705730Y-52621000D01*
X111599279Y-52599826D01*
X111499005Y-52558291D01*
X111454188Y-52528345D01*
X111408758Y-52497990D01*
X111332010Y-52421242D01*
X111271710Y-52330996D01*
X111271709Y-52330995D01*
X111230174Y-52230721D01*
X111209000Y-52124270D01*
X111209000Y-52015730D01*
X111230174Y-51909279D01*
X111271709Y-51809005D01*
X111332009Y-51718760D01*
X111332010Y-51718758D01*
X111408758Y-51642010D01*
X111499004Y-51581710D01*
X111499005Y-51581709D01*
X111599279Y-51540174D01*
X111705730Y-51519000D01*
X111814270Y-51519000D01*
X111920721Y-51540174D01*
X111920721Y-51540174D01*
G37*
M02*
