M48
; DRILL file {KiCad (5.1.4)-1} date 12/21/2020 11:31:05 AM
; FORMAT={2:4/ absolute / inch / suppress trailing zeros}
; #@! TF.CreationDate,2020-12-21T11:31:05-05:00
; #@! TF.GenerationSoftware,Kicad,Pcbnew,(5.1.4)-1
; #@! TF.FileFunction,Plated,1,2,PTH
FMAT,2
INCH,LZ
T1C0.0236
T2C0.0295
T3C0.0315
T4C0.0354
T5C0.0394
T6C0.0433
T7C0.1260
%
G90
G05
T1
X054213Y-03375
X060213Y-0265
X047Y-03575
X047787Y-03575
X033213Y-03375
X034Y-03375
X033Y-03575
X033787Y-03575
X046213Y-0265
X047Y-0265
X053213Y-0265
X054Y-0265
X055Y-03375
X061Y-0265
X054Y-03575
X054787Y-03575
X032213Y-0265
X033Y-0265
X039213Y-0265
X04Y-0265
T2
X0415Y-034
X0415Y-035
X0415Y-0255
X0415Y-0265
X0345Y-0255
X0345Y-0265
X0275Y-0255
X0275Y-0265
X035Y-0345
X035Y-0355
X0555Y-0255
X0555Y-0265
X0605Y-034
X0605Y-035
X0275Y-034
X0275Y-035
X048Y-03375
X049Y-03375
X0485Y-0255
X0485Y-0265
T3
X055Y-037
X055Y-041
X034Y-0285
X034Y-0325
X033Y-037
X033Y-041
X054Y-028482
X054Y-032482
X054Y-037
X054Y-041
X048Y-0285
X048Y-0325
X048Y-037
X048Y-041
X061Y-0285
X061Y-0325
X055Y-0285
X055Y-0325
X04Y-037
X04Y-041
X047Y-037
X047Y-041
X027Y-0285
X027Y-0325
X061Y-036
X061Y-04
X041Y-037
X041Y-041
X027Y-036
X027Y-04
X041Y-0285
X041Y-0325
X048Y-023
X048Y-023984
X033Y-0285
X033Y-0325
X034Y-037
X034Y-041
X04Y-0285
X04Y-0325
X047Y-0285
X047Y-0325
T4
X051Y-0255
X051Y-0265
X037Y-034
X037Y-035
X058Y-034
X058Y-035
X03Y-0255
X03Y-0265
X044Y-034
X044Y-035
X058Y-0255
X058Y-0265
X044Y-0255
X044Y-0265
X051Y-034
X051Y-035
X03Y-034
X03Y-035
X037Y-0255
X037Y-0265
T5
X050016Y-0325
X051Y-0325
X051984Y-0325
X036016Y-041
X037Y-041
X037984Y-041
X043016Y-0325
X044Y-0325
X044984Y-0325
X050016Y-041
X051Y-041
X051984Y-041
X057016Y-041
X058Y-041
X058984Y-041
X043016Y-041
X044Y-041
X044984Y-041
X05Y-0235
X051Y-0235
X052Y-0235
X029Y-0235
X03Y-0235
X031Y-0235
X057016Y-0325
X058Y-0325
X058984Y-0325
X036016Y-0325
X037Y-0325
X037984Y-0325
X029016Y-0325
X03Y-0325
X030984Y-0325
X029016Y-041
X03Y-041
X030984Y-041
T7
X061516Y-042
X0265Y-042
X026516Y-021
X061516Y-021
T5
G00X05515Y-022425
M15
G01X05515Y-023213
M16
G05
G00X057394Y-021638
M15
G01X056606Y-021638
M16
G05
G00X057394Y-024
M15
G01X056606Y-024
M16
G05
G00X043114Y-024102
M15
G01X043114Y-024299
M16
G05
G00X044591Y-022016
M15
G01X044591Y-022213
M16
G05
G00X044886Y-024102
M15
G01X044886Y-024299
M16
G05
T6
G00X05611Y-029685
M15
G01X05611Y-029409
M16
G05
G00X05989Y-029685
M15
G01X05989Y-029409
M16
G05
G00X03511Y-029685
M15
G01X03511Y-029409
M16
G05
G00X03889Y-029685
M15
G01X03889Y-029409
M16
G05
G00X02811Y-029685
M15
G01X02811Y-029409
M16
G05
G00X03189Y-029685
M15
G01X03189Y-029409
M16
G05
G00X02811Y-038185
M15
G01X02811Y-037909
M16
G05
G00X03189Y-038185
M15
G01X03189Y-037909
M16
G05
G00X04911Y-029685
M15
G01X04911Y-029409
M16
G05
G00X05289Y-029685
M15
G01X05289Y-029409
M16
G05
G00X03511Y-038185
M15
G01X03511Y-037909
M16
G05
G00X03889Y-038185
M15
G01X03889Y-037909
M16
G05
G00X04211Y-029685
M15
G01X04211Y-029409
M16
G05
G00X04589Y-029685
M15
G01X04589Y-029409
M16
G05
G00X04911Y-038185
M15
G01X04911Y-037909
M16
G05
G00X05289Y-038185
M15
G01X05289Y-037909
M16
G05
G00X05611Y-038185
M15
G01X05611Y-037909
M16
G05
G00X05989Y-038185
M15
G01X05989Y-037909
M16
G05
G00X04211Y-038185
M15
G01X04211Y-037909
M16
G05
G00X04589Y-038185
M15
G01X04589Y-037909
M16
G05
T0
M30
